<svg xmlns="http://www.w3.org/2000/svg" width="px" height="66px" viewBox="0 0 45 66"><path d="M225.334 460.524h67.747a5.403 5.403 0 0 1 5.408 5.409V570.08a5.408 5.408 0 0 1-5.408 5.408h-67.747a5.408 5.408 0 0 1-5.408-5.408V465.933a5.403 5.403 0 0 1 5.408-5.409Zm0 0" style="fill-rule:nonzero;fill:#fff;fill-opacity:1;stroke-width:1.009;stroke-linecap:butt;stroke-linejoin:miter;stroke:#000;stroke-opacity:1;stroke-miterlimit:4" transform="translate(-124.09 -260.155) scale(.56553)"/><path d="M25.93 25.297c-1.465.543-2.43 1.305-2.864 2.281.11.164.329.418.653.742.383.274.566.559.566.883 0 .543-.32 1.438-.973 2.688-.597 1.25-1.05 1.875-1.378 1.875-.27 0-.473-.137-.582-.407.054-.328.171-.765.335-1.308.22-.598.352-1.106.407-1.54.11-.488.16-.945.16-1.378 0-.543-.188-.813-.567-.813a1.02 1.02 0 0 0-.742.32c-.164.16-.398.516-.726 1.06-.27.488-.457.808-.563.972-.11.215-.277.437-.496.652l-.406.406c-.055.11-.09.278-.09.497.11.164.313.296.586.406.324.054.477.156.477.316 0 .762-.188 1.25-.567 1.469-.379.219-1.105.336-2.191.336-.762 0-1.723-.137-2.864-.406-1.085-.274-1.894-.426-2.437-.426-.488 0-1.215.305-2.191.902.976 1.196 3.085 1.805 6.343 1.805 1.032 0 3.16-.477 6.364-1.399 3.203-.976 5.617-1.464 7.246-1.464 2.222 0 3.675.03 4.383.086.812-.38 1.421-.954 1.8-1.715-.27-.38-1.285-.563-3.023-.563-.867 0-1.676.051-2.438.156-.761.055-1.52.157-2.28.32-.759.16-1.349.282-1.782.337.05-.653.289-1.364.723-2.121.488-.762.742-1.403.742-1.946 0-1.629-.54-2.64-1.625-3.023Zm1.218 10.023c-.597 0-2.117.32-4.558.973-2.39.648-4.602 1.14-6.61 1.465-.218.922-.32 2.41-.32 4.472 0 2.66.406 4.247 1.219 4.735.219-.215.453-.555.726-.988l.336-.637c.653-.274 1.09-.406 1.309-.406 0 .218-.035.62-.09 1.218v1.133c-1.305.434-2.332.653-3.094.653-.324-.598-.593-1.356-.812-2.282-.215-.922-.488-1.629-.813-2.12-.27-.54-.746-.864-1.394-.97-.219.215-.32.387-.32.493 0 .273.05.68.16 1.222.11.489.242 1.13.406 1.942.164.761.281 1.367.336 1.804h-.336c-.488 0-1.164-.07-2.031-.18-.871-.105-1.547-.156-2.035-.156a.78.78 0 0 1-.086.336v.227c0 .598.437 1.07 1.308 1.398.867.325 1.813.477 2.844.477h.988c.055.11.121.363.23.742.11.379.227.734.337 1.063.164.324.297.68.406 1.058.164.324.332.594.496.813.215.218.402.32.566.32a.55.55 0 0 0 .407-.16.563.563 0 0 0 .156-.406 2.4 2.4 0 0 0 .09-.496c.054-.165.07-.383.07-.653.055-.273.09-.426.09-.476 1.465.433 2.324.652 2.598.652.16 0 .414-.137.742-.406.324-.274.593-.442.812-.496.758.488 2.059 1.113 3.907 1.875 1.898.703 3.199 1.058 3.906 1.058.488 0 1.195-.168 2.12-.492.977-.383 1.602-.566 1.872-.566 1.086 0 1.98-.239 2.687-.727.704-.488 1.059-1.195 1.059-2.121 0-1.086-.656-2.047-1.96-2.863-1.25-.813-2.466-1.352-3.657-1.625a20.004 20.004 0 0 0-3.344-.477 25.935 25.935 0 0 1-.156-2.773c0-1.52.183-2.989.566-4.403l.563-2.12c0-.759-.555-1.13-1.696-1.13Zm-2.617 2.032c0 .218-.015.52-.07.902v.973c-.324.05-.848.152-1.555.316-.707.11-1.328.227-1.87.336 0-.219.03-.488.085-.813.11-.328.16-.629.16-.902.38-.055.887-.156 1.54-.316a17.406 17.406 0 0 1 1.71-.496Zm-4.965 1.218c-.109.653-.16 1.192-.16 1.625l-1.465.25-.16-.09h-.176v-1.449Zm4.809 1.875c-.055.434-.09 1.059-.09 1.871-1.41.438-2.492.688-3.25.743v-1.801a23.153 23.153 0 0 0 3.34-.813Zm-5.125 1.149v1.87c-.762.11-1.285.161-1.559.161 0-.11-.03-.293-.086-.566v-1.235c.055-.054.258-.07.582-.07.38-.055.735-.106 1.063-.16Zm5.035 2.101c.055.489.09 1.2.09 2.121-.926.38-1.988.684-3.184.903v-2.192l1.63-.425c.702-.16 1.195-.297 1.464-.407Zm3.836 3.52c.922.05 1.953.289 3.094.722 1.137.38 1.71.786 1.71 1.22 0 .597-.218 1.038-.652 1.308-.433.219-1.023.351-1.785.406-.761.055-1.285.14-1.554.246-.22.11-.622.38-1.22.817-.597.379-1.12.562-1.554.562-.488 0-1.164-.168-2.035-.492-.867-.383-1.406-.719-1.625-1.043.273-.11.594-.313.973-.586.433-.27.824-.457 1.148-.563.055.106.14.293.246.563.11.273.176.441.23.496.977 0 1.993-.355 3.024-1.059.16-.328.246-.632.246-.902 0-.273-.05-.594-.16-.972-.05-.38-.086-.618-.086-.723Zm-3.66.07c-.055.27-.035.711.07 1.305-.379.11-.785.246-1.218.406-.38.164-.7.3-.973.41-.215.051-.434.086-.652.086-.274 0-.407-.437-.407-1.308 1.793-.543 2.856-.844 3.18-.899Zm-5.3 1.465c0 .543.136.984.405 1.309-.976.433-1.836.738-2.597.902a16.505 16.505 0 0 1-.582-1.309Zm0 0" style="stroke:none;fill-rule:nonzero;fill:#c00;fill-opacity:1"/><path d="M12.973 17.727c-3.203 0-4.805-.41-4.805-1.223 0-.488.434-.734 1.3-.734.22 0 .598.027 1.141.082h1.305c2.93 0 6.297-.813 10.098-2.442 3.855-1.629 6.16-2.445 6.922-2.445.867 0 1.738.137 2.605.41.922.215 1.602.324 2.035.324 1.196 0 1.985.164 2.364.489.378.324.57.894.57 1.71 0 .543-.164 1.059-.488 1.547-.274.489-.653.735-1.141.735-.055 0-.762-.274-2.117-.817-1.36-.543-2.989-.812-4.887-.812-2.55 0-5.238.543-8.063 1.629-2.769 1.03-5.05 1.547-6.84 1.547" style="stroke:none;fill-rule:nonzero;fill:#000;fill-opacity:1"/></svg>