<svg xmlns="http://www.w3.org/2000/svg" width="px" height="66px" viewBox="0 0 45 66"><path d="M339.085 411.625h67.746a5.403 5.403 0 0 1 5.409 5.408V521.18a5.408 5.408 0 0 1-5.409 5.409h-67.746a5.408 5.408 0 0 1-5.408-5.409V417.033a5.403 5.403 0 0 1 5.408-5.408Zm0 0" style="fill-rule:nonzero;fill:#fff;fill-opacity:1;stroke-width:1.009;stroke-linecap:butt;stroke-linejoin:miter;stroke:#000;stroke-opacity:1;stroke-miterlimit:4" transform="translate(-188.419 -232.501) scale(.56553)"/><path d="M27.313 36.945c-.598 0-2.118.325-4.563.973-2.387.652-4.598 1.14-6.61 1.469-.214.922-.316 2.406-.316 4.468 0 2.66.406 4.25 1.219 4.739.219-.219.453-.555.727-.989l.332-.636c.652-.274 1.093-.407 1.308-.407 0 .215-.031.622-.086 1.22v1.128c-1.304.438-2.336.656-3.094.656-.324-.597-.597-1.359-.812-2.28-.219-.923-.488-1.634-.813-2.122-.273-.543-.746-.863-1.398-.973-.215.22-.316.387-.316.496 0 .274.05.676.16 1.22.105.488.242 1.128.406 1.945.16.757.281 1.367.336 1.8h-.336c-.488 0-1.164-.066-2.035-.175-.867-.11-1.543-.16-2.031-.16 0 .109-.036.23-.09.335v.23c0 .598.441 1.071 1.308 1.4.871.323 1.817.476 2.848.476h.988c.055.11.121.36.23.742.11.379.227.734.337 1.059.16.328.297.68.406 1.062.16.324.332.594.492.813.219.214.406.316.567.316.164 0 .3-.05.406-.156.11-.11.16-.246.16-.41.055-.215.09-.383.09-.493.055-.164.07-.382.07-.656.055-.27.086-.422.086-.476 1.469.433 2.328.656 2.598.656.164 0 .418-.137.742-.406.328-.274.598-.442.816-.496.758.488 2.059 1.113 3.903 1.87 1.902.708 3.203 1.063 3.906 1.063.488 0 1.2-.168 2.121-.496.977-.379 1.602-.566 1.875-.566 1.086 0 1.98-.235 2.684-.723.707-.488 1.062-1.2 1.062-2.121 0-1.086-.66-2.047-1.96-2.863-1.25-.813-2.466-1.356-3.661-1.625a19.619 19.619 0 0 0-3.34-.477c-.11-.977-.16-1.906-.16-2.777 0-1.52.188-2.989.566-4.399l.567-2.12c0-.763-.559-1.134-1.695-1.134Zm-2.618 2.035c0 .215-.015.52-.07.899v.973a26.45 26.45 0 0 0-1.555.32 41.64 41.64 0 0 0-1.875.336c0-.219.035-.488.09-.813.11-.328.16-.633.16-.902.38-.055.883-.156 1.535-.32a18.801 18.801 0 0 1 1.715-.493ZM19.73 40.2c-.109.652-.16 1.19-.16 1.624l-1.468.246-.157-.086h-.175v-1.449Zm4.805 1.87c-.055.438-.086 1.063-.086 1.875-1.414.434-2.492.688-3.254.742v-1.8a22.572 22.572 0 0 0 3.34-.817Zm-5.125 1.153v1.87c-.758.11-1.281.16-1.555.16 0-.108-.035-.292-.085-.566V43.45c.05-.054.253-.07.582-.07.378-.055.734-.106 1.058-.156Zm5.04 2.101c.054.489.085 1.2.085 2.121-.922.38-1.984.684-3.18.903v-2.192l1.625-.426c.707-.164 1.196-.296 1.47-.406Zm3.831 3.516c.926.055 1.953.293 3.094.726 1.14.38 1.715.786 1.715 1.22 0 .597-.219 1.034-.653 1.308-.437.215-1.027.351-1.785.406-.761.055-1.285.137-1.554.246-.22.11-.625.379-1.223.813-.598.382-1.121.566-1.555.566-.488 0-1.164-.168-2.03-.496-.868-.379-1.411-.715-1.626-1.043.27-.106.59-.309.973-.582.433-.27.82-.457 1.148-.566.055.109.137.296.246.566.11.273.176.441.23.496.977 0 1.989-.355 3.02-1.063.164-.324.25-.628.25-.898 0-.273-.05-.594-.16-.973-.055-.382-.09-.617-.09-.726Zm-3.656.07c-.055.274-.04.711.07 1.309-.379.11-.785.246-1.218.406a44.24 44.24 0 0 1-.973.406c-.219.055-.438.09-.652.09-.274 0-.407-.441-.407-1.309 1.79-.542 2.856-.847 3.18-.902Zm-5.3 1.469c0 .543.132.98.405 1.309-.976.433-1.84.738-2.597.898a16.937 16.937 0 0 1-.586-1.305ZM29.586 35.398c-1.629 0-4.047.489-7.25 1.465-3.203.922-5.32 1.387-6.352 1.387-3.257 0-5.375-.598-6.351-1.793.976-.598 1.71-.895 2.199-.895.543 0 1.355.133 2.441.407 1.141.27 2.09.406 2.852.406 1.086 0 1.82-.11 2.2-.324.378-.219.57-.707.57-1.469 0-.16-.165-.27-.489-.324-.273-.11-.46-.242-.57-.406 0-.22.027-.38.082-.489.105-.11.242-.246.406-.41a2.52 2.52 0 0 0 .488-.648c.11-.164.297-.489.57-.977.325-.543.571-.898.735-1.058.215-.22.461-.329.73-.329.38 0 .571.274.571.817 0 .433-.055.894-.164 1.383-.05.433-.188.949-.406 1.547-.16.542-.27.976-.325 1.304.11.27.297.406.57.406.325 0 .786-.625 1.384-1.875.652-1.246.976-2.144.976-2.687 0-.324-.187-.621-.57-.895-.324-.324-.543-.57-.649-.734.434-.977 1.383-1.734 2.848-2.277 1.086.379 1.629 1.383 1.629 3.011 0 .543-.242 1.196-.73 1.954-.438.761-.68 1.468-.735 2.117a20.44 20.44 0 0 0 1.793-.325c.758-.164 1.52-.269 2.277-.324.762-.11 1.575-.164 2.446-.164 1.738 0 2.742.192 3.011.57-.378.762-.976 1.329-1.789 1.711-.707-.054-2.172-.082-4.398-.082" style="stroke:none;fill-rule:nonzero;fill:#c00;fill-opacity:1"/><path d="M12.238 21.39c1.63 0 4.645-.785 9.04-2.359 4.398-1.629 7.222-2.445 8.468-2.445 1.902 0 3.746.379 5.54 1.14 1.847.708 2.769 1.52 2.769 2.442 0 .488-.274.98-.817 1.469a2.491 2.491 0 0 1-1.707.648c-.218 0-1.277-.351-3.176-1.058-1.847-.704-3.503-1.059-4.968-1.059-1.953 0-4.914.625-8.88 1.875-3.96 1.25-6.456 1.871-7.491 1.871-1.899 0-3.254-.434-4.07-1.3.163-.489 1.003-.977 2.523-1.466.273 0 .707.051 1.304.16.598.055 1.086.083 1.465.083M12.973 14.469c0-.434 1.843-1.14 5.535-2.117.98-.27 1.765-.489 2.363-.653.867-.27 1.953-.597 3.258-.976a78.298 78.298 0 0 1 3.094-.977c.816-.273 1.386-.406 1.71-.406.489 0 .735.105.735.324 0 .324-.082.652-.246.977-.11.328-.27.652-.488.976-.22.328-.352.516-.407.57-8.254 2.172-12.894 3.258-13.925 3.258-1.086 0-1.63-.324-1.63-.976" style="stroke:none;fill-rule:nonzero;fill:#000;fill-opacity:1"/></svg>