<svg xmlns="http://www.w3.org/2000/svg" width="px" height="66px" viewBox="0 0 45 66"><path d="M519.297 514.885h67.746a5.403 5.403 0 0 1 5.408 5.409V624.44a5.408 5.408 0 0 1-5.408 5.408h-67.746a5.408 5.408 0 0 1-5.409-5.408V520.294a5.403 5.403 0 0 1 5.409-5.409Zm0 0" style="fill-rule:nonzero;fill:#fff;fill-opacity:1;stroke-width:1.009;stroke-linecap:butt;stroke-linejoin:miter;stroke:#000;stroke-opacity:1;stroke-miterlimit:4" transform="translate(-290.334 -290.898) scale(.56553)"/><path d="M27.313 37.762c-.598 0-2.118.32-4.563.972-2.387.653-4.598 1.141-6.61 1.465-.214.926-.316 2.41-.316 4.473 0 2.66.406 4.246 1.219 4.734.219-.215.453-.554.727-.988l.332-.637c.652-.27 1.093-.406 1.308-.406 0 .219-.031.621-.086 1.219v1.133c-1.304.433-2.336.652-3.094.652-.324-.598-.597-1.356-.812-2.277-.219-.926-.488-1.633-.813-2.122-.273-.542-.746-.863-1.398-.972-.215.215-.316.387-.316.496 0 .27.05.676.16 1.219.105.488.242 1.129.406 1.941.16.762.281 1.371.336 1.805h-.336c-.488 0-1.164-.07-2.035-.176-.867-.11-1.543-.16-2.031-.16 0 .11-.036.226-.09.336v.23c0 .598.441 1.07 1.308 1.395.871.324 1.817.476 2.848.476h.988c.055.11.121.364.23.742.11.383.227.735.337 1.063.16.324.297.68.406 1.059.16.328.332.597.492.812.219.219.406.32.567.32a.544.544 0 0 0 .566-.566 2.4 2.4 0 0 0 .09-.496c.055-.16.07-.383.07-.652.055-.274.086-.422.086-.477 1.469.434 2.328.652 2.598.652.164 0 .418-.132.742-.406.328-.27.598-.441.816-.496.758.488 2.059 1.113 3.903 1.875 1.902.707 3.203 1.059 3.906 1.059.488 0 1.2-.168 2.121-.493.977-.382 1.602-.566 1.875-.566 1.086 0 1.98-.234 2.684-.727.707-.488 1.062-1.195 1.062-2.117 0-1.086-.66-2.05-1.96-2.863-1.25-.816-2.466-1.355-3.661-1.629a20.018 20.018 0 0 0-3.34-.477c-.11-.976-.16-1.906-.16-2.773 0-1.52.188-2.988.566-4.402l.567-2.121c0-.758-.559-1.13-1.695-1.13Zm-2.618 2.031c0 .219-.015.523-.07.902v.973c-.324.055-.852.156-1.555.316a41.64 41.64 0 0 0-1.875.336c0-.215.035-.488.09-.812.11-.324.16-.63.16-.903.38-.054.883-.152 1.535-.316a17.76 17.76 0 0 1 1.715-.496Zm-4.965 1.219c-.109.652-.16 1.191-.16 1.629l-1.468.246-.157-.09h-.175v-1.45Zm4.805 1.875c-.055.433-.086 1.058-.086 1.875-1.414.433-2.492.687-3.254.742v-1.805a23.03 23.03 0 0 0 3.34-.812Zm-5.125 1.148v1.875c-.758.106-1.281.156-1.555.156 0-.105-.035-.293-.085-.562v-1.238c.05-.055.253-.07.582-.07.378-.055.734-.106 1.058-.16Zm5.04 2.102c.054.492.085 1.199.085 2.12-.922.384-1.984.684-3.18.903V46.97l1.625-.426c.707-.16 1.196-.297 1.47-.406Zm3.831 3.52c.926.054 1.953.288 3.094.722 1.14.383 1.715.785 1.715 1.219 0 .597-.219 1.039-.653 1.308-.437.219-1.027.352-1.785.407-.761.054-1.285.14-1.554.25-.22.105-.625.378-1.223.812-.598.379-1.121.563-1.555.563-.488 0-1.164-.168-2.03-.493-.868-.379-1.411-.718-1.626-1.043.27-.109.59-.312.973-.582.433-.273.82-.457 1.148-.566.055.11.137.293.246.566.11.27.176.438.23.492.977 0 1.989-.355 3.02-1.058.164-.328.25-.629.25-.902 0-.27-.05-.59-.16-.973-.055-.379-.09-.613-.09-.723Zm-3.656.07c-.055.27-.04.71.07 1.308a14.35 14.35 0 0 0-1.218.406c-.38.16-.7.297-.973.407a2.697 2.697 0 0 1-.652.086c-.274 0-.407-.438-.407-1.305 1.79-.543 2.856-.848 3.18-.902Zm-5.3 1.464c0 .543.132.985.405 1.309-.976.434-1.84.738-2.597.902a17.858 17.858 0 0 1-.586-1.308ZM29.586 36.21c-1.629 0-4.047.49-7.25 1.47-3.203.922-5.32 1.383-6.352 1.383-3.257 0-5.375-.598-6.351-1.793.976-.594 1.71-.895 2.199-.895.543 0 1.355.137 2.441.406 1.141.274 2.09.41 2.852.41 1.086 0 1.82-.109 2.2-.328.378-.215.57-.707.57-1.465 0-.164-.165-.273-.489-.324-.273-.11-.46-.246-.57-.41 0-.215.027-.379.082-.488.105-.11.242-.242.406-.406.219-.22.38-.434.488-.653.11-.164.297-.488.57-.976.325-.543.571-.895.735-1.059a.999.999 0 0 1 .73-.324c.383 0 .571.27.571.812 0 .434-.055.895-.164 1.383-.05.438-.188.953-.406 1.55-.16.544-.27.977-.325 1.302.11.273.297.406.57.406.325 0 .786-.621 1.384-1.871.652-1.25.976-2.145.976-2.688 0-.324-.187-.625-.57-.894-.324-.328-.543-.57-.649-.735.434-.976 1.383-1.738 2.848-2.28 1.086.382 1.629 1.386 1.629 3.015 0 .543-.242 1.191-.73 1.953-.438.762-.68 1.465-.735 2.117a23.902 23.902 0 0 0 1.793-.324 16.32 16.32 0 0 1 2.277-.328c.762-.11 1.575-.16 2.446-.164 1.738.004 2.742.191 3.011.57-.378.762-.976 1.332-1.789 1.711-.707-.055-2.172-.082-4.398-.082" style="stroke:none;fill-rule:nonzero;fill:#c00;fill-opacity:1"/><path d="M24.047 22.613c-.867 0-2.824.543-5.863 1.63-3.04 1.03-5.7 1.546-7.98 1.546-2.009 0-3.067-.3-3.177-.894 0-.22.434-.493 1.305-.817.922-.379 1.79-.625 2.605-.734.325-.051.95-.106 1.872-.16.921-.11 1.93-.247 3.011-.407a52.35 52.35 0 0 0 3.668-.898 133.73 133.73 0 0 0 4.153-1.14c1.3-.434 2.226-.731 2.77-.895a21.847 21.847 0 0 1 1.546-.407c.488-.109.895-.164 1.223-.164.488 0 1.465.352 2.93 1.059.706.324 1.628.68 2.769 1.059 1.195.379 2.008.734 2.441 1.058.434.328.653.79.653 1.387 0 .488-.22 1.086-.653 1.789-.379.652-.812.977-1.3.977-.434 0-1.657-.57-3.665-1.707-2.011-1.196-3.421-1.875-4.238-2.04-.758-.16-2.117-.242-4.07-.242M11.426 19.031c0-.218.433-.543 1.3-.98.926-.434 1.52-.649 1.794-.649.054 0 .218.028.488.078h.976c1.032 0 3.258-.543 6.68-1.628 3.418-1.082 5.453-1.625 6.106-1.625.433 0 .652.214.652.648 0 .707-.488 1.469-1.465 2.281-5.703 2.063-9.746 3.094-12.137 3.094-.867 0-1.816-.11-2.847-.324-1.032-.219-1.547-.516-1.547-.895M12.566 13.004c0-.164.352-.434 1.059-.816.758-.38 1.328-.57 1.707-.57.219 0 .488.027.816.081.325.055.625.082.895.082.977 0 2.55-.27 4.723-.812a124.988 124.988 0 0 0 5.945-1.63c1.793-.542 2.742-.816 2.852-.816.488 0 .734.22.734.653 0 .324-.3.812-.899 1.465-.543.652-1.085 1.14-1.628 1.464-1.575.274-3.829.79-6.758 1.551-2.88.703-4.778 1.059-5.7 1.059-.761 0-1.574-.192-2.445-.57-.867-.383-1.3-.762-1.3-1.141" style="stroke:none;fill-rule:nonzero;fill:#000;fill-opacity:1"/></svg>