<svg xmlns="http://www.w3.org/2000/svg" width="px" height="66px" viewBox="0 0 45 66"><path d="M387.504 405.86h67.746a5.403 5.403 0 0 1 5.409 5.409v104.147a5.408 5.408 0 0 1-5.409 5.408h-67.746a5.408 5.408 0 0 1-5.408-5.408V411.269a5.403 5.403 0 0 1 5.408-5.409Zm0 0" style="fill-rule:nonzero;fill:#fff;fill-opacity:1;stroke-width:1.009;stroke-linecap:butt;stroke-linejoin:miter;stroke:#000;stroke-opacity:1;stroke-miterlimit:4" transform="translate(-215.802 -229.241) scale(.56553)"/><path d="M27.305 36.988c-.594 0-2.114.32-4.559.973-2.387.652-4.601 1.14-6.61 1.465-.214.926-.316 2.41-.316 4.472 0 2.66.403 4.247 1.22 4.739.218-.219.452-.559.722-.992l.336-.637c.652-.27 1.093-.406 1.308-.406 0 .218-.035.625-.086 1.218v1.133c-1.304.434-2.336.652-3.093.652-.329-.597-.598-1.355-.813-2.277-.219-.926-.488-1.633-.812-2.121-.274-.543-.747-.863-1.399-.973-.215.22-.316.387-.316.496 0 .27.05.676.156 1.22.11.487.246 1.128.406 1.945.164.757.285 1.367.336 1.8h-.336c-.488 0-1.16-.066-2.031-.175-.867-.11-1.543-.16-2.031-.16 0 .109-.035.226-.09.335v.23c0 .598.441 1.071 1.308 1.395.868.328 1.813.477 2.844.477h.992c.055.11.121.363.23.742.106.383.227.734.337 1.063.16.324.297.68.406 1.058.16.328.332.598.492.813.219.218.403.32.567.32a.544.544 0 0 0 .566-.566 2.4 2.4 0 0 0 .09-.497c.05-.16.07-.382.07-.652.055-.27.086-.422.086-.476 1.469.433 2.328.652 2.598.652.164 0 .418-.133.742-.406.328-.27.598-.442.813-.493.761.489 2.062 1.11 3.906 1.872 1.902.707 3.199 1.062 3.906 1.062.488 0 1.2-.172 2.121-.496.977-.379 1.602-.566 1.875-.566 1.086 0 1.98-.235 2.684-.723.707-.492 1.062-1.2 1.062-2.121 0-1.086-.66-2.051-1.96-2.863-1.25-.817-2.466-1.356-3.66-1.625a19.648 19.648 0 0 0-3.34-.48c-.11-.977-.16-1.907-.16-2.774 0-1.52.187-2.989.566-4.399l.566-2.12c0-.763-.559-1.134-1.7-1.134ZM24.69 39.02c0 .218-.015.523-.07.902v.973a28.39 28.39 0 0 0-1.555.316c-.707.11-1.332.23-1.875.336 0-.215.036-.484.09-.813a2.83 2.83 0 0 0 .157-.902c.382-.05.886-.152 1.539-.316a17.76 17.76 0 0 1 1.714-.496Zm-4.964 1.222c-.11.649-.16 1.192-.16 1.625l-1.47.246-.156-.09h-.18v-1.449Zm4.804 1.871c-.054.434-.086 1.059-.086 1.875-1.414.434-2.492.688-3.254.742v-1.804c1.032-.16 2.145-.434 3.34-.813Zm-5.125 1.149v1.875c-.758.11-1.281.156-1.554.156 0-.105-.036-.293-.09-.563v-1.238c.054-.054.258-.07.586-.07.379-.055.734-.106 1.058-.16Zm5.04 2.105c.05.488.085 1.196.085 2.117-.922.383-1.984.688-3.18.903v-2.192l1.626-.422c.707-.164 1.195-.3 1.468-.406Zm3.831 3.516c.926.054 1.953.289 3.094.722 1.14.383 1.715.786 1.715 1.223 0 .594-.219 1.035-.652 1.305-.438.219-1.028.351-1.786.406-.761.055-1.285.14-1.558.25-.215.11-.621.379-1.219.813-.598.378-1.121.566-1.555.566-.488 0-1.164-.172-2.03-.496-.872-.379-1.411-.719-1.626-1.043.27-.11.59-.313.969-.582a5.516 5.516 0 0 1 1.152-.567c.051.11.137.293.246.567.11.27.176.437.23.492.977 0 1.99-.352 3.02-1.059.164-.324.25-.628.25-.902 0-.27-.05-.59-.16-.973-.055-.378-.09-.613-.09-.722Zm-3.656.07c-.055.27-.039.711.07 1.309-.378.11-.785.242-1.218.406-.383.164-.703.297-.973.406-.219.055-.438.09-.652.09-.274 0-.41-.441-.41-1.309 1.792-.542 2.855-.847 3.183-.902Zm-5.3 1.465c0 .543.132.984.406 1.309-.98.433-1.84.738-2.598.902a17.13 17.13 0 0 1-.586-1.309Zm0 0" style="stroke:none;fill-rule:nonzero;fill:#c00;fill-opacity:1"/><path d="M24.781 9.297c-.164 0-.3.086-.406.246-.11.164-.23.434-.336.812-.11.383-.195.618-.25.727-2.715.543-7.05 2.012-13.023 4.402-2.172-.816-3.504-1.222-3.996-1.222-.38 0-.665.187-.883.566.816 1.195 1.539 2.207 2.191 3.024.652.757 1.14 1.332 1.469 1.714.379.38.969.934 1.785 1.696a46.312 46.312 0 0 1 2.121 1.96c.106.11.309.329.582.657.324.324.527.558.637.723.16.164.383.367.652.582.274.218.528.37.742.476.274.055.543.09.813.09.433 0 1.465-.457 3.094-1.379 1.629-.922 3.25-1.394 4.879-1.394 1.03 0 1.91.117 2.613.335.762.16 1.437.399 2.035.723.594.274 1.05.442 1.375.496a110.73 110.73 0 0 0 2.688-1.804c1.085-.704 2.285-1.649 3.59-2.844 1.3-1.25 1.96-2.227 1.96-2.934 0-1.304-.355-2.246-1.062-2.844-.649-.652-1.934-1.242-3.832-1.785a36.694 36.694 0 0 0-7.653-1.468c-.054-.055-.207-.223-.48-.497a4.644 4.644 0 0 0-.742-.722c-.215-.219-.403-.336-.563-.336Zm2.754 4.066c.98.106 2.297.582 3.926 1.395 1.629.816 2.437 1.437 2.437 1.875 0 .324-.437 1.219-1.308 2.683-.867 1.47-1.457 2.192-1.785 2.192-.055 0-.39-.016-.989-.07a19.064 19.064 0 0 0-2.191-.247c-.813-.109-1.523-.16-2.121-.16.219-1.14.621-2.523 1.219-4.152.597-1.629.902-2.64.902-3.024 0-.054-.035-.136-.09-.246v-.246Zm-4.152.422c-.16 1.52-.348 4-.567 7.477-.16.054-.464.136-.898.246-.383.11-.668.195-.887.25.383-2.012.567-3.496.567-4.473 0-.27-.235-1.2-.723-2.773.813-.489 1.64-.727 2.508-.727ZM17.69 15.57c.274.22.407.59.407 1.133 0 .27.136 1.031.41 2.277.27 1.25.437 2.348.492 3.27l-.988.477a155.909 155.909 0 0 0-2.758-2.844c-.762-.867-1.285-1.41-1.555-1.625a9.1 9.1 0 0 0-.652-.742 45.662 45.662 0 0 1-.567-.973c.215-.11.758-.16 1.625-.16.38 0 .77-.031 1.149-.086.379-.11.785-.246 1.219-.406a8.17 8.17 0 0 1 1.218-.32Zm0 0" style="stroke:none;fill-rule:nonzero;fill:#000;fill-opacity:1"/><path d="M29.582 35.441c-1.629 0-4.047.489-7.25 1.465-3.203.922-5.32 1.383-6.352 1.383-3.257 0-5.375-.598-6.351-1.789.976-.598 1.71-.898 2.2-.898.542 0 1.355.136 2.44.406 1.141.273 2.09.41 2.852.41 1.086 0 1.82-.11 2.2-.328.378-.215.57-.703.57-1.465 0-.164-.164-.27-.489-.324-.273-.11-.46-.246-.57-.41 0-.215.027-.38.082-.489l.406-.406a2.56 2.56 0 0 0 .489-.652c.109-.16.296-.489.57-.977.324-.543.57-.894.73-1.058.22-.215.465-.325.735-.325.379 0 .57.27.57.813 0 .433-.055.898-.164 1.387-.055.433-.188.949-.406 1.546-.164.543-.27.977-.324 1.301.109.274.296.41.57.41.324 0 .785-.625 1.383-1.875.652-1.25.976-2.144.976-2.687 0-.324-.187-.625-.57-.895-.324-.328-.543-.57-.649-.734.434-.977 1.383-1.738 2.848-2.281 1.086.383 1.629 1.386 1.629 3.015 0 .543-.242 1.192-.73 1.953-.438.762-.68 1.465-.735 2.118a23.903 23.903 0 0 0 1.793-.325 16.32 16.32 0 0 1 2.277-.328c.762-.105 1.575-.16 2.446-.16 1.734 0 2.742.188 3.012.57-.38.758-.977 1.329-1.793 1.708-.704-.055-2.172-.079-4.395-.079" style="stroke:none;fill-rule:nonzero;fill:#c00;fill-opacity:1"/></svg>