<svg xmlns="http://www.w3.org/2000/svg" width="px" height="66px" viewBox="0 0 45 66"><path d="M195.445 479.752h67.746a5.403 5.403 0 0 1 5.409 5.408v104.147a5.408 5.408 0 0 1-5.409 5.409h-67.746a5.408 5.408 0 0 1-5.408-5.409V485.16a5.403 5.403 0 0 1 5.408-5.408Zm0 0" style="fill-rule:nonzero;fill:#fff;fill-opacity:1;stroke-width:1.009;stroke-linecap:butt;stroke-linejoin:miter;stroke:#000;stroke-opacity:1;stroke-miterlimit:4" transform="translate(-107.186 -271.029) scale(.56553)"/><path d="M27.305 38.086c-.594 0-2.114.32-4.559.969-2.387.652-4.601 1.144-6.61 1.468-.214.922-.316 2.407-.316 4.473 0 2.66.403 4.246 1.22 4.734.214-.218.452-.554.722-.988l.336-.637c.652-.273 1.093-.406 1.308-.406 0 .215-.035.621-.086 1.219v1.129c-1.304.437-2.336.656-3.093.656-.329-.598-.598-1.355-.813-2.281-.219-.922-.488-1.633-.812-2.121-.274-.543-.747-.864-1.399-.969-.215.215-.316.383-.316.492 0 .274.05.676.156 1.219.11.488.246 1.133.406 1.945.164.762.285 1.367.336 1.801h-.336c-.488 0-1.16-.066-2.031-.176-.867-.11-1.543-.156-2.031-.156a.756.756 0 0 1-.09.332v.23c0 .598.441 1.07 1.308 1.399.868.324 1.813.477 2.844.477h.992c.055.109.121.363.23.742.106.379.227.734.337 1.058.16.328.297.684.406 1.063.16.324.332.594.492.812.219.22.403.317.567.317.164 0 .297-.051.406-.157a.55.55 0 0 0 .16-.406 2.4 2.4 0 0 0 .09-.496c.05-.164.07-.383.07-.652.055-.274.086-.426.086-.48 1.465.437 2.328.656 2.598.656.164 0 .418-.137.742-.407.328-.273.598-.441.813-.496.761.489 2.062 1.114 3.906 1.875 1.902.703 3.199 1.059 3.906 1.059.488 0 1.2-.168 2.121-.496.977-.38 1.602-.563 1.875-.563 1.086 0 1.98-.238 2.684-.726.707-.489 1.062-1.2 1.062-2.121 0-1.086-.66-2.047-1.96-2.864-1.25-.812-2.466-1.351-3.66-1.625a20.018 20.018 0 0 0-3.34-.476c-.11-.977-.16-1.907-.16-2.774 0-1.523.187-2.992.566-4.402l.566-2.121c0-.758-.559-1.13-1.7-1.13Zm-2.614 2.031c0 .215-.015.52-.07.903v.968c-.328.055-.851.157-1.555.32-.707.11-1.332.227-1.875.337 0-.22.036-.489.09-.813.11-.328.157-.633.157-.902.382-.055.886-.157 1.539-.317a17.76 17.76 0 0 1 1.714-.496Zm-4.964 1.219c-.11.652-.16 1.191-.16 1.625l-1.47.25-.156-.09h-.18v-1.45Zm4.804 1.875c-.054.434-.086 1.059-.086 1.871-1.414.434-2.492.688-3.254.742v-1.8a23.153 23.153 0 0 0 3.34-.813Zm-5.125 1.148v1.871c-.758.11-1.281.16-1.554.16 0-.109-.036-.292-.09-.566v-1.238c.054-.05.258-.07.586-.07.379-.055.734-.102 1.058-.157Zm5.04 2.102c.05.488.085 1.2.085 2.121-.922.379-1.984.684-3.18.902v-2.191l1.626-.426c.707-.164 1.195-.297 1.468-.406Zm3.831 3.516c.926.054 1.953.293 3.094.726 1.14.379 1.715.785 1.715 1.219 0 .598-.219 1.035-.652 1.308-.438.215-1.028.352-1.786.407-.761.054-1.285.136-1.558.246-.215.11-.621.379-1.219.812-.598.383-1.121.567-1.555.567-.488 0-1.164-.168-2.03-.496-.872-.38-1.411-.715-1.626-1.04.27-.109.59-.312.969-.585.437-.27.824-.457 1.152-.567.051.11.137.297.246.567.11.273.176.441.23.496.977 0 1.99-.356 3.02-1.063.164-.324.25-.629.25-.898 0-.274-.05-.594-.16-.973-.055-.379-.09-.617-.09-.726Zm-3.656.07c-.055.273-.039.71.07 1.308-.378.11-.785.247-1.218.407-.383.164-.703.3-.973.406-.219.055-.438.09-.652.09-.274 0-.41-.438-.41-1.309 1.792-.543 2.855-.847 3.183-.902Zm-5.3 1.469c0 .543.132.98.406 1.308-.98.434-1.84.739-2.598.903a17.858 17.858 0 0 1-.586-1.309Zm0 0" style="stroke:none;fill-rule:nonzero;fill:#c00;fill-opacity:1"/><path d="M31.46 8.203c-.054 0-1.573.64-4.558 1.942-2.933 1.304-5.027 1.96-6.277 1.96-.27-.433-.707-.835-1.305-1.218-.543-.38-.863-.633-.972-.742-.164.109-.47.312-.903.582-.379.218-.683.457-.902.726-.215.219-.418.57-.637 1.059-.16.437-.379.808-.652 1.133.055.109.191.328.406.652.219.273.352.527.406.742.11.219.16.453.16.727 0 1.629-1.163 3.535-3.5 5.707-2.335 2.172-4.664 3.828-7 4.968.165.215.454.317.887.317.867 0 2.25-.555 4.153-1.695 1.898-1.141 3.539-2.391 4.894-3.747.38.16.567.48.567.97 0 .382-.137.87-.407 1.468-.273.598-.406 1.086-.406 1.465 0 .87.27 1.597.813 2.191.543.598 1.27.902 2.191.902.324 0 .527-.05.582-.16 0-.324.102-.593.32-.812.215-.27.57-.524 1.059-.742.543-.27 1.082-.489 1.625-.653.543-.218 1.336-.488 2.371-.812A60.73 60.73 0 0 0 27.379 24c0 .383-.02.703-.07.973-.055.273-.09.441-.09.496 0 .215.183.316.566.316.11 0 .36-.035.742-.086.38-.11.735-.16 1.059-.16 1.574 0 3.195.54 4.879 1.625 1.683 1.031 2.695 1.555 3.023 1.555.489 0 .89-.184 1.219-.567.379-.433.563-.922.566-1.465-.003-.816-.406-1.507-1.222-2.05-.813-.543-2.149-1.168-3.992-1.871-1.848-.707-3.145-1.246-3.907-1.63-.218-1.683-.336-2.796-.336-3.34 0-.16.086-.566.247-1.218.164-.652.148-1.055-.07-1.219-.325-.761-1.036-1.199-2.122-1.308-.105.707-.36 1.23-.742 1.554-.379.329-1.426.766-3.16 1.31.27-1.9 1.265-3.286 3.004-4.153 2.277-1.086 3.832-1.625 4.648-1.625.488 0 1.195.133 2.117.406.926.27 1.602.406 2.035.406 1.032 0 1.536-.71 1.536-2.12 0-1.087-1.942-1.626-5.848-1.626Zm-10.835 4.629c.543 0 1.05.133 1.54.406.542.219.812.555.812.989 0 .382-.407 1.546-1.22 3.5-.652.378-1.206.566-1.695.566-.218 0-.386-.238-.496-.727.325-.16.563-.586.723-1.234.164-.652.25-1.344.25-2.105.055-.813.086-1.286.086-1.395Zm5.941 4.805c.543 0 .813.527.813 1.558 0 .106-.02.38-.07.813v.898c0 .492.015.828.07 1.043-2.5 1.305-4.371 1.965-5.621 1.965 0-1.25.472-2.719 1.394-4.402a8.233 8.233 0 0 0 1.293-.723c.543-.328.98-.598 1.305-.816.383-.215.652-.336.816-.336Zm-8.714 1.965c.273.378.98.562 2.12.562h.407c.164-.05.266-.086.32-.086-.437 1.953-.941 3.238-1.539 3.836a.924.924 0 0 1-.902-.16v-.16c.055-.11.09-.192.09-.246 0-.22-.121-.657-.336-1.309-.164-.707-.25-1.281-.246-1.715-.004-.324.03-.562.086-.722Zm0 0" style="stroke:none;fill-rule:nonzero;fill:#000;fill-opacity:1"/><path d="M29.582 36.535c-1.629 0-4.047.488-7.25 1.465-3.203.926-5.32 1.387-6.352 1.387-3.257 0-5.375-.598-6.351-1.793.976-.598 1.71-.895 2.2-.895.542 0 1.355.133 2.44.406 1.141.27 2.09.407 2.852.407 1.086 0 1.82-.11 2.2-.325.378-.218.57-.707.57-1.464 0-.164-.164-.274-.489-.328-.273-.11-.46-.243-.57-.407 0-.218.027-.379.082-.488.106-.11.242-.246.406-.406.215-.219.38-.438.489-.653.109-.164.296-.488.57-.976.324-.543.57-.899.73-1.059.22-.218.465-.328.735-.328.379 0 .57.274.57.817 0 .433-.055.894-.164 1.382-.055.434-.188.95-.406 1.547-.164.543-.27.977-.324 1.305.109.27.296.406.57.406.324 0 .785-.625 1.383-1.87.652-1.25.976-2.145.976-2.688 0-.329-.187-.625-.57-.899-.324-.324-.543-.57-.649-.73.434-.98 1.383-1.739 2.848-2.282 1.086.38 1.629 1.383 1.629 3.012 0 .543-.242 1.195-.73 1.957-.438.758-.68 1.465-.735 2.117a22.382 22.382 0 0 0 1.793-.328c.758-.16 1.52-.27 2.277-.324.762-.11 1.575-.164 2.446-.164 1.734 0 2.742.191 3.012.57-.38.762-.977 1.332-1.793 1.711-.704-.054-2.172-.082-4.395-.082" style="stroke:none;fill-rule:nonzero;fill:#c00;fill-opacity:1"/></svg>