<svg xmlns="http://www.w3.org/2000/svg" width="px" height="66px" viewBox="0 0 45 66"><path d="M105.569 408.334h67.746a5.403 5.403 0 0 1 5.408 5.409V517.89a5.408 5.408 0 0 1-5.408 5.408h-67.746a5.408 5.408 0 0 1-5.408-5.408V413.743a5.403 5.403 0 0 1 5.408-5.409Zm0 0" style="fill-rule:nonzero;fill:#fff;fill-opacity:1;stroke-width:1.009;stroke-linecap:butt;stroke-linejoin:miter;stroke:#000;stroke-opacity:1;stroke-miterlimit:4" transform="translate(-56.359 -230.64) scale(.56553)"/><path d="M27.313 38.496c-.598 0-2.118.32-4.563.969-2.387.652-4.598 1.144-6.61 1.469-.214.921-.316 2.406-.316 4.472 0 2.66.406 4.246 1.219 4.735.219-.22.453-.555.727-.989l.332-.636c.652-.274 1.093-.407 1.308-.407 0 .215-.031.621-.086 1.22v1.128c-1.304.438-2.336.656-3.094.656-.324-.597-.597-1.355-.812-2.281-.219-.922-.488-1.633-.813-2.121-.273-.543-.746-.863-1.398-.969-.215.215-.316.383-.316.492 0 .274.05.676.16 1.22.105.487.242 1.132.406 1.944.16.762.281 1.368.336 1.801h-.336c-.488 0-1.164-.066-2.035-.176-.867-.109-1.543-.156-2.031-.156a.756.756 0 0 1-.09.332v.23c0 .598.441 1.071 1.308 1.4.871.323 1.817.476 2.848.476h.988c.055.11.121.363.23.742.11.379.227.734.337 1.058.16.329.297.684.406 1.063.16.324.332.594.492.812.219.22.406.317.567.317.164 0 .3-.05.406-.156a.55.55 0 0 0 .16-.407 2.4 2.4 0 0 0 .09-.496c.055-.164.07-.383.07-.652.055-.273.086-.426.086-.48 1.469.437 2.328.656 2.598.656.164 0 .418-.137.742-.407.328-.273.598-.44.816-.496.758.489 2.059 1.114 3.903 1.875 1.902.703 3.203 1.059 3.906 1.059.488 0 1.2-.168 2.121-.496.977-.379 1.602-.563 1.875-.563 1.086 0 1.98-.238 2.684-.726.707-.488 1.062-1.2 1.062-2.121 0-1.086-.66-2.047-1.96-2.864-1.25-.812-2.466-1.351-3.661-1.625a20.018 20.018 0 0 0-3.34-.476c-.11-.977-.16-1.906-.16-2.774 0-1.523.188-2.992.566-4.402l.567-2.121c0-.758-.559-1.129-1.695-1.129Zm-2.618 2.031c0 .215-.015.52-.07.903v.968a26.45 26.45 0 0 0-1.555.32c-.707.11-1.332.227-1.875.337 0-.22.035-.489.09-.813.11-.328.16-.633.16-.902a16.71 16.71 0 0 0 1.535-.317 17.76 17.76 0 0 1 1.715-.496Zm-4.965 1.22c-.109.651-.16 1.19-.16 1.624l-1.468.25-.157-.09h-.175v-1.449Zm4.805 1.874c-.055.434-.086 1.059-.086 1.871-1.414.434-2.492.688-3.254.742v-1.8a23.03 23.03 0 0 0 3.34-.813ZM19.41 44.77v1.87c-.758.11-1.281.16-1.555.16 0-.109-.035-.292-.085-.566v-1.238c.05-.05.253-.07.582-.07.378-.055.734-.102 1.058-.156Zm5.04 2.101c.054.488.085 1.2.085 2.121-.922.38-1.984.684-3.18.903v-2.192l1.625-.426c.707-.164 1.196-.297 1.47-.406Zm3.831 3.516c.926.054 1.953.293 3.094.726 1.14.38 1.715.785 1.715 1.219 0 .598-.219 1.035-.653 1.309-.437.214-1.027.351-1.785.406-.761.055-1.285.137-1.554.246-.22.11-.625.379-1.223.812-.598.383-1.121.567-1.555.567-.488 0-1.164-.168-2.03-.496-.868-.38-1.411-.715-1.626-1.04.27-.109.59-.312.973-.585.433-.27.82-.457 1.148-.567.055.11.137.297.246.567.11.273.176.441.23.496.977 0 1.989-.356 3.02-1.063.164-.324.25-.629.25-.898 0-.273-.05-.594-.16-.973-.055-.379-.09-.617-.09-.726Zm-3.656.07c-.055.273-.04.711.07 1.309-.379.109-.785.246-1.218.406-.38.164-.704.3-.973.406-.219.055-.438.09-.652.09-.274 0-.407-.438-.407-1.309 1.79-.543 2.856-.847 3.18-.902Zm-5.3 1.469c0 .543.132.98.405 1.308-.976.434-1.84.739-2.597.903a17.858 17.858 0 0 1-.586-1.309ZM29.586 36.945c-1.629 0-4.047.489-7.25 1.465-3.203.926-5.32 1.387-6.352 1.387-3.257 0-5.375-.598-6.351-1.793.976-.598 1.71-.895 2.199-.895.543 0 1.355.133 2.441.407 1.141.27 2.09.406 2.852.406 1.086 0 1.82-.11 2.2-.324.378-.22.57-.707.57-1.465 0-.164-.165-.274-.489-.328-.273-.11-.46-.242-.57-.407 0-.218.027-.378.082-.488.105-.11.242-.246.406-.406.219-.219.38-.438.488-.652.11-.164.297-.489.57-.977.325-.543.571-.898.735-1.059.215-.218.461-.328.73-.328.383 0 .571.274.571.817 0 .433-.055.894-.164 1.383-.05.433-.188.949-.406 1.546-.16.543-.27.977-.325 1.305.11.27.297.406.57.406.325 0 .786-.625 1.384-1.87.652-1.25.976-2.145.976-2.688 0-.328-.187-.625-.57-.899-.324-.324-.543-.57-.649-.73.434-.98 1.383-1.738 2.848-2.281 1.086.378 1.629 1.382 1.629 3.011 0 .543-.242 1.196-.73 1.957-.438.758-.68 1.465-.735 2.117a22.381 22.381 0 0 0 1.793-.328c.758-.16 1.52-.27 2.277-.324.762-.11 1.575-.164 2.446-.164 1.738 0 2.742.191 3.011.57-.378.762-.976 1.332-1.789 1.711-.707-.054-2.172-.082-4.398-.082" style="stroke:none;fill-rule:nonzero;fill:#c00;fill-opacity:1"/><path d="M22.824 19.844c2.012 0 4.13.707 6.356 2.117 2.277 1.36 3.418 2.55 3.418 3.582 0 .598-.164 1.195-.489 1.793-.324.598-.625.95-.894 1.059-1.305-.707-2.88-1.98-4.723-3.829-1.847-1.843-3.07-3.418-3.668-4.722M15.66 21.96c.11-.163.215-.35.324-.57.164-.214.274-.406.329-.57.105-.164.242-.324.406-.488.164-.164.324-.297.488-.406.27-.219.516-.352.734-.406.27-.055.594-.082.977-.082.379-.055.648-.11.812-.165.977.543 2.008 1.52 3.094 2.934-.054.27-.16.516-.324.73-.164.165-.434.434-.813.817-.328.379-.625.758-.898 1.14-.758 0-2.523.461-5.293 1.383-2.715.868-4.531 1.305-5.457 1.305-1.355 0-2.2-.164-2.523-.492.273-.27.84-.516 1.71-.73.922-.22 1.547-.38 1.872-.489 3.422-1.36 5.132-2.254 5.132-2.687 0-.434-.19-.844-.57-1.223" style="stroke:none;fill-rule:nonzero;fill:#000;fill-opacity:1"/><path d="M26.652 15.852c-.054 0-2.007.625-5.863 1.875-3.855 1.25-6.27 1.87-7.246 1.87-.434 0-1.086-.16-1.957-.488-.867-.379-1.3-.648-1.3-.812 0-.274.35-.516 1.058-.735.758-.269 1.328-.406 1.71-.406.106 0 .325.028.65.082h.816c1.355 0 2.824-.3 4.398-.894.16-.598.215-.926.16-.98-.27-.489-.894-1.165-1.871-2.036 0-1.355-.137-2.36-.406-3.012.215-.218.488-.57.812-1.058.328-.543.57-.871.735-.977.16-.164.324-.273.488-.328.164-.055.434-.082.812-.082.383 0 .68-.027.899-.078 1.465 1.574 2.2 2.793 2.2 3.664 0 .703-.247 1.41-.735 2.117-.489.703-.735 1.196-.735 1.465 0 .11.028.246.082.406.11.11.164.192.164.246a70.244 70.244 0 0 0 4.07-1.546c1.305-.543 2.255-.926 2.852-1.141.598-.274 1.059-.406 1.383-.406.328 0 1.848.515 4.563 1.547 1.14.433 1.925.812 2.359 1.14.488.324.734.785.734 1.383 0 .652-.191 1.223-.57 1.71-.379.49-.84.731-1.383.731-.328 0-1.656-.543-3.992-1.629-2.336-1.085-3.965-1.628-4.887-1.628" style="stroke:none;fill-rule:nonzero;fill:#000;fill-opacity:1"/></svg>