<svg xmlns="http://www.w3.org/2000/svg" width="px" height="66px" viewBox="0 0 45 66"><path d="M17.541 328.657h67.746a5.403 5.403 0 0 1 5.409 5.408v104.148a5.408 5.408 0 0 1-5.409 5.408H17.541a5.408 5.408 0 0 1-5.408-5.408V334.065a5.403 5.403 0 0 1 5.408-5.408Zm0 0" style="fill-rule:nonzero;fill:#fff;fill-opacity:1;stroke-width:1.009;stroke-linecap:butt;stroke-linejoin:miter;stroke:#000;stroke-opacity:1;stroke-miterlimit:4" transform="translate(-6.576 -185.58) scale(.56553)"/><path d="M26.984 38.129c-.597 0-2.117.32-4.558.973-2.39.652-4.602 1.14-6.61 1.464-.218.926-.316 2.41-.316 4.473 0 2.66.402 4.246 1.219 4.734.215-.214.453-.554.722-.988l.336-.637c.653-.27 1.09-.406 1.309-.406 0 .219-.035.621-.09 1.219v1.133c-1.3.433-2.332.652-3.09.652-.328-.598-.597-1.355-.816-2.277-.215-.926-.485-1.633-.813-2.121-.27-.543-.742-.864-1.394-.973-.219.219-.32.387-.32.496 0 .27.05.676.16 1.219.109.488.246 1.129.406 1.941.164.762.281 1.371.336 1.805h-.336c-.488 0-1.164-.07-2.031-.176-.868-.11-1.543-.16-2.032-.16 0 .11-.035.227-.09.336v.23c0 .598.438 1.07 1.31 1.395.866.328 1.812.477 2.843.477h.992c.055.109.121.363.227.742.109.383.23.734.336 1.062.164.324.3.68.406 1.059.164.328.332.597.496.812.219.219.402.32.566.32a.544.544 0 0 0 .567-.566c.054-.219.086-.387.086-.496.054-.16.07-.383.07-.652.055-.274.09-.422.09-.477 1.465.434 2.328.653 2.598.653.164 0 .417-.133.742-.407.324-.27.597-.441.812-.496.762.488 2.063 1.113 3.906 1.875 1.903.707 3.2 1.059 3.907 1.059.488 0 1.199-.168 2.12-.492.977-.383 1.602-.567 1.872-.567 1.086 0 1.98-.234 2.687-.726.707-.489 1.063-1.196 1.063-2.118 0-1.086-.66-2.05-1.965-2.863-1.246-.816-2.46-1.355-3.656-1.629a20.018 20.018 0 0 0-3.34-.476c-.11-.977-.16-1.907-.16-2.774 0-1.52.187-2.988.566-4.402l.567-2.117c0-.762-.559-1.133-1.7-1.133Zm-2.613 2.031c0 .219-.02.524-.07.903v.972a29.11 29.11 0 0 0-1.559.317c-.703.109-1.328.226-1.87.336 0-.215.034-.489.089-.813.105-.324.156-.629.156-.902.383-.055.887-.153 1.54-.317a17.76 17.76 0 0 1 1.714-.496Zm-4.969 1.219a10.471 10.471 0 0 0-.156 1.629l-1.469.246-.16-.09h-.176v-1.45Zm4.809 1.875c-.055.434-.09 1.059-.09 1.875-1.41.434-2.492.687-3.25.742v-1.805a23.153 23.153 0 0 0 3.34-.812Zm-5.125 1.148v1.875c-.762.106-1.285.157-1.555.157 0-.106-.035-.293-.09-.563v-1.238c.055-.055.258-.07.582-.07.383-.055.739-.106 1.063-.16Zm5.035 2.102c.055.492.09 1.2.09 2.121-.922.383-1.988.688-3.18.902v-2.191l1.625-.422c.707-.164 1.196-.3 1.465-.41Zm3.836 3.52c.922.054 1.953.288 3.094.722 1.14.383 1.715.785 1.715 1.219 0 .597-.223 1.039-.657 1.308-.433.22-1.023.352-1.785.407-.758.054-1.281.14-1.554.25-.215.105-.622.379-1.22.812-.597.38-1.12.567-1.554.567-.488 0-1.164-.172-2.031-.496-.871-.38-1.41-.72-1.63-1.043.274-.11.595-.313.974-.583a5.498 5.498 0 0 1 1.148-.566c.055.11.14.293.25.566.105.27.176.438.227.493.98 0 1.992-.352 3.023-1.059.164-.328.246-.629.246-.902 0-.27-.047-.59-.156-.973-.055-.379-.09-.613-.09-.723Zm-3.656.07c-.055.27-.04.71.07 1.308-.383.106-.785.243-1.219.407-.382.16-.703.296-.972.406a2.703 2.703 0 0 1-.657.086c-.27 0-.406-.438-.406-1.305 1.793-.543 2.856-.848 3.184-.902Zm-5.305 1.465c0 .543.137.984.406 1.308-.976.434-1.836.738-2.597.903-.16-.325-.364-.766-.582-1.31ZM29.258 36.578c-1.63 0-4.043.488-7.246 1.465-3.203.926-5.32 1.387-6.352 1.387-3.258 0-5.375-.598-6.351-1.793.976-.598 1.707-.895 2.199-.895.539 0 1.355.133 2.441.406 1.14.27 2.09.407 2.852.407 1.086 0 1.816-.11 2.195-.325.383-.218.57-.707.57-1.468 0-.16-.16-.27-.488-.325-.27-.109-.46-.242-.57-.406 0-.218.027-.379.082-.488l.406-.406c.219-.219.383-.438.492-.653.106-.164.297-.488.57-.976.325-.543.567-.899.731-1.059.219-.219.461-.328.734-.328.38 0 .57.274.57.817 0 .433-.054.894-.163 1.382-.055.434-.192.95-.407 1.547-.164.543-.273.977-.328 1.305.11.27.301.406.57.406.329 0 .79-.625 1.387-1.875.653-1.246.977-2.144.977-2.687 0-.325-.192-.621-.57-.895-.325-.324-.543-.57-.653-.73.434-.98 1.387-1.739 2.852-2.282 1.086.38 1.629 1.383 1.629 3.012 0 .543-.246 1.195-.735 1.957-.433.758-.68 1.465-.73 2.117a22.035 22.035 0 0 0 1.789-.328c.762-.164 1.52-.27 2.281-.324.762-.11 1.574-.164 2.442-.164 1.738 0 2.742.191 3.015.57-.383.762-.976 1.332-1.793 1.711-.707-.055-2.172-.082-4.398-.082" style="stroke:none;fill-rule:nonzero;fill:#c00;fill-opacity:1"/><path d="M17.938 21.27c0-.653-.133-1.602-.407-2.852-.215-1.305-.351-2.227-.406-2.77-.055-.652-.379-1.355-.977-2.117-.597-.812-.894-1.656-.894-2.523 0-1.36.215-2.309.648-2.852.977 0 2.063.489 3.258 1.465 1.195.926 1.793 1.875 1.793 2.852 0 .379-.191 1.03-.57 1.953-.38.926-.57 1.71-.57 2.363 0 1.031.269 2.008.812 2.93.707-.489 2.04-1.598 3.992-3.336 2.008-1.738 3.395-2.797 4.153-3.176 1.574-.816 3.636-1.223 6.19-1.223.65 0 .977.325.977.977 0 .598-.136 1.086-.406 1.465-.273.328-.543.543-.816.652-.27.055-.735.137-1.383.246-3.148.543-5.187 1.059-6.11 1.547-1.355.707-3.202 2.332-5.538 4.887.164.215.707.488 1.628.812.926.274 1.657.407 2.2.407.273 0 .625-.051 1.058-.16.489-.165.844-.247 1.059-.247.383 0 .816.137 1.305.407.543.218.812.57.812 1.058 0 .762-.324 1.496-.976 2.2-.653.652-1.329.976-2.036.976-.652 0-1.41-.078-2.28-.242-.868-.164-1.438-.274-1.712-.324-2.441-.22-3.96-.899-4.558-2.04-.22 0-1.196.301-2.93.899-1.738.543-4.047.95-6.926 1.219.598-1.032 2.117-1.98 4.563-2.848 2.441-.926 4.125-1.793 5.046-2.605" style="stroke:none;fill-rule:nonzero;fill:#000;fill-opacity:1"/></svg>