<svg xmlns="http://www.w3.org/2000/svg" width="px" height="66px" viewBox="0 0 45 66"><path d="M-142.645 380.332h67.746a5.403 5.403 0 0 1 5.409 5.408v104.147a5.408 5.408 0 0 1-5.409 5.409h-67.746a5.408 5.408 0 0 1-5.408-5.409V385.74a5.403 5.403 0 0 1 5.408-5.408Zm0 0" style="fill-rule:nonzero;fill:#fff;fill-opacity:1;stroke-width:1.009;stroke-linecap:butt;stroke-linejoin:miter;stroke:#000;stroke-opacity:1;stroke-miterlimit:4" transform="translate(84.014 -214.804) scale(.56553)"/><path d="M27.313 36.906c-.598 0-2.118.32-4.563.973-2.387.652-4.598 1.14-6.61 1.469-.214.922-.316 2.406-.316 4.468 0 2.66.406 4.25 1.219 4.739.219-.22.453-.555.727-.992l.335-.637c.649-.27 1.09-.406 1.305-.406 0 .218-.031.625-.086 1.222v1.13c-1.304.433-2.332.655-3.094.655-.324-.597-.597-1.359-.812-2.28-.219-.923-.488-1.634-.813-2.122-.273-.543-.746-.863-1.398-.973-.215.22-.316.387-.316.496 0 .27.05.676.16 1.22.105.487.242 1.128.406 1.944.16.758.281 1.368.336 1.801h-.336c-.488 0-1.164-.066-2.035-.175-.867-.11-1.543-.16-2.031-.16 0 .109-.036.226-.086.335v.23c0 .598.437 1.071 1.304 1.395.871.328 1.817.48 2.848.48h.988c.055.106.121.36.23.743.11.379.227.734.337 1.059.164.324.297.68.406 1.058.164.328.332.598.496.817.215.214.402.316.563.316.164 0 .3-.05.406-.16a.539.539 0 0 0 .16-.406c.055-.215.09-.387.09-.493.055-.164.07-.382.07-.656.055-.27.086-.422.086-.476 1.469.433 2.328.652 2.602.652.16 0 .414-.133.742-.406.324-.27.594-.438.812-.493.758.489 2.059 1.114 3.907 1.872 1.898.707 3.199 1.062 3.902 1.062.488 0 1.2-.172 2.121-.496.977-.379 1.602-.566 1.875-.566 1.086 0 1.98-.235 2.688-.723.703-.488 1.058-1.2 1.058-2.121 0-1.086-.66-2.051-1.96-2.864-1.25-.816-2.466-1.355-3.661-1.624a19.183 19.183 0 0 0-3.34-.477c-.11-.98-.16-1.906-.16-2.777 0-1.52.188-2.989.566-4.399l.567-2.12c0-.763-.555-1.134-1.695-1.134Zm-2.618 2.035c0 .215-.015.52-.07.899v.972a27.13 27.13 0 0 0-1.555.32c-.707.106-1.332.227-1.875.337 0-.219.035-.489.09-.817.11-.324.16-.629.16-.898.38-.055.883-.156 1.535-.32a17.622 17.622 0 0 1 1.715-.493Zm-4.965 1.22c-.109.648-.16 1.19-.16 1.624l-1.465.246-.16-.086h-.175v-1.449Zm4.805 1.87c-.05.434-.086 1.059-.086 1.875-1.414.434-2.492.688-3.254.742v-1.804c1.032-.16 2.149-.43 3.34-.813ZM19.41 43.18v1.875c-.758.11-1.281.16-1.555.16 0-.11-.03-.297-.085-.567V43.41c.054-.055.257-.07.582-.07.378-.055.734-.106 1.058-.16Zm5.04 2.105c.054.488.085 1.195.085 2.121-.922.38-1.984.684-3.18.899v-2.192l1.625-.422c.707-.164 1.196-.296 1.47-.406Zm3.835 3.516c.922.054 1.95.289 3.09.726 1.14.38 1.715.785 1.715 1.22 0 .597-.219 1.034-.653 1.308-.433.215-1.027.351-1.785.406-.761.05-1.285.137-1.554.246-.22.11-.625.379-1.223.813-.594.378-1.117.566-1.555.566-.488 0-1.164-.168-2.03-.496-.868-.38-1.411-.715-1.626-1.043.27-.11.59-.313.973-.582.433-.274.82-.457 1.148-.567.055.11.137.293.246.567.11.27.176.441.23.496.977 0 1.989-.356 3.024-1.063.16-.324.246-.628.246-.902 0-.27-.05-.59-.16-.969-.055-.382-.086-.617-.086-.726Zm-3.66.07c-.055.274-.04.711.07 1.309-.379.11-.785.242-1.218.406-.38.164-.7.297-.973.406-.215.055-.438.09-.652.09-.274 0-.407-.441-.407-1.309 1.79-.543 2.856-.847 3.18-.902Zm-5.3 1.469c0 .543.132.98.405 1.305-.976.437-1.84.742-2.597.902a17.13 17.13 0 0 1-.586-1.309ZM29.586 35.355c-1.629 0-4.047.489-7.25 1.47-3.203.921-5.32 1.382-6.352 1.382-3.257 0-5.375-.598-6.351-1.793.976-.598 1.71-.894 2.199-.894.543 0 1.355.136 2.441.406 1.141.273 2.09.406 2.852.406 1.086 0 1.82-.105 2.2-.324.378-.219.57-.707.57-1.465 0-.164-.165-.273-.489-.328-.273-.106-.46-.242-.57-.406 0-.215.027-.38.082-.489.105-.11.242-.242.406-.406.219-.219.38-.434.488-.652.11-.164.297-.489.57-.977.325-.543.571-.894.735-1.058.215-.22.461-.329.73-.329.383 0 .571.274.571.817 0 .433-.055.894-.164 1.383-.05.437-.188.953-.406 1.547-.16.542-.27.98-.325 1.304.11.274.297.406.57.406.325 0 .786-.625 1.384-1.87.652-1.25.976-2.145.976-2.688 0-.328-.187-.625-.57-.899-.324-.324-.543-.566-.649-.73.434-.977 1.383-1.738 2.848-2.281 1.086.379 1.629 1.386 1.629 3.011 0 .543-.242 1.196-.73 1.957-.438.758-.68 1.465-.735 2.118a22.38 22.38 0 0 0 1.793-.328c.758-.16 1.52-.27 2.277-.325.762-.11 1.575-.164 2.446-.164 1.738 0 2.742.192 3.011.57-.378.762-.976 1.333-1.789 1.712-.707-.055-2.172-.083-4.398-.083" style="stroke:none;fill-rule:nonzero;fill:#c00;fill-opacity:1"/><path d="M16.96 11.332c.763-1.3 1.767-1.953 3.017-1.953.921 0 2.144 1.004 3.664 3.012 1.574 2.007 2.77 3.285 3.582 3.828.922.652 2.336 1.383 4.234 2.199 1.957.812 3.637 1.52 5.05 2.117 1.411.598 2.145 1.059 2.2 1.383-.871.219-1.387.328-1.547.328-2.226 0-4.7-.355-7.414-1.058-2.71-.708-4.45-1.387-5.21-2.036a30.38 30.38 0 0 1-3.34-3.586c-1.087-1.41-1.817-2.304-2.196-2.687-.219-.215-.598-.461-1.14-.73-.489-.329-.79-.598-.9-.817M6.293 26.316c.434-.378 1.36-.867 2.77-1.464a16.391 16.391 0 0 0 3.828-2.446c1.14-1.031 1.953-2.414 2.441-4.152.328-.11.57-.16.734-.16.922 0 1.739.324 2.442.976.762.653 1.14 1.356 1.14 2.117 0 .27-.105.516-.324.731a1.566 1.566 0 0 1-.57.488c-.164.11-.461.246-.895.41-.437.16-.707.27-.816.325-1.574.816-3.473 1.574-5.7 2.28-2.226.653-3.773.977-4.64.977a.913.913 0 0 1-.41-.082" style="stroke:none;fill-rule:nonzero;fill:#000;fill-opacity:1"/></svg>