<svg xmlns="http://www.w3.org/2000/svg" width="px" height="66px" viewBox="0 0 45 66"><path d="M-143.014 296.95h67.746a5.403 5.403 0 0 1 5.408 5.409v104.147a5.408 5.408 0 0 1-5.408 5.409h-67.746a5.408 5.408 0 0 1-5.409-5.409V302.36a5.403 5.403 0 0 1 5.409-5.408Zm0 0" style="fill-rule:nonzero;fill:#fff;fill-opacity:1;stroke-width:1.009;stroke-linecap:butt;stroke-linejoin:miter;stroke:#000;stroke-opacity:1;stroke-miterlimit:4" transform="translate(84.223 -167.65) scale(.56553)"/><path d="M26.863 38.129c-.597 0-2.117.32-4.558.973-2.39.652-4.602 1.14-6.61 1.464-.218.926-.32 2.41-.32 4.473 0 2.66.406 4.246 1.219 4.734.218-.214.453-.554.726-.988l.336-.637c.653-.27 1.09-.406 1.309-.406 0 .219-.035.621-.09 1.219v1.133c-1.305.433-2.332.652-3.094.652-.324-.598-.594-1.355-.812-2.277-.215-.926-.489-1.633-.813-2.121-.27-.543-.746-.864-1.394-.973-.219.219-.32.387-.32.496 0 .27.05.676.16 1.219.109.488.242 1.129.406 1.941.164.762.281 1.371.336 1.805h-.336c-.488 0-1.164-.07-2.031-.176-.872-.11-1.543-.16-2.036-.16 0 .11-.03.227-.086.336v.23c0 .598.438 1.07 1.31 1.395.866.328 1.812.477 2.843.477h.988c.055.109.121.363.23.742.11.383.227.734.336 1.062.165.324.297.68.407 1.059.164.328.332.597.496.812.215.219.402.32.566.32a.55.55 0 0 0 .407-.16.557.557 0 0 0 .156-.406 2.4 2.4 0 0 0 .09-.496c.054-.16.07-.383.07-.652.055-.274.09-.422.09-.477 1.465.434 2.324.653 2.597.653.164 0 .414-.133.743-.407.324-.27.593-.441.812-.496.762.492 2.059 1.113 3.906 1.875 1.899.707 3.2 1.059 3.907 1.059.488 0 1.195-.168 2.12-.492.977-.383 1.602-.567 1.872-.567 1.086 0 1.98-.234 2.687-.726.703-.489 1.059-1.196 1.059-2.118 0-1.086-.656-2.05-1.961-2.863-1.25-.816-2.465-1.355-3.656-1.629a20.004 20.004 0 0 0-3.344-.476 25.935 25.935 0 0 1-.156-2.774c0-1.52.183-2.988.566-4.402l.563-2.117c0-.762-.555-1.133-1.696-1.133Zm-2.617 2.031c0 .219-.016.524-.07.903v.972c-.324.055-.848.156-1.555.317-.707.109-1.328.226-1.871.336 0-.215.031-.485.086-.813.11-.324.16-.629.16-.902.379-.055.887-.153 1.54-.317a17.406 17.406 0 0 1 1.71-.496Zm-4.965 1.219c-.11.652-.16 1.191-.16 1.629l-1.465.246-.16-.09h-.176v-1.45Zm4.809 1.875c-.055.434-.09 1.059-.09 1.875-1.41.434-2.492.687-3.25.742v-1.805a23.153 23.153 0 0 0 3.34-.812Zm-5.125 1.148v1.875c-.762.106-1.285.157-1.555.157 0-.106-.035-.293-.09-.563v-1.238c.055-.055.258-.07.582-.07.38-.055.735-.106 1.063-.16ZM24 46.504c.055.492.09 1.2.09 2.121-.926.383-1.988.688-3.184.902v-2.191l1.63-.422c.702-.164 1.194-.3 1.464-.41Zm3.836 3.52c.922.054 1.953.288 3.094.722 1.136.383 1.71.785 1.71 1.219 0 .597-.218 1.039-.652 1.308-.433.22-1.023.352-1.785.407-.762.054-1.285.14-1.555.25-.218.105-.62.379-1.218.812-.598.38-1.121.567-1.555.567-.488 0-1.164-.172-2.035-.496-.867-.38-1.406-.72-1.625-1.043.273-.11.594-.313.973-.583a5.498 5.498 0 0 1 1.148-.566c.055.11.14.293.246.566.11.27.176.438.23.493.977 0 1.993-.352 3.024-1.059.164-.328.246-.629.246-.902 0-.27-.05-.59-.16-.973-.05-.379-.086-.613-.086-.723Zm-3.66.07c-.055.27-.035.71.07 1.308-.379.106-.785.243-1.219.407-.379.16-.699.296-.972.406a2.647 2.647 0 0 1-.653.086c-.27 0-.406-.438-.406-1.305 1.793-.543 2.856-.848 3.18-.902Zm-5.301 1.465c0 .543.137.984.406 1.308-.976.434-1.836.738-2.597.903a15.882 15.882 0 0 1-.582-1.31ZM29.137 36.578c-1.63 0-4.043.488-7.246 1.465-3.203.926-5.32 1.387-6.356 1.387-3.254 0-5.37-.598-6.351-1.793.98-.598 1.71-.895 2.199-.895.543 0 1.36.133 2.445.406 1.14.27 2.09.407 2.848.407 1.086 0 1.82-.11 2.199-.325.383-.218.57-.707.57-1.468 0-.16-.164-.27-.488-.325-.27-.109-.46-.242-.57-.406 0-.218.027-.379.082-.488l.406-.406c.219-.219.383-.438.488-.653.11-.164.301-.488.57-.976.329-.543.57-.899.735-1.059.215-.219.46-.328.734-.328.38 0 .567.274.567.817 0 .433-.051.894-.16 1.382-.055.434-.192.95-.407 1.547-.164.543-.273.977-.328 1.305.11.27.301.406.57.406.325 0 .79-.625 1.383-1.875.653-1.246.98-2.144.98-2.683 0-.329-.19-.625-.57-.899-.328-.324-.542-.57-.652-.73.434-.98 1.383-1.739 2.852-2.282 1.086.38 1.629 1.383 1.629 3.012 0 .543-.246 1.195-.735 1.957-.433.758-.68 1.465-.734 2.117a22.381 22.381 0 0 0 1.793-.328c.762-.164 1.52-.27 2.281-.324.758-.11 1.574-.164 2.442-.164 1.738 0 2.742.191 3.011.57-.379.762-.976 1.332-1.789 1.711-.707-.055-2.172-.082-4.398-.082" style="stroke:none;fill-rule:nonzero;fill:#c00;fill-opacity:1"/><path d="M22.867 19.152c0 1.192.11 1.926.324 2.196.434.543 1.141 1.086 2.118 1.629.976.492 1.82.734 2.523.734.816 0 1.496-.191 2.04-.57.054-.325.081-.84.081-1.547 0-.543-.055-1.305-.164-2.282-.11-1.03-.164-1.816-.164-2.359.434 0 .95.813 1.547 2.442.652 1.574 1.031 2.39 1.14 2.445a7.305 7.305 0 0 1 2.2 1.058c.707.489 1.058 1.032 1.058 1.63 0 .867-.707 1.624-2.117 2.277-1.41.597-2.797.898-4.152.898-2.5 0-4.48-.57-5.946-1.71-1.574-1.25-2.363-2.606-2.363-4.075 0-2.277.137-4.016.41-5.211.325-1.25.489-1.926.489-2.035 0-.11-.055-.379-.164-.817-.38 0-.625.11-.735.329-.11.164-.215.73-.324 1.71-.164 1.735-1.82 3.665-4.969 5.782-3.094 2.117-5.265 3.176-6.515 3.176-.27 0-.516-.11-.73-.325.108-.164.675-.492 1.71-.98 1.031-.488 2.25-1.246 3.664-2.277a14.785 14.785 0 0 0 3.664-3.91c-.11-.22-.46-.516-1.058-.895-.543-.438-.817-.817-.817-1.14 0-.22.274-.462.817-.735.543-.324.894-.68 1.058-1.059 0-.379-.082-.867-.246-1.465-.11-.652-.16-1.113-.16-1.386 0-.703.187-1.192.57-1.465 1.844 0 3.094.652 3.746 1.953.051.004.16.027.325.082h.406c.379-.758.625-1.14.734-1.14.16 0 .324.027.488.081.215.055.407.082.57.082.598 0 1.466-.351 2.606-1.058 1.196-.707 1.98-1.059 2.36-1.059.707 0 1.062.653 1.062 1.953 0 .438-.52 1.063-1.55 1.875-.051.11-.243.137-.571.082-.324-.109-.543-.164-.648-.164-1.25 0-2.336.192-3.258.57-.707 2.66-1.059 4.887-1.059 6.68" style="stroke:none;fill-rule:nonzero;fill:#000;fill-opacity:1"/></svg>