<svg xmlns="http://www.w3.org/2000/svg" width="px" height="66px" viewBox="0 0 45 66"><path d="M-392.518 455.393h67.747a5.403 5.403 0 0 1 5.408 5.408v104.147a5.408 5.408 0 0 1-5.408 5.409h-67.747a5.408 5.408 0 0 1-5.408-5.409V460.801a5.403 5.403 0 0 1 5.408-5.408Zm0 0" style="fill-rule:nonzero;fill:#fff;fill-opacity:1;stroke-width:1.009;stroke-linecap:butt;stroke-linejoin:miter;stroke:#000;stroke-opacity:1;stroke-miterlimit:4" transform="translate(225.324 -257.253) scale(.56553)"/><path d="M22.5 16.172c-4.613 0-8.547 1.637-11.805 4.894-3.203 3.204-4.808 7.102-4.808 11.72 0 4.612 1.605 8.562 4.808 11.82 3.258 3.203 7.192 4.789 11.805 4.789 4.613 0 8.516-1.586 11.719-4.79 3.254-3.257 4.894-7.207 4.894-11.82 0-4.617-1.64-8.515-4.894-11.719-3.203-3.257-7.106-4.894-11.719-4.894Zm-2.21.492-.724 2.191 2.528-1.218v1.875l-.582.582c-1.305.11-2.485.379-3.57.812l-.657-1.625.813-2.12Zm4.401 0 2.211.496.813 2.121-.656 1.625c-1.086-.433-2.286-.703-3.586-.812l-.567-.582v-1.875l2.528 1.218Zm-10.02 1.875 1.716.652.742 1.715a2.17 2.17 0 0 1-.25.32c0 .055-.05.106-.156.157-.11.055-.23.125-.336.18-.055 0-.207.066-.48.226-.27.164-.575.367-.9.586l-.566-2.05-1.468 2.456-1.395-1.398.16-.723c.977-.867 1.957-1.578 2.934-2.12Zm15.642 0a25.591 25.591 0 0 1 2.843 1.961l.246.883-1.375 1.398-1.468-2.457-.567 2.051a13.741 13.741 0 0 0-1.87-1.063l-.25-.406.726-1.715ZM22.5 20.414c3.422 0 6.324 1.215 8.71 3.656 2.446 2.39 3.661 5.293 3.661 8.715 0 3.418-1.215 6.356-3.66 8.8-2.387 2.388-5.29 3.587-8.711 3.587-3.422 0-6.36-1.2-8.8-3.586-2.391-2.445-3.587-5.383-3.587-8.8 0-3.423 1.196-6.325 3.586-8.716 2.442-2.441 5.38-3.656 8.801-3.656ZM11.102 21.88l1.378 1.379-2.44 1.465 2.034.586c-.433.652-.789 1.273-1.062 1.87l-.407.231-1.714-.723-.653-1.714a26.036 26.036 0 0 1 1.961-2.848Zm22.796 0 .727.16c.867.977 1.578 1.957 2.121 2.934l-.656 1.715-1.695.722c-.165-.11-.282-.16-.336-.16a.891.891 0 0 1-.16-.246.956.956 0 0 0-.16-.246c0-.11-.083-.297-.247-.567a19.66 19.66 0 0 0-.566-.882l2.035-.586-2.441-1.465ZM8.98 27.586l1.625.637c-.433 1.086-.703 2.285-.812 3.59l-.566.562H7.355l1.22-2.508-2.212.727.496-2.192Zm27.04 0 2.101.816.496 2.192-2.191-.727 1.219 2.508h-1.872l-.566-.563c-.11-1.304-.379-2.503-.812-3.59ZM7.355 33.19h1.872l.566.582c.11 1.301.379 2.5.812 3.586l-1.625.637-2.12-.812-.497-2.192 2.211.727Zm28.418 0h1.872l-1.22 2.528 2.192-.727-.496 2.192-2.101.812-1.625-.637c.433-1.086.703-2.285.812-3.586Zm-25.168 4.98c.165.11.266.177.32.231.055 0 .122.07.177.176.054.11.07.211.07.32.055.055.172.223.336.497.164.27.347.554.566.882l-2.035.582 2.441 1.47-1.378 1.378-.743-.16c-.87-.977-1.578-1.957-2.12-2.934l.652-1.715Zm23.79 0 1.695.727.656 1.715c-.652 1.086-1.293 2.032-1.945 2.844l-.903.25-1.378-1.379 2.44-1.469-2.034-.582c.433-.652.773-1.277 1.043-1.875Zm-21.422 4.634 1.468 2.437.567-2.031c.648.434 1.273.789 1.87 1.059l.25.406-.741 1.715-1.715.656a26.034 26.034 0 0 1-2.848-1.965l-.246-.883Zm19.054 0 1.375 1.394-.156.727c-.976.867-1.957 1.578-2.934 2.12l-1.714-.655-.727-1.715c.11-.16.16-.262.16-.317a1.03 1.03 0 0 1 .246-.16.667.667 0 0 1 .25-.086c.11-.054.293-.156.567-.32.27-.164.574-.367.898-.582l.567 2.031Zm-14.086 1.87c1.086.438 2.266.708 3.57.813l.583.586v1.871l-2.528-1.234.723 2.207-2.191-.496-.813-2.117Zm9.118 0 .656 1.63-.813 2.117-2.21.496.742-2.207-2.528 1.234v-1.87l.567-.587c1.3-.105 2.5-.375 3.586-.812Zm0 0" style="stroke:none;fill-rule:nonzero;fill:#000;fill-opacity:1"/><path d="M22.5 14.137c-5.102 0-9.512 1.86-13.203 5.55-3.637 3.637-5.442 7.993-5.442 13.098 0 5.102 1.805 9.508 5.442 13.2 3.691 3.636 8.101 5.46 13.203 5.46 5.102 0 9.477-1.824 13.113-5.46 3.692-3.692 5.532-8.098 5.532-13.2 0-5.105-1.84-9.46-5.532-13.097-3.636-3.692-8.011-5.551-13.113-5.551Zm0 1.222c4.777 0 8.879 1.723 12.3 5.141 3.419 3.422 5.126 7.504 5.126 12.285 0 4.778-1.707 8.88-5.125 12.297-3.422 3.422-7.524 5.145-12.301 5.145s-8.879-1.723-12.3-5.145c-3.419-3.418-5.126-7.52-5.126-12.297 0-4.781 1.707-8.863 5.125-12.285 3.422-3.418 7.524-5.14 12.301-5.14Zm0 0" style="stroke:none;fill-rule:nonzero;fill:#000;fill-opacity:1"/><path d="M22.5 21.227c-3.203 0-5.957 1.148-8.234 3.425-2.227 2.227-3.34 4.93-3.34 8.133 0 3.203 1.113 5.953 3.34 8.235 2.277 2.226 5.03 3.34 8.234 3.34 3.203 0 5.922-1.114 8.148-3.34 2.278-2.282 3.41-5.032 3.41-8.235 0-2.426-.656-4.57-1.96-6.433l-.477 2.527-4.562 1.8a2.01 2.01 0 0 0-.336-.495l2.687-1.711-.23-.32-2.614 1.714c-.109-.11-.21-.277-.32-.496l3.41-3.496 2.442.477a11.978 11.978 0 0 0-1.45-1.7 12.444 12.444 0 0 0-1.714-1.465l.476 2.438-3.5 3.41a1.76 1.76 0 0 1-.476-.316l1.695-2.598-.317-.246-1.714 2.684a1.854 1.854 0 0 0-.477-.336l1.785-4.559 2.528-.477c-1.868-1.308-4.008-1.96-6.434-1.96Zm-2.281.246 2.12 1.379v4.894c-.323 0-.542.016-.651.07l-.583-3.003-.406.07.653 3.023c-.11 0-.329.051-.653.16l-1.875-4.562Zm4.562 0 1.38 2.03-1.876 4.563c-.324-.109-.547-.16-.652-.16l.652-3.023-.406-.07-.567 3.003c-.109-.054-.328-.07-.652-.07v-4.894Zm-8.715 1.715 2.528.476 1.785 4.559c-.219.109-.387.226-.496.336l-1.695-2.684-.336.246 1.714 2.598c-.109.11-.277.21-.496.316l-3.5-3.41Zm-.742 2.687 3.43 3.496c-.11.219-.227.387-.336.496l-2.598-1.715-.25.32 2.688 1.712c-.11.109-.207.28-.317.496l-4.562-1.801-.492-2.527Zm7.176 2.277c1.25 0 2.328.457 3.25 1.38.926.921 1.379 2.003 1.379 3.253 0 1.246-.453 2.344-1.379 3.27-.922.922-2 1.375-3.25 1.375s-2.348-.453-3.27-1.375c-.921-.926-1.378-2.024-1.378-3.27 0-1.25.457-2.332 1.378-3.254.922-.922 2.02-1.379 3.27-1.379Zm-9.297.973L17.766 31c-.11.324-.16.543-.16.652L14.601 31l-.09.406 3.023.563c-.055.11-.09.328-.09.656h-4.879l-1.394-2.121Zm18.574 0 2.035 1.379-1.378 2.121h-4.899c0-.328-.015-.547-.07-.656l3.004-.563-.07-.406-3.02.652c0-.109-.05-.328-.16-.652Zm-19.21 3.836h4.878c0 .324.035.543.09.652l-3.023.567.09.406 3.003-.652c0 .105.051.328.16.652l-4.562 1.875-2.031-1.398Zm14.968 0h4.899l1.379 2.102-2.036 1.398-4.558-1.875c.11-.324.16-.547.16-.652l3.02.652.07-.406-3.004-.567c.055-.11.07-.328.07-.652Zm-9.594 1.941c.11.22.207.387.317.496l-2.688 1.715.25.317 2.598-1.711c.11.105.227.277.336.492l-3.43 3.5-2.437-.496.492-2.508Zm9.118 0 4.562 1.805.477 2.508-2.442.496-3.41-3.5c.11-.215.211-.387.32-.492l2.614 1.71.23-.316-2.687-1.715c.109-.109.226-.277.336-.496Zm-7.989 1.63c.22.105.387.226.496.335l-1.714 2.598.335.246 1.696-2.688c.11.11.277.23.496.336l-1.785 4.563-2.528.476-.496-2.441Zm6.84 0 3.5 3.425-.476 2.441-2.528-.476-1.785-4.563c.215-.105.367-.226.477-.336l1.715 2.688.316-.246-1.695-2.598c.109-.11.261-.23.476-.336Zm-5.21.988c.323.109.542.16.652.16l-.653 3.004.406.086.582-3.004c.11.054.329.07.653.07v4.898l-2.121 1.38-1.395-2.036Zm3.585 0 1.875 4.558-1.379 2.035-2.12-1.379v-4.898c.323 0 .542-.016.651-.07l.567 3.004.406-.086-.652-3.004c.105 0 .328-.051.652-.16Zm0 0" style="stroke:none;fill-rule:nonzero;fill:#c00;fill-opacity:1"/><path d="M20.95 29.207c.433-.215.948-.324 1.546-.324.598 0 1.113.11 1.547.324l.082.652-1.305 1.875c-.054-.054-.16-.082-.324-.082s-.273.028-.328.082l-1.3-1.875.081-.652M19.238 33.523l-.652-.324v-.406c0-.98.355-1.82 1.059-2.527l.57.082 1.387 1.71c-.165.27-.247.516-.247.735l-2.117.73M26.406 33.2l-.652.323-2.117-.73c0-.219-.082-.465-.246-.734l1.386-1.711.57-.082c.704.707 1.06 1.547 1.06 2.527v.406M22.09 36.129l-.41.488c-1.032-.215-1.871-.84-2.524-1.87l.328-.571 2.118-.653c.16.164.324.274.488.329v2.277M22.902 36.129v-2.277c.164-.055.328-.164.489-.329l2.117.653.328.57c-.652 1.031-1.496 1.656-2.527 1.871l-.407-.488M22.496 33.2c-.273 0-.406-.138-.406-.407 0-.273.133-.41.406-.41.27 0 .406.137.406.41 0 .27-.136.406-.406.406" style="stroke:none;fill-rule:nonzero;fill:#c00;fill-opacity:1"/></svg>