<svg xmlns="http://www.w3.org/2000/svg" width="px" height="66px" viewBox="0 0 45 66"><path d="M-238.934 498.423h67.746a5.403 5.403 0 0 1 5.408 5.409v104.147a5.408 5.408 0 0 1-5.408 5.409h-67.746a5.408 5.408 0 0 1-5.409-5.409V503.832a5.403 5.403 0 0 1 5.409-5.409Zm0 0" style="fill-rule:nonzero;fill:#fff;fill-opacity:1;stroke-width:1.009;stroke-linecap:butt;stroke-linejoin:miter;stroke:#000;stroke-opacity:1;stroke-miterlimit:4" transform="translate(138.468 -281.588) scale(.56553)"/><path d="M22.508 37.996c-2.172 0-4.028.762-5.547 2.281-1.523 1.52-2.281 3.36-2.281 5.532 0 2.171.758 4.027 2.28 5.546 1.52 1.524 3.376 2.282 5.548 2.282s4.012-.758 5.531-2.282c1.52-1.52 2.281-3.375 2.281-5.546 0-2.172-.761-4.012-2.28-5.532-1.52-1.52-3.36-2.28-5.532-2.28Zm-1.871.727 1.535 1.058v3.094c-.11 0-.258.035-.477.086a3.149 3.149 0 0 0-.406.16l-1.309-2.277-.492.336 1.305 2.277c-.27.164-.488.367-.652.637l-2.774-1.54-.07-1.87c.867-.977 1.98-1.637 3.34-1.961Zm3.746 0c1.355.324 2.472.984 3.34 1.96l-.09 1.872-2.774 1.539a1.808 1.808 0 0 0-.636-.637l1.289-2.277-.477-.336-1.308 2.277a2.585 2.585 0 0 0-.493-.16c-.164-.05-.3-.086-.406-.086v-3.094Zm-7.246 4.328 2.687 1.539c-.054.11-.125.277-.18.492-.054.164-.07.3-.07.406h-2.613v.657h2.613c0 .109.016.257.07.476.055.164.126.297.18.406l-2.687 1.555-1.715-.812a7.904 7.904 0 0 1 0-3.906Zm10.746 0 1.71.812c.165.653.231 1.293.231 1.946 0 .652-.066 1.308-.23 1.96l-1.711.813-2.688-1.555c.055-.109.106-.242.16-.406.055-.219.086-.367.086-.476h2.598v-.657h-2.598c0-.105-.03-.242-.086-.406a2.685 2.685 0 0 0-.16-.492Zm-5.375.32c.707 0 1.281.234 1.715.723.488.433.726 1.008.726 1.715 0 .707-.238 1.312-.726 1.8-.434.438-1.008.637-1.715.637-.703 0-1.313-.2-1.801-.637-.434-.488-.637-1.093-.637-1.8 0-.707.203-1.282.637-1.715.488-.489 1.098-.723 1.8-.723Zm-2.367 4.152c.164.27.382.489.652.653l-1.305 2.281.492.316 1.31-2.277c.108.05.241.102.405.156.22.055.367.09.477.09v3.094l-1.535 1.059c-1.36-.325-2.473-.985-3.34-1.961l.07-1.875Zm4.718 0 2.774 1.536.09 1.875c-.868.976-1.985 1.636-3.34 1.96l-1.555-1.058v-3.094c.106 0 .242-.035.406-.09.215-.054.387-.105.493-.156l1.308 2.277.477-.316-1.29-2.281c.274-.164.473-.383.637-.653Zm0 0" style="stroke:none;fill-rule:nonzero;fill:#000;fill-opacity:1"/><path d="M22.508 35.559c-2.82 0-5.235.996-7.246 3.004-2.008 2.007-3.02 4.421-3.02 7.246 0 2.824 1.012 5.238 3.02 7.246 2.011 2.008 4.425 3.02 7.246 3.02 2.824 0 5.238-1.013 7.246-3.02 2.008-2.008 3.004-4.422 3.004-7.246 0-2.825-.996-5.239-3.004-7.246-2.008-2.008-4.422-3.004-7.246-3.004Zm0 1.464c2.445 0 4.504.864 6.187 2.598 1.735 1.684 2.598 3.742 2.598 6.188 0 2.441-.863 4.535-2.598 6.273-1.683 1.684-3.742 2.527-6.187 2.527-2.442 0-4.535-.843-6.274-2.527-1.683-1.738-2.527-3.832-2.527-6.273 0-2.446.844-4.504 2.527-6.188 1.739-1.734 3.832-2.598 6.274-2.598Zm0 0" style="stroke:none;fill-rule:nonzero;fill:#000;fill-opacity:1"/><path d="M22.504 46.953c-.758 0-1.14-.383-1.14-1.14 0-.762.382-1.141 1.14-1.141.762 0 1.14.379 1.14 1.14 0 .758-.378 1.141-1.14 1.141M22.508 11.945c-2.172 0-4.028.762-5.547 2.282-1.523 1.52-2.281 3.359-2.281 5.53 0 2.173.758 4.032 2.28 5.552 1.52 1.52 3.376 2.277 5.548 2.277s4.012-.758 5.531-2.277c1.52-1.52 2.281-3.38 2.281-5.551 0-2.172-.761-4.012-2.28-5.531-1.52-1.52-3.36-2.282-5.532-2.282Zm-1.871.727 1.535 1.058v3.094c-.11 0-.258.035-.477.09a3.922 3.922 0 0 0-.406.156l-1.309-2.277-.492.336 1.305 2.277c-.27.164-.488.367-.652.637l-2.774-1.535-.07-1.875c.867-.977 1.98-1.637 3.34-1.961Zm3.746 0c1.355.324 2.472.984 3.34 1.96l-.09 1.876-2.774 1.535a1.808 1.808 0 0 0-.636-.637l1.289-2.277-.477-.336-1.308 2.277a2.961 2.961 0 0 0-.493-.156c-.164-.055-.3-.09-.406-.09V13.73ZM17.137 17l2.687 1.54c-.054.108-.125.276-.18.495-.054.16-.07.297-.07.406h-2.613v.653h2.613c0 .11.016.261.07.476.055.164.126.301.18.407l-2.687 1.554-1.715-.812a7.904 7.904 0 0 1 0-3.906Zm10.746 0 1.71.813c.165.652.231 1.292.231 1.945 0 .652-.066 1.312-.23 1.96l-1.711.813-2.688-1.554c.055-.106.106-.243.16-.407.055-.215.086-.367.086-.476h2.598v-.653h-2.598c0-.109-.03-.246-.086-.406a2.642 2.642 0 0 0-.16-.496Zm-5.375.32c.707 0 1.281.235 1.715.723.488.437.726 1.008.726 1.715 0 .707-.238 1.316-.726 1.805-.434.433-1.008.636-1.715.636-.703 0-1.313-.203-1.801-.637-.434-.488-.637-1.097-.637-1.804 0-.707.203-1.278.637-1.715.488-.488 1.098-.723 1.8-.723Zm-2.367 4.153c.164.273.382.492.652.652l-1.305 2.281.492.317 1.31-2.278c.108.055.241.106.405.16.22.051.367.086.477.086v3.094l-1.535 1.059c-1.36-.324-2.473-.985-3.34-1.961l.07-1.871Zm4.718 0 2.774 1.539.09 1.87c-.868.977-1.985 1.638-3.34 1.962l-1.555-1.059v-3.094c.106 0 .242-.035.406-.086.215-.054.387-.105.493-.16l1.308 2.278.477-.317-1.29-2.281a1.79 1.79 0 0 0 .637-.652Zm0 0" style="stroke:none;fill-rule:nonzero;fill:#000;fill-opacity:1"/><path d="M22.508 9.508c-2.82 0-5.235.996-7.246 3.004-2.008 2.008-3.02 4.422-3.02 7.246 0 2.824 1.012 5.238 3.02 7.246 2.011 2.008 4.425 3.023 7.246 3.023 2.824 0 5.238-1.015 7.246-3.023s3.004-4.422 3.004-7.246c0-2.824-.996-5.238-3.004-7.246s-4.422-3.004-7.246-3.004Zm0 1.469c2.445 0 4.504.859 6.187 2.597 1.735 1.684 2.598 3.742 2.598 6.184 0 2.445-.863 4.539-2.598 6.273-1.683 1.684-3.742 2.528-6.187 2.528-2.442 0-4.535-.844-6.274-2.528-1.683-1.734-2.527-3.828-2.527-6.273 0-2.442.844-4.5 2.527-6.184 1.739-1.738 3.832-2.597 6.274-2.597Zm0 0" style="stroke:none;fill-rule:nonzero;fill:#000;fill-opacity:1"/><path d="M22.504 20.902c-.758 0-1.14-.379-1.14-1.14 0-.762.382-1.14 1.14-1.14.762 0 1.14.378 1.14 1.14 0 .761-.378 1.14-1.14 1.14" style="stroke:none;fill-rule:nonzero;fill:#000;fill-opacity:1"/></svg>