<svg xmlns="http://www.w3.org/2000/svg" width="px" height="66px" viewBox="0 0 45 66"><path d="M-191.527 465.515h67.746a5.403 5.403 0 0 1 5.409 5.409V575.07a5.408 5.408 0 0 1-5.409 5.408h-67.746a5.408 5.408 0 0 1-5.408-5.408V470.924a5.403 5.403 0 0 1 5.408-5.409Zm0 0" style="fill-rule:nonzero;fill:#fff;fill-opacity:1;stroke-width:1.009;stroke-linecap:butt;stroke-linejoin:miter;stroke:#000;stroke-opacity:1;stroke-miterlimit:4" transform="translate(111.658 -262.978) scale(.56553)"/><path d="M32.266 43.387c-2.118 0-3.942.761-5.461 2.281-1.524 1.52-2.282 3.344-2.282 5.46 0 2.118.758 3.923 2.282 5.442 1.52 1.52 3.343 2.282 5.46 2.282 2.118 0 3.938-.762 5.462-2.282 1.52-1.52 2.277-3.324 2.277-5.441s-.758-3.941-2.277-5.461c-1.524-1.52-3.344-2.281-5.461-2.281Zm0 1.218c1.789 0 3.308.66 4.558 1.961 1.301 1.25 1.946 2.77 1.946 4.563 0 1.789-.645 3.324-1.946 4.629-1.25 1.25-2.77 1.875-4.558 1.875-1.793 0-3.348-.625-4.649-1.875-1.25-1.305-1.875-2.84-1.875-4.63 0-1.792.625-3.312 1.875-4.562 1.301-1.3 2.856-1.96 4.649-1.96Zm0 0" style="stroke:none;fill-rule:nonzero;fill:#000;fill-opacity:1"/><path d="M32.266 45.418c-1.575 0-2.946.574-4.082 1.715-1.086 1.086-1.63 2.422-1.63 3.996 0 1.574.544 2.922 1.63 4.062 1.136 1.086 2.507 1.625 4.082 1.625 1.574 0 2.906-.539 3.992-1.625 1.14-1.14 1.695-2.488 1.695-4.062 0-1.574-.555-2.91-1.695-3.996-1.086-1.14-2.418-1.715-3.992-1.715Zm0 .812c.543 0 1.132.122 1.785.336l.336.887-.903 1.305h-.336a3.915 3.915 0 0 0-.882-.086c-.383 0-.688.035-.903.086h-.32l-.898-1.305.316-.887c.652-.214 1.262-.336 1.805-.336Zm-3.746 1.715h.968l.903 1.309c-.055.11-.137.262-.246.476-.11.22-.196.438-.25.657-.055.215-.07.484-.07.812l-.177.336-1.539.477-.742-.567v-.316c0-1.195.39-2.258 1.153-3.184Zm6.5 0h.992c.758.926 1.129 1.989 1.129 3.184v.316l-.723.567-1.555-.477-.16-.336c0-.328-.035-.597-.09-.812a3.355 3.355 0 0 0-.226-.657c-.11-.214-.196-.367-.25-.476Zm-2.754 1.54c.433 0 .804.167 1.129.495.328.325.496.715.496 1.149 0 .434-.168.805-.496 1.129-.325.328-.696.496-1.13.496-.437 0-.824-.168-1.148-.496a1.52 1.52 0 0 1-.48-1.13c0-.433.152-.823.48-1.148.324-.328.711-.496 1.149-.496Zm-2.371 2.863.335.16c.329.488.782.808 1.38.969l.25.25v1.625l-.743.496c-1.36-.328-2.355-1.035-3.008-2.121l.32-.903Zm4.718 0 1.469.476.336.903c-.652 1.086-1.664 1.793-3.023 2.12l-.723-.495v-1.625c.488-.22 1.129-.672 1.941-1.38Zm0 0" style="stroke:none;fill-rule:nonzero;fill:#000;fill-opacity:1"/><path d="M32.262 50.309c.543 0 .812.27.812.812 0 .543-.27.816-.812.816-.543 0-.817-.273-.817-.816 0-.543.274-.812.817-.812M22.508 25.059c-2.117 0-3.942.761-5.461 2.28-1.52 1.52-2.277 3.345-2.277 5.462 0 2.117.757 3.922 2.277 5.445 1.52 1.52 3.344 2.277 5.46 2.277 2.118 0 3.942-.757 5.462-2.277 1.52-1.523 2.281-3.328 2.281-5.445 0-2.117-.762-3.942-2.281-5.461-1.52-1.52-3.344-2.281-5.461-2.281Zm0 1.222c1.793 0 3.312.657 4.562 1.961 1.301 1.246 1.942 2.766 1.942 4.559 0 1.793-.64 3.328-1.942 4.629-1.25 1.25-2.77 1.875-4.562 1.875-1.79 0-3.344-.625-4.649-1.875-1.246-1.301-1.87-2.836-1.87-4.63 0-1.792.624-3.312 1.87-4.558 1.305-1.305 2.86-1.96 4.649-1.96Zm0 0" style="stroke:none;fill-rule:nonzero;fill:#000;fill-opacity:1"/><path d="M22.508 27.094c-1.574 0-2.942.574-4.082 1.715C17.34 29.895 16.8 31.227 16.8 32.8c0 1.574.539 2.926 1.625 4.066 1.14 1.086 2.508 1.625 4.082 1.625 1.574 0 2.91-.539 3.996-1.625 1.14-1.14 1.695-2.492 1.695-4.066 0-1.574-.554-2.906-1.695-3.992-1.086-1.141-2.422-1.715-3.996-1.715Zm0 .812c.543 0 1.133.117 1.785.336l.336.883-.902 1.309h-.336a3.62 3.62 0 0 0-.883-.09 3.79 3.79 0 0 0-.899.09h-.32l-.902-1.309.32-.883c.652-.219 1.258-.336 1.8-.336Zm-3.746 1.715h.972l.903 1.305c-.055.11-.14.262-.25.48a3.323 3.323 0 0 0-.246.653c-.055.218-.07.488-.07.812l-.176.336-1.54.477-.742-.567v-.316c0-1.196.39-2.258 1.149-3.18Zm6.504 0h.988c.762.922 1.133 1.984 1.133 3.18v.316l-.727.567-1.555-.477-.156-.336c0-.324-.035-.594-.09-.812a3.027 3.027 0 0 0-.23-.653c-.11-.218-.192-.37-.246-.48Zm-2.758 1.535c.433 0 .805.172 1.133.496.324.325.492.715.492 1.149 0 .433-.168.804-.492 1.133-.328.324-.7.492-1.133.492-.434 0-.82-.168-1.149-.492a1.545 1.545 0 0 1-.476-1.133c0-.434.152-.824.476-1.149.328-.324.715-.496 1.149-.496ZM20.14 34.02l.336.16c.324.488.78.808 1.378.972l.247.246v1.625l-.743.497c-1.355-.325-2.351-1.036-3.004-2.122l.32-.902Zm4.718 0 1.465.476.336.902c-.648 1.086-1.664 1.797-3.02 2.122l-.726-.497v-1.625c.488-.214 1.133-.671 1.945-1.378Zm0 0" style="stroke:none;fill-rule:nonzero;fill:#c00;fill-opacity:1"/><path d="M22.504 31.98c.543 0 .816.274.816.817 0 .539-.273.812-.816.812-.543 0-.813-.273-.813-.812 0-.543.27-.817.813-.817" style="stroke:none;fill-rule:nonzero;fill:#c00;fill-opacity:1"/><path d="M12.734 6.734c-2.117 0-3.937.758-5.46 2.278-1.52 1.523-2.278 3.343-2.278 5.46 0 2.118.758 3.926 2.277 5.446 1.524 1.52 3.344 2.281 5.461 2.281 2.118 0 3.942-.762 5.461-2.281 1.52-1.52 2.282-3.328 2.282-5.445 0-2.118-.762-3.938-2.282-5.461-1.52-1.52-3.343-2.278-5.46-2.278Zm0 1.22c1.793 0 3.313.66 4.563 1.96 1.3 1.25 1.941 2.77 1.941 4.559 0 1.793-.64 3.328-1.941 4.632-1.25 1.247-2.77 1.872-4.563 1.872-1.789 0-3.343-.625-4.648-1.872-1.246-1.304-1.871-2.84-1.871-4.632 0-1.79.625-3.309 1.87-4.559 1.306-1.3 2.86-1.96 4.65-1.96Zm0 0" style="stroke:none;fill-rule:nonzero;fill:#000;fill-opacity:1"/><path d="M12.734 8.766c-1.574 0-2.941.574-4.082 1.714-1.086 1.086-1.625 2.418-1.625 3.993 0 1.574.54 2.925 1.625 4.066 1.141 1.086 2.508 1.625 4.082 1.625 1.575 0 2.91-.539 3.996-1.625 1.141-1.14 1.696-2.492 1.696-4.066 0-1.575-.555-2.907-1.696-3.993-1.085-1.14-2.421-1.714-3.996-1.714Zm0 .812c.543 0 1.137.121 1.786.336l.335.883-.898 1.308h-.336a3.712 3.712 0 0 0-.887-.085c-.379 0-.683.03-.898.085h-.32l-.903-1.308.32-.883c.653-.215 1.258-.336 1.801-.336Zm-3.746 1.715h.973l.902 1.309c-.054.109-.14.257-.25.476a3.519 3.519 0 0 0-.246.652c-.055.22-.07.489-.07.817l-.176.332-1.539.48-.742-.566v-.32c0-1.192.39-2.258 1.148-3.18Zm6.504 0h.988c.762.922 1.133 1.988 1.133 3.18v.32l-.722.566-1.559-.48-.156-.332c0-.328-.035-.598-.09-.817a3.182 3.182 0 0 0-.23-.652c-.11-.219-.192-.367-.247-.476Zm-2.758 1.539c.438 0 .809.168 1.133.492.324.328.496.715.496 1.149 0 .437-.172.808-.496 1.132-.324.325-.695.497-1.133.497-.433 0-.82-.172-1.148-.497a1.533 1.533 0 0 1-.477-1.132c0-.434.153-.82.477-1.149.328-.324.715-.492 1.148-.492Zm-2.367 2.863.336.157c.324.488.781.808 1.379.972l.246.246v1.63l-.742.491c-1.356-.324-2.352-1.035-3.004-2.12l.32-.9Zm4.719 0 1.469.477.336.898c-.653 1.086-1.668 1.797-3.024 2.121l-.726-.492V17.07c.488-.215 1.132-.672 1.945-1.375Zm0 0" style="stroke:none;fill-rule:nonzero;fill:#000;fill-opacity:1"/><path d="M12.73 13.652c.543 0 .817.274.817.817 0 .543-.274.812-.817.812-.543 0-.812-.27-.812-.812 0-.543.27-.817.812-.817" style="stroke:none;fill-rule:nonzero;fill:#000;fill-opacity:1"/></svg>