<svg xmlns="http://www.w3.org/2000/svg" width="px" height="66px" viewBox="0 0 45 66"><path d="M-29.855 237.544H37.89a5.403 5.403 0 0 1 5.408 5.409V347.1a5.408 5.408 0 0 1-5.408 5.408h-67.746a5.408 5.408 0 0 1-5.409-5.408V242.953a5.403 5.403 0 0 1 5.409-5.409Zm0 0" style="fill-rule:nonzero;fill:#fff;fill-opacity:1;stroke-width:1.009;stroke-linecap:butt;stroke-linejoin:miter;stroke:#000;stroke-opacity:1;stroke-miterlimit:4" transform="translate(20.228 -134.053) scale(.56553)"/><path d="M32.281 43.371c-2.117 0-3.941.777-5.46 2.297-1.52 1.52-2.278 3.324-2.278 5.441 0 2.118.758 3.942 2.277 5.461 1.52 1.52 3.344 2.282 5.461 2.282 2.117 0 3.922-.762 5.446-2.282 1.52-1.52 2.277-3.343 2.277-5.46 0-2.118-.758-3.922-2.277-5.442-1.524-1.52-3.329-2.297-5.446-2.297Zm0 1.234c1.793 0 3.313.641 4.559 1.946 1.305 1.25 1.945 2.77 1.945 4.558 0 1.793-.64 3.344-1.945 4.649-1.246 1.25-2.766 1.875-4.559 1.875-1.789 0-3.343-.625-4.648-1.875-1.246-1.305-1.871-2.856-1.871-4.649 0-1.789.625-3.308 1.87-4.558 1.305-1.305 2.86-1.946 4.65-1.946ZM12.734 43.371c-2.117 0-3.937.777-5.46 2.297-1.52 1.52-2.278 3.324-2.278 5.441 0 2.118.758 3.942 2.277 5.461 1.524 1.52 3.344 2.282 5.461 2.282 2.118 0 3.942-.762 5.461-2.282 1.524-1.52 2.282-3.343 2.282-5.46 0-2.118-.758-3.922-2.282-5.442-1.52-1.52-3.343-2.297-5.46-2.297Zm0 1.234c1.793 0 3.313.641 4.563 1.946 1.3 1.25 1.941 2.77 1.941 4.558 0 1.793-.64 3.344-1.941 4.649-1.25 1.25-2.77 1.875-4.563 1.875-1.789 0-3.343-.625-4.648-1.875-1.246-1.305-1.871-2.856-1.871-4.649 0-1.789.625-3.308 1.87-4.558 1.306-1.305 2.86-1.946 4.65-1.946ZM22.508 25.059c-2.117 0-3.942.761-5.461 2.28-1.52 1.52-2.277 3.325-2.277 5.446 0 2.117.757 3.938 2.277 5.461 1.52 1.52 3.344 2.277 5.46 2.277 2.118 0 3.927-.757 5.446-2.277 1.52-1.523 2.297-3.344 2.297-5.46 0-2.122-.777-3.927-2.297-5.446-1.52-1.52-3.328-2.281-5.445-2.281Zm0 1.222c1.793 0 3.312.64 4.562 1.942 1.301 1.25 1.942 2.77 1.942 4.562 0 1.79-.64 3.344-1.942 4.645-1.25 1.25-2.77 1.875-4.562 1.875-1.79 0-3.344-.625-4.649-1.875-1.246-1.301-1.87-2.856-1.87-4.645 0-1.793.624-3.312 1.87-4.562 1.305-1.301 2.86-1.942 4.649-1.942ZM12.734 6.734c-2.117 0-3.937.758-5.46 2.278-1.52 1.523-2.278 3.343-2.278 5.46 0 2.118.758 3.926 2.277 5.446 1.524 1.52 3.344 2.281 5.461 2.281 2.118 0 3.942-.762 5.461-2.281 1.524-1.52 2.282-3.328 2.282-5.445 0-2.118-.758-3.938-2.282-5.461-1.52-1.52-3.343-2.278-5.46-2.278Zm0 1.22c1.793 0 3.313.66 4.563 1.96 1.3 1.25 1.941 2.77 1.941 4.559 0 1.793-.64 3.328-1.941 4.632-1.25 1.247-2.77 1.872-4.563 1.872-1.789 0-3.343-.625-4.648-1.872-1.246-1.304-1.871-2.84-1.871-4.632 0-1.79.625-3.309 1.87-4.559 1.306-1.3 2.86-1.96 4.65-1.96ZM32.281 6.734c-2.117 0-3.941.758-5.46 2.278-1.52 1.523-2.278 3.343-2.278 5.46 0 2.118.758 3.926 2.277 5.446 1.52 1.52 3.344 2.281 5.461 2.281 2.117 0 3.922-.762 5.446-2.281 1.52-1.52 2.277-3.328 2.277-5.445 0-2.118-.758-3.938-2.277-5.461-1.524-1.52-3.329-2.278-5.446-2.278Zm0 1.22c1.793 0 3.313.66 4.559 1.96 1.305 1.25 1.945 2.77 1.945 4.559 0 1.793-.64 3.328-1.945 4.632-1.246 1.247-2.766 1.872-4.559 1.872-1.789 0-3.343-.625-4.648-1.872-1.246-1.304-1.871-2.84-1.871-4.632 0-1.79.625-3.309 1.87-4.559 1.305-1.3 2.86-1.96 4.65-1.96Zm0 0" style="stroke:none;fill-rule:nonzero;fill:#000;fill-opacity:1"/><path d="M12.734 45.418c-1.574 0-2.941.559-4.082 1.7-1.086 1.085-1.625 2.417-1.625 3.991 0 1.575.54 2.942 1.625 4.082 1.141 1.086 2.508 1.625 4.082 1.625 1.575 0 2.91-.539 3.996-1.625 1.141-1.14 1.696-2.507 1.696-4.082 0-1.574-.555-2.906-1.696-3.992-1.085-1.14-2.421-1.699-3.996-1.699Zm0 .812c.543 0 1.137.102 1.786.32l.335.903-.898 1.305h-.336a3.928 3.928 0 0 0-.887-.086c-.379 0-.683.035-.898.086h-.32l-.903-1.305.32-.902c.653-.219 1.258-.32 1.801-.32Zm-3.746 1.715h.973l.902 1.293c-.054.106-.14.278-.25.492a3.451 3.451 0 0 0-.246.657c-.055.215-.07.484-.07.812l-.176.317-1.539.496-.742-.567v-.336c0-1.195.39-2.238 1.148-3.164Zm6.504 0h.988a4.811 4.811 0 0 1 1.133 3.164v.336l-.722.567-1.559-.496-.156-.317a3.315 3.315 0 0 0-.32-1.469c-.11-.214-.192-.386-.247-.492Zm-2.758 1.54c.438 0 .809.167 1.133.495.324.325.496.696.496 1.13 0 .433-.172.824-.496 1.148a1.518 1.518 0 0 1-1.133.476c-.433 0-.82-.148-1.148-.476a1.573 1.573 0 0 1-.477-1.149c0-.433.153-.804.477-1.129.328-.328.715-.496 1.148-.496Zm-2.367 2.843.336.18c.324.488.781.808 1.379.969l.246.25v1.625l-.742.496c-1.356-.328-2.352-1.035-3.004-2.121l.32-.903Zm4.719 0 1.469.496.336.903c-.653 1.086-1.668 1.793-3.024 2.12l-.726-.495v-1.625c.488-.22 1.132-.692 1.945-1.399Zm0 0" style="stroke:none;fill-rule:nonzero;fill:#000;fill-opacity:1"/><path d="M12.73 50.3c.543 0 .817.27.817.813 0 .543-.274.817-.817.817-.543 0-.812-.274-.812-.817 0-.543.27-.812.812-.812M32.281 8.766c-1.574 0-2.941.574-4.082 1.714-1.086 1.086-1.625 2.418-1.625 3.993 0 1.574.54 2.925 1.625 4.066 1.14 1.086 2.508 1.625 4.082 1.625 1.574 0 2.91-.539 3.996-1.625 1.141-1.14 1.696-2.492 1.696-4.066 0-1.575-.555-2.907-1.696-3.993-1.086-1.14-2.422-1.714-3.996-1.714Zm0 .812c.543 0 1.133.121 1.785.336l.336.883-.902 1.308h-.336a3.676 3.676 0 0 0-.883-.085c-.379 0-.683.03-.902.085h-.317l-.902-1.308.32-.883c.649-.215 1.258-.336 1.801-.336Zm-3.746 1.715h.973l.902 1.309c-.055.109-.14.257-.25.476-.11.219-.191.438-.246.652-.055.22-.09.489-.09.817l-.156.332-1.54.48-.741-.566v-.32c0-1.192.386-2.258 1.148-3.18Zm6.504 0h.988c.762.922 1.133 1.988 1.133 3.18v.32l-.726.566-1.555-.48-.156-.332c0-.328-.035-.598-.09-.817a3.182 3.182 0 0 0-.23-.652c-.11-.219-.192-.367-.247-.476Zm-2.758 1.539c.434 0 .805.168 1.133.492.324.328.492.715.492 1.149 0 .437-.168.808-.492 1.132-.328.325-.7.497-1.133.497-.433 0-.824-.172-1.148-.497a1.533 1.533 0 0 1-.477-1.132c0-.434.153-.82.477-1.149a1.59 1.59 0 0 1 1.148-.492Zm-2.367 2.863.336.157c.324.488.781.808 1.379.972l.246.246v1.63l-.742.491c-1.356-.324-2.352-1.035-3.004-2.12l.316-.9Zm4.719 0 1.465.477.336.898c-.649 1.086-1.664 1.797-3.02 2.121l-.727-.492V17.07c.489-.215 1.13-.672 1.946-1.375Zm0 0" style="stroke:none;fill-rule:nonzero;fill:#000;fill-opacity:1"/><path d="M32.277 13.652c.543 0 .813.274.813.817 0 .543-.27.812-.813.812-.543 0-.816-.27-.816-.812 0-.543.273-.817.816-.817M32.281 45.418c-1.574 0-2.941.559-4.082 1.7-1.086 1.085-1.625 2.417-1.625 3.991 0 1.575.54 2.942 1.625 4.082 1.14 1.086 2.508 1.625 4.082 1.625 1.574 0 2.91-.539 3.996-1.625 1.141-1.14 1.696-2.507 1.696-4.082 0-1.574-.555-2.906-1.696-3.992-1.086-1.14-2.422-1.699-3.996-1.699Zm0 .812c.543 0 1.133.102 1.785.32l.336.903-.902 1.305h-.336a3.89 3.89 0 0 0-.883-.086 4.11 4.11 0 0 0-.902.086h-.317l-.902-1.305.32-.902a5.681 5.681 0 0 1 1.801-.32Zm-3.746 1.715h.973l.902 1.293c-.055.106-.14.278-.25.492-.11.22-.191.438-.246.657-.055.215-.09.484-.09.812l-.156.317-1.54.496-.741-.567v-.336c0-1.195.386-2.238 1.148-3.164Zm6.504 0h.988a4.811 4.811 0 0 1 1.133 3.164v.336l-.726.567-1.555-.496-.156-.317a3.315 3.315 0 0 0-.32-1.469c-.11-.214-.192-.386-.247-.492Zm-2.758 1.54c.434 0 .805.167 1.133.495.324.325.492.696.492 1.13 0 .433-.168.824-.492 1.148a1.53 1.53 0 0 1-1.133.476c-.433 0-.824-.148-1.148-.476a1.573 1.573 0 0 1-.477-1.149c0-.433.153-.804.477-1.129a1.578 1.578 0 0 1 1.148-.496Zm-2.367 2.843.336.18c.324.488.781.808 1.379.969l.246.25v1.625l-.742.496c-1.356-.328-2.352-1.035-3.004-2.121l.316-.903Zm4.719 0 1.465.496.336.903c-.649 1.086-1.664 1.793-3.02 2.12l-.727-.495v-1.625c.489-.22 1.13-.692 1.946-1.399Zm0 0" style="stroke:none;fill-rule:nonzero;fill:#000;fill-opacity:1"/><path d="M32.277 50.3c.543 0 .813.27.813.813 0 .543-.27.817-.813.817-.543 0-.816-.274-.816-.817 0-.543.273-.812.816-.812M12.734 8.766c-1.574 0-2.941.574-4.082 1.714-1.086 1.086-1.625 2.418-1.625 3.993 0 1.574.54 2.925 1.625 4.066 1.141 1.086 2.508 1.625 4.082 1.625 1.575 0 2.91-.539 3.996-1.625 1.141-1.14 1.696-2.492 1.696-4.066 0-1.575-.555-2.907-1.696-3.993-1.085-1.14-2.421-1.714-3.996-1.714Zm0 .812c.543 0 1.137.121 1.786.336l.335.883-.898 1.308h-.336a3.712 3.712 0 0 0-.887-.085c-.379 0-.683.03-.898.085h-.32l-.903-1.308.32-.883c.653-.215 1.258-.336 1.801-.336Zm-3.746 1.715h.973l.902 1.309c-.054.109-.14.257-.25.476a3.519 3.519 0 0 0-.246.652c-.055.22-.07.489-.07.817l-.176.332-1.539.48-.742-.566v-.32c0-1.192.39-2.258 1.148-3.18Zm6.504 0h.988c.762.922 1.133 1.988 1.133 3.18v.32l-.722.566-1.559-.48-.156-.332c0-.328-.035-.598-.09-.817a3.182 3.182 0 0 0-.23-.652c-.11-.219-.192-.367-.247-.476Zm-2.758 1.539c.438 0 .809.168 1.133.492.324.328.496.715.496 1.149 0 .437-.172.808-.496 1.132-.324.325-.695.497-1.133.497-.433 0-.82-.172-1.148-.497a1.533 1.533 0 0 1-.477-1.132c0-.434.153-.82.477-1.149.328-.324.715-.492 1.148-.492Zm-2.367 2.863.336.157c.324.488.781.808 1.379.972l.246.246v1.63l-.742.491c-1.356-.324-2.352-1.035-3.004-2.12l.32-.9Zm4.719 0 1.469.477.336.898c-.653 1.086-1.668 1.797-3.024 2.121l-.726-.492V17.07c.488-.215 1.132-.672 1.945-1.375Zm0 0" style="stroke:none;fill-rule:nonzero;fill:#000;fill-opacity:1"/><path d="M12.73 13.652c.543 0 .817.274.817.817 0 .543-.274.812-.817.812-.543 0-.812-.27-.812-.812 0-.543.27-.817.812-.817" style="stroke:none;fill-rule:nonzero;fill:#000;fill-opacity:1"/><path d="M22.508 27.094c-1.574 0-2.942.574-4.082 1.715-1.086 1.086-1.625 2.398-1.625 3.976 0 1.574.539 2.942 1.625 4.082 1.14 1.086 2.508 1.625 4.082 1.625 1.574 0 2.91-.539 3.996-1.625 1.14-1.14 1.695-2.508 1.695-4.082 0-1.578-.554-2.89-1.695-3.976-1.086-1.141-2.422-1.715-3.996-1.715Zm0 .812c.543 0 1.133.102 1.785.317l.336.902-.902 1.309h-.336a3.62 3.62 0 0 0-.883-.09 3.79 3.79 0 0 0-.899.09h-.32l-.902-1.309.32-.902c.652-.215 1.258-.317 1.8-.317Zm-3.746 1.715h.972l.903 1.29-.25.495a3.323 3.323 0 0 0-.246.653c-.055.218-.07.488-.07.812l-.176.32-1.54.493-.742-.567v-.332c0-1.195.39-2.242 1.149-3.164Zm6.504 0h.988c.762.922 1.133 1.969 1.133 3.164v.332l-.727.567-1.555-.493-.156-.32c0-.324-.035-.594-.09-.812a3.027 3.027 0 0 0-.23-.653c-.11-.218-.192-.386-.246-.496Zm-2.758 1.535c.433 0 .805.172 1.133.496.324.325.492.696.492 1.133 0 .434-.168.82-.492 1.149-.328.324-.7.492-1.133.492-.434 0-.82-.168-1.149-.492a1.58 1.58 0 0 1-.476-1.149c0-.437.152-.808.476-1.133.328-.324.715-.496 1.149-.496ZM20.14 34.02l.336.16c.324.488.78.808 1.378.972l.247.246v1.625l-.743.497c-1.355-.325-2.351-1.036-3.004-2.122l.32-.902Zm4.718 0 1.465.476.336.902c-.648 1.086-1.664 1.797-3.02 2.122l-.726-.497v-1.625c.488-.214 1.133-.671 1.945-1.378Zm0 0" style="stroke:none;fill-rule:nonzero;fill:#c00;fill-opacity:1"/><path d="M22.504 31.977c.543 0 .816.273.816.816 0 .543-.273.812-.816.812-.543 0-.813-.27-.813-.812 0-.543.27-.816.813-.816" style="stroke:none;fill-rule:nonzero;fill:#c00;fill-opacity:1"/></svg>