<svg xmlns="http://www.w3.org/2000/svg" width="px" height="66px" viewBox="0 0 45 66"><path d="M-274.536 259.596h67.746a5.403 5.403 0 0 1 5.409 5.409v104.147a5.408 5.408 0 0 1-5.409 5.409h-67.746a5.408 5.408 0 0 1-5.408-5.409V265.005a5.403 5.403 0 0 1 5.408-5.409Zm0 0" style="fill-rule:nonzero;fill:#fff;fill-opacity:1;stroke-width:1.009;stroke-linecap:butt;stroke-linejoin:miter;stroke:#000;stroke-opacity:1;stroke-miterlimit:4" transform="translate(158.602 -146.524) scale(.56553)"/><path d="M11.457 5.871c-3.824 0-6.945 3.102-6.945 6.926 0 3.828 3.12 6.945 6.945 6.945 1.66 0 3.172-.594 4.367-1.574-.195.637-.3 1.3-.3 2 0 3.824 3.117 6.945 6.945 6.945 1.633 0 3.129-.57 4.312-1.52-.164.59-.25 1.212-.25 1.856 0 3.824 3.121 6.946 6.95 6.946 3.824 0 6.925-3.122 6.925-6.946a6.928 6.928 0 0 0-6.926-6.93c-1.644 0-3.16.567-4.347 1.52a7.027 7.027 0 0 0 .262-1.871 6.928 6.928 0 0 0-6.926-6.93 6.94 6.94 0 0 0-4.383 1.575 6.928 6.928 0 0 0-6.629-8.941Zm0 1.34a5.565 5.565 0 0 1 5.586 5.586 5.578 5.578 0 0 1-5.586 5.601 5.594 5.594 0 0 1-5.602-5.601 5.58 5.58 0 0 1 5.602-5.586Zm-.016 1.113c-1.195 0-2.257.457-3.183 1.38-.867.87-1.29 1.898-1.29 3.093s.423 2.258 1.29 3.18c.926.87 1.988 1.308 3.183 1.308 1.196 0 2.223-.437 3.094-1.308.922-.922 1.395-1.985 1.395-3.18s-.473-2.223-1.395-3.094c-.87-.922-1.898-1.379-3.094-1.379Zm0 .817c.543 0 1.032.097 1.465.316l.25.652-.496.657-.566.086c-.11-.055-.328-.086-.653-.086-.328 0-.546.03-.656.086l-.562-.086-.496-.657.246-.652c.433-.219.925-.316 1.468-.316Zm-2.777 1.218h.746l.492.653a2.564 2.564 0 0 1-.336.902c-.109.27-.156.559-.156.883-.164.433-.52.703-1.062.812l-.567-.476v-.336c0-.922.29-1.735.883-2.438Zm4.809 0h.742c.598.704.883 1.516.883 2.438v.336l-.563.476-.726-.23-.336-.582c0-.324-.086-.613-.246-.883a4.354 4.354 0 0 1-.23-.902Zm-2.032 1.22c.325 0 .594.132.813.405.27.22.406.489.406.813 0 .324-.137.629-.406.902a1.107 1.107 0 0 1-.813.317c-.328 0-.629-.102-.902-.317a1.407 1.407 0 0 1-.316-.902c0-.324.097-.594.316-.813.274-.273.574-.406.902-.406Zm0 .812c-.273 0-.406.136-.406.406 0 .273.133.406.406.406.27 0 .407-.133.407-.406 0-.27-.137-.406-.407-.406ZM9.25 13.699l.477.246c.324.38.714.653 1.148.813l.406.406v.813l-.652.406c-.926-.215-1.719-.79-2.371-1.711l.25-.727Zm4.398 0 .727.246.246.727c-.652.922-1.445 1.496-2.367 1.71l-.652-.405v-.813c.703-.703 1.398-1.195 2.046-1.465Zm8.82.883a5.565 5.565 0 0 1 5.587 5.586 5.58 5.58 0 0 1-5.586 5.602 5.594 5.594 0 0 1-5.602-5.602c0-3.102 2.5-5.586 5.602-5.586Zm-.019 1.113c-1.191 0-2.258.457-3.18 1.38-.867.866-1.289 1.898-1.289 3.093 0 1.191.422 2.258 1.29 3.18.921.867 1.988 1.308 3.18 1.308 1.195 0 2.226-.441 3.093-1.308.922-.922 1.398-1.989 1.398-3.18 0-1.195-.476-2.227-1.398-3.094-.867-.922-1.898-1.379-3.094-1.379Zm0 .813c.543 0 1.035.101 1.469.32l.246.652-.492.653-.567.09c-.109-.055-.328-.09-.656-.09-.324 0-.543.035-.652.09l-.567-.09-.492-.653.246-.652c.434-.219.922-.32 1.465-.32Zm-2.773 1.219h.742l.496.656a2.545 2.545 0 0 1-.336.898c-.11.274-.16.559-.16.887-.164.434-.516.703-1.059.812l-.566-.476v-.336c0-.926.285-1.734.883-2.441Zm4.808 0h.743c.597.707.882 1.515.882 2.441v.336l-.566.476-.723-.23-.336-.582a1.67 1.67 0 0 0-.25-.887 4.318 4.318 0 0 1-.226-.898Zm-2.035 1.218c.328 0 .598.137.817.41.27.215.406.485.406.813 0 .324-.137.629-.406.898-.22.22-.489.32-.817.32-.324 0-.629-.1-.898-.32a1.393 1.393 0 0 1-.32-.898c0-.328.101-.598.32-.813.27-.273.574-.41.898-.41Zm0 .817c-.27 0-.406.133-.406.406 0 .27.137.406.406.406.274 0 .406-.137.406-.406 0-.273-.132-.406-.406-.406Zm-2.191 1.304.48.25c.325.38.711.649 1.149.813l.406.406v.813l-.656.406c-.922-.219-1.715-.79-2.367-1.715l.246-.723Zm4.402 0 .723.25.25.723c-.653.926-1.445 1.496-2.367 1.715l-.657-.406v-.813c.707-.707 1.399-1.195 2.051-1.469Zm8.82.797a5.564 5.564 0 0 1 5.583 5.586 5.58 5.58 0 0 1-5.583 5.602 5.597 5.597 0 0 1-5.605-5.602 5.582 5.582 0 0 1 5.605-5.586Zm-.02 1.114c-1.194 0-2.257.457-3.179 1.378-.87.868-1.293 1.899-1.293 3.094 0 1.192.422 2.258 1.293 3.18.922.867 1.985 1.308 3.18 1.308s2.223-.44 3.094-1.308c.922-.922 1.394-1.988 1.394-3.18 0-1.195-.472-2.226-1.394-3.094-.871-.921-1.899-1.378-3.094-1.378Zm0 .812c.544 0 1.032.102 1.47.32l.246.653-.496.652-.567.09c-.105-.055-.328-.09-.652-.09s-.547.035-.652.09l-.567-.09-.496-.652.25-.653c.434-.218.922-.32 1.465-.32Zm-2.773 1.219h.743l.492.656c-.05.324-.172.629-.336.898a2.403 2.403 0 0 0-.156.887c-.164.434-.52.703-1.063.813l-.566-.477v-.336c0-.926.289-1.734.887-2.441Zm4.805 0h.742c.598.707.887 1.515.887 2.441v.336l-.566.477-.727-.23-.336-.583c0-.328-.082-.613-.246-.887a4.316 4.316 0 0 1-.23-.898Zm-2.031 1.219c.324 0 .598.136.812.41a.987.987 0 0 1 .407.812c0 .324-.133.63-.407.899-.214.218-.488.32-.812.32a1.41 1.41 0 0 1-.902-.32 1.41 1.41 0 0 1-.317-.899c0-.328.102-.597.317-.812.273-.274.578-.41.902-.41Zm0 .816c-.27 0-.406.133-.406.406 0 .27.136.406.406.406.273 0 .406-.136.406-.406 0-.273-.133-.406-.406-.406Zm-2.191 1.305.476.25c.328.379.715.648 1.149.812l.406.406v.813l-.653.406c-.921-.219-1.718-.789-2.367-1.715l.246-.722Zm4.402 0 .723.25.246.722c-.649.926-1.446 1.496-2.368 1.715l-.652-.406v-.813c.703-.707 1.399-1.195 2.05-1.468Zm0 0" style="stroke:none;fill-rule:nonzero;fill:#000;fill-opacity:1"/><path d="M15.926 35.16c-1.196 0-2.258.457-3.18 1.38-.867.87-1.289 1.898-1.289 3.093s.422 2.258 1.29 3.18c.921.87 1.983 1.308 3.179 1.308 1.195 0 2.226-.437 3.094-1.309.921-.921 1.394-1.984 1.394-3.18 0-1.194-.473-2.222-1.394-3.093-.868-.922-1.899-1.379-3.094-1.379Zm0 .817c.543 0 1.035.097 1.469.316l.246.652-.496.657-.563.086c-.11-.051-.328-.086-.656-.086-.324 0-.543.035-.653.086l-.566-.086-.496-.657.25-.652c.434-.219.922-.316 1.465-.316Zm-2.774 1.218h.743l.496.653a2.512 2.512 0 0 1-.336.882c-.11.274-.16.579-.16.903-.165.433-.52.703-1.06.812l-.565-.476v-.336c0-.922.285-1.735.882-2.438Zm4.809 0h.742a3.66 3.66 0 0 1 .883 2.438v.336l-.566.476-.727-.246-.332-.566c0-.324-.086-.63-.25-.903a4.106 4.106 0 0 1-.23-.882Zm-2.035 1.22c.328 0 .597.136.812.405.274.22.407.489.407.813 0 .328-.133.629-.407.902-.215.215-.484.317-.812.317a1.41 1.41 0 0 1-.899-.317 1.403 1.403 0 0 1-.32-.902c0-.324.102-.594.32-.813.27-.27.575-.406.899-.406Zm-2.192 2.12.477.246c.328.38.715.653 1.148.813l.41.406v.813l-.656.41c-.922-.22-1.715-.793-2.367-1.715l.246-.727Zm4.403 0 .722.246.25.727c-.652.922-1.445 1.496-2.37 1.715l-.653-.41V42c.707-.703 1.398-1.195 2.05-1.465ZM15.926 48.188c-1.196 0-2.258.453-3.18 1.378-.867.868-1.289 1.899-1.289 3.09 0 1.196.422 2.262 1.29 3.184.921.867 1.983 1.308 3.179 1.308 1.195 0 2.226-.441 3.094-1.308.921-.922 1.394-1.988 1.394-3.184 0-1.191-.473-2.222-1.394-3.09-.868-.925-1.899-1.379-3.094-1.379Zm0 .812c.543 0 1.035.102 1.469.316l.246.657-.496.652-.563.09c-.11-.055-.328-.09-.656-.09-.324 0-.543.035-.653.09l-.566-.09-.496-.652.25-.657c.434-.214.922-.316 1.465-.316Zm-2.774 1.219h.743l.496.656a2.622 2.622 0 0 1-.336.898 2.32 2.32 0 0 0-.16.883c-.165.438-.52.707-1.06.817l-.565-.48v-.337c0-.922.285-1.73.882-2.437Zm4.809 0h.742c.594.707.883 1.515.883 2.437v.336l-.566.48-.727-.23-.332-.586c0-.324-.086-.61-.25-.883a4.316 4.316 0 0 1-.23-.898Zm-2.035 1.218c.328 0 .597.137.812.407.274.218.407.488.407.812 0 .328-.133.633-.407.903-.215.218-.484.32-.812.32-.324 0-.63-.102-.899-.32a1.396 1.396 0 0 1-.32-.903c0-.324.102-.593.32-.812.27-.27.575-.407.899-.407Zm-2.192 2.122.477.25c.328.379.715.648 1.148.812l.41.406v.813l-.656.406c-.922-.219-1.715-.793-2.367-1.715l.246-.722Zm4.403 0 .722.25.25.722c-.652.922-1.445 1.496-2.37 1.715l-.653-.406v-.813c.707-.707 1.398-1.195 2.05-1.468ZM28.953 48.188c-1.195 0-2.242.453-3.164 1.378-.871.868-1.309 1.899-1.309 3.09 0 1.196.438 2.262 1.31 3.184.92.867 1.968 1.308 3.163 1.308 1.192 0 2.223-.441 3.09-1.308.926-.922 1.398-1.988 1.398-3.184 0-1.191-.472-2.222-1.398-3.09-.867-.925-1.898-1.379-3.09-1.379Zm0 .812c.543 0 1.031.102 1.465.316l.246.657-.477.652-.582.09c-.109-.055-.328-.09-.652-.09-.328 0-.527.035-.637.09l-.586-.09-.476-.652.23-.657c.434-.214.926-.316 1.47-.316Zm-2.758 1.219h.723l.496.656a2.545 2.545 0 0 1-.336.898 2.32 2.32 0 0 0-.16.883c-.16.438-.516.707-1.059.817l-.566-.48v-.337c0-.922.305-1.73.902-2.437Zm4.805 0h.727c.597.707.902 1.515.902 2.437v.336l-.586.48-.723-.23-.32-.586c0-.324-.082-.61-.246-.883a4.313 4.313 0 0 1-.246-.898Zm-2.047 1.218c.324 0 .594.137.813.407.27.218.422.488.422.812 0 .328-.153.633-.422.903-.22.218-.489.32-.813.32-.328 0-.613-.102-.887-.32a1.435 1.435 0 0 1-.336-.903c0-.324.122-.593.336-.812.274-.27.559-.407.887-.407Zm-2.191 2.122.492.25c.328.379.7.648 1.133.812l.406.406v.813l-.656.406c-.922-.219-1.696-.793-2.348-1.715l.246-.722Zm4.398 0 .727.25.246.722c-.653.922-1.446 1.496-2.367 1.715l-.637-.406v-.813c.707-.707 1.379-1.195 2.031-1.468ZM28.953 35.16c-1.195 0-2.242.457-3.164 1.38-.871.87-1.309 1.898-1.309 3.093s.438 2.258 1.31 3.18c.92.87 1.968 1.308 3.163 1.308 1.192 0 2.223-.437 3.09-1.309.926-.921 1.398-1.984 1.398-3.18 0-1.194-.472-2.222-1.398-3.093-.867-.922-1.898-1.379-3.09-1.379Zm0 .817c.543 0 1.031.097 1.465.316l.246.652-.477.657-.582.086c-.109-.051-.328-.086-.652-.086-.328 0-.527.035-.637.086l-.586-.086-.476-.657.23-.652c.434-.219.926-.316 1.47-.316Zm-2.758 1.218h.723l.496.653a2.44 2.44 0 0 1-.336.882c-.11.274-.16.579-.16.903-.16.433-.516.703-1.059.812l-.566-.476v-.336c0-.922.305-1.735.902-2.438Zm4.805 0h.727c.597.703.902 1.516.902 2.438v.336l-.586.476-.723-.246-.32-.566c0-.324-.082-.63-.246-.903a4.1 4.1 0 0 1-.246-.882Zm-2.047 1.22c.324 0 .594.136.813.405.27.22.422.489.422.813 0 .328-.153.629-.422.902a1.107 1.107 0 0 1-.813.317 1.38 1.38 0 0 1-.887-.317c-.214-.273-.336-.574-.336-.902 0-.324.122-.594.336-.813.274-.27.559-.406.887-.406Zm-2.191 2.12.492.246c.328.38.7.653 1.133.813l.406.406v.813l-.656.41c-.922-.22-1.696-.793-2.348-1.715l.246-.727Zm4.398 0 .727.246.246.727c-.653.922-1.446 1.496-2.367 1.715l-.637-.41V42c.707-.703 1.379-1.195 2.031-1.465Zm0 0" style="stroke:none;fill-rule:nonzero;fill:#c00;fill-opacity:1"/><path d="M15.926 32.707c-1.899 0-3.52.691-4.875 2.047C9.69 36.114 9 37.734 9 39.633c0 1.465.422 2.8 1.234 3.996.871 1.191 1.97 2.035 3.325 2.527-1.356.489-2.454 1.332-3.325 2.528A6.891 6.891 0 0 0 9 52.656c0 1.903.691 3.54 2.05 4.899 1.356 1.355 2.977 2.03 4.876 2.03 1.469 0 2.8-.437 3.996-1.308a6.527 6.527 0 0 0 2.527-3.25 6.505 6.505 0 0 0 2.528 3.25c1.191.871 2.507 1.309 3.976 1.309 1.899 0 3.535-.676 4.895-2.031 1.355-1.36 2.03-2.996 2.03-4.899 0-1.465-.437-2.781-1.308-3.972a6.505 6.505 0 0 0-3.25-2.528 6.548 6.548 0 0 0 3.25-2.527 6.635 6.635 0 0 0 1.309-3.996c0-1.899-.676-3.52-2.031-4.88-1.36-1.355-2.996-2.046-4.895-2.046-1.469 0-2.785.438-3.976 1.305-1.196.816-2.04 1.894-2.528 3.254-.488-1.36-1.336-2.438-2.527-3.254a6.649 6.649 0 0 0-3.996-1.305Zm0 1.234c1.574 0 2.91.559 3.996 1.7 1.14 1.086 1.715 2.418 1.715 3.992 0 1.574-.575 2.926-1.715 4.066-1.086 1.086-2.422 1.64-3.996 1.64-1.574 0-2.922-.554-4.063-1.64-1.086-1.14-1.629-2.492-1.629-4.066 0-1.574.543-2.906 1.63-3.992 1.14-1.141 2.488-1.7 4.062-1.7Zm13.027 0c1.574 0 2.906.559 3.992 1.7 1.14 1.086 1.715 2.418 1.715 3.992 0 1.574-.574 2.926-1.715 4.066-1.086 1.086-2.418 1.64-3.992 1.64-1.574 0-2.926-.554-4.066-1.64-1.086-1.14-1.625-2.492-1.625-4.066 0-1.574.539-2.906 1.625-3.992 1.14-1.141 2.492-1.7 4.066-1.7ZM22.45 42c.758 2.012 2.145 3.395 4.153 4.156-2.008.758-3.395 2.145-4.153 4.153-.762-2.008-2.144-3.395-4.156-4.153 2.012-.761 3.395-2.144 4.156-4.156Zm-6.523 4.969c1.574 0 2.91.574 3.996 1.715 1.14 1.082 1.715 2.398 1.715 3.972 0 1.578-.575 2.946-1.715 4.086-1.086 1.086-2.422 1.625-3.996 1.625-1.574 0-2.922-.539-4.063-1.625-1.086-1.14-1.629-2.508-1.629-4.086 0-1.574.543-2.89 1.63-3.972 1.14-1.141 2.488-1.715 4.062-1.715Zm13.027 0c1.574 0 2.906.574 3.992 1.715 1.14 1.082 1.715 2.398 1.715 3.972 0 1.578-.574 2.946-1.715 4.086-1.086 1.086-2.418 1.625-3.992 1.625-1.574 0-2.926-.539-4.066-1.625-1.086-1.14-1.625-2.508-1.625-4.086 0-1.574.539-2.89 1.625-3.972 1.14-1.141 2.492-1.715 4.066-1.715Zm0 0" style="stroke:none;fill-rule:nonzero;fill:#000;fill-opacity:1"/><path d="M28.957 53.07c-.27 0-.406-.133-.406-.406 0-.27.137-.406.406-.406.273 0 .41.137.41.406 0 .273-.137.406-.41.406M15.93 53.07c-.274 0-.407-.133-.407-.406 0-.27.133-.406.407-.406.27 0 .406.137.406.406 0 .273-.137.406-.406.406M28.957 40.043c-.27 0-.406-.137-.406-.406 0-.274.137-.41.406-.41.273 0 .41.136.41.41 0 .27-.137.406-.41.406M15.93 40.043c-.274 0-.407-.137-.407-.406 0-.274.133-.41.407-.41.27 0 .406.136.406.41 0 .27-.137.406-.406.406" style="stroke:none;fill-rule:nonzero;fill:#c00;fill-opacity:1"/></svg>