<svg xmlns="http://www.w3.org/2000/svg" width="px" height="66px" viewBox="0 0 45 66"><path d="M-163.89 402.945h67.745a5.403 5.403 0 0 1 5.409 5.408V512.5a5.408 5.408 0 0 1-5.409 5.409h-67.746a5.408 5.408 0 0 1-5.408-5.409V408.353a5.403 5.403 0 0 1 5.408-5.408Zm0 0" style="fill-rule:nonzero;fill:#fff;fill-opacity:1;stroke-width:1.009;stroke-linecap:butt;stroke-linejoin:miter;stroke:#000;stroke-opacity:1;stroke-miterlimit:4" transform="translate(96.029 -227.592) scale(.56553)"/><path d="M29.012 34.832c-1.196 0-2.239.457-3.164 1.379-.868.871-1.305 1.898-1.305 3.094 0 1.195.437 2.258 1.305 3.18.925.87 1.968 1.308 3.164 1.308 1.195 0 2.226-.438 3.093-1.309.922-.922 1.395-1.984 1.395-3.18 0-1.195-.473-2.222-1.395-3.093-.867-.922-1.898-1.379-3.093-1.379Zm0 .813c.543 0 1.031.101 1.468.32l.247.652-.477.656-.582.086c-.11-.054-.328-.086-.656-.086-.325 0-.528.032-.637.086l-.582-.086-.477-.656.23-.652c.434-.219.923-.32 1.466-.32Zm-2.758 1.222h.726l.497.653a2.542 2.542 0 0 1-.336.882c-.11.274-.16.578-.16.903-.165.433-.52.703-1.063.812l-.563-.476v-.336c0-.922.305-1.735.899-2.438Zm4.808 0h.723c.598.703.902 1.516.902 2.438v.336l-.582.476-.726-.246-.317-.566c0-.325-.085-.63-.246-.903a4.165 4.165 0 0 1-.25-.882Zm-2.05 1.219c.328 0 .597.133.812.406.274.215.426.488.426.813 0 .324-.152.629-.426.902-.215.215-.484.316-.812.316a1.37 1.37 0 0 1-.883-.316 1.429 1.429 0 0 1-.336-.902c0-.325.117-.598.336-.813.27-.273.558-.406.883-.406Zm-2.192 2.121.496.246a2.75 2.75 0 0 0 1.13.813l.406.406v.812l-.653.407c-.922-.215-1.699-.79-2.351-1.711l.25-.727Zm4.403 0 .722.246.25.727c-.652.922-1.445 1.496-2.37 1.71l-.637-.406v-.812c.707-.703 1.382-1.195 2.035-1.465ZM15.988 34.832c-1.195 0-2.258.457-3.183 1.379-.867.871-1.29 1.898-1.29 3.094 0 1.195.422 2.258 1.29 3.18.925.87 1.988 1.308 3.183 1.308 1.196 0 2.223-.438 3.094-1.309.922-.922 1.395-1.984 1.395-3.18 0-1.195-.473-2.222-1.395-3.093-.871-.922-1.898-1.379-3.094-1.379Zm0 .813c.543 0 1.032.101 1.465.32l.25.652-.496.656-.566.086c-.11-.054-.328-.086-.653-.086-.328 0-.547.032-.656.086l-.562-.086-.497-.656.247-.652c.433-.219.925-.32 1.468-.32Zm-2.773 1.222h.742l.492.653a2.467 2.467 0 0 1-.336.882c-.11.274-.156.578-.156.903-.164.433-.52.703-1.062.812l-.567-.476v-.336c0-.922.29-1.735.887-2.438Zm4.805 0h.742c.597.703.883 1.516.883 2.438v.336l-.563.476-.727-.246-.335-.566c0-.325-.086-.63-.247-.903a4.167 4.167 0 0 1-.23-.882Zm-2.032 1.219c.325 0 .594.133.813.406.27.215.406.488.406.813 0 .324-.137.629-.406.902a1.107 1.107 0 0 1-.813.316c-.328 0-.629-.101-.902-.316a1.407 1.407 0 0 1-.316-.902c0-.325.097-.598.316-.813.273-.273.574-.406.902-.406Zm-2.191 2.121.476.246a2.81 2.81 0 0 0 1.149.813l.406.406v.812l-.652.407c-.926-.215-1.719-.79-2.371-1.711l.25-.727Zm4.398 0 .727.246.246.727c-.652.922-1.445 1.496-2.367 1.71l-.653-.406v-.812c.704-.703 1.399-1.195 2.047-1.465ZM15.988 47.86c-1.195 0-2.258.453-3.183 1.378-.867.867-1.29 1.899-1.29 3.09 0 1.195.422 2.258 1.29 3.184.925.867 1.988 1.308 3.183 1.308 1.196 0 2.223-.441 3.094-1.308.922-.926 1.395-1.989 1.395-3.184 0-1.191-.473-2.223-1.395-3.09-.871-.925-1.898-1.379-3.094-1.379Zm0 .812c.543 0 1.032.101 1.465.316l.25.657-.496.652-.566.09c-.11-.055-.328-.09-.653-.09-.328 0-.547.035-.656.09l-.562-.09-.497-.652.247-.657c.433-.215.925-.316 1.468-.316Zm-2.773 1.219h.742l.492.652a2.536 2.536 0 0 1-.336.902 2.32 2.32 0 0 0-.156.883c-.164.438-.52.707-1.062.813l-.567-.477v-.336c0-.922.29-1.73.887-2.437Zm4.805 0h.742c.597.707.883 1.515.883 2.437v.336l-.563.477-.727-.227-.335-.586c0-.324-.086-.61-.247-.883a4.291 4.291 0 0 1-.23-.902Zm-2.032 1.218c.325 0 .594.137.813.407.27.218.406.488.406.812 0 .328-.137.633-.406.902-.219.22-.488.32-.813.32-.328 0-.629-.1-.902-.32a1.392 1.392 0 0 1-.316-.902c0-.324.097-.594.316-.812.273-.27.574-.407.902-.407Zm-2.191 2.121.476.247c.325.382.715.652 1.149.816l.406.406v.813l-.652.406c-.926-.219-1.719-.793-2.371-1.715l.25-.726Zm4.398 0 .727.247.246.726c-.652.922-1.445 1.496-2.367 1.715l-.653-.406v-.813c.704-.707 1.399-1.195 2.047-1.469ZM29.012 47.86c-1.196 0-2.239.453-3.164 1.378-.868.867-1.305 1.899-1.305 3.09 0 1.195.437 2.258 1.305 3.184.925.867 1.968 1.308 3.164 1.308 1.195 0 2.226-.441 3.093-1.308.922-.926 1.395-1.989 1.395-3.184 0-1.191-.473-2.223-1.395-3.09-.867-.925-1.898-1.379-3.093-1.379Zm0 .812c.543 0 1.031.101 1.468.316l.247.657-.477.652-.582.09c-.11-.055-.328-.09-.656-.09-.325 0-.528.035-.637.09l-.582-.09-.477-.652.23-.657c.434-.215.923-.316 1.466-.316Zm-2.758 1.219h.726l.497.652a2.613 2.613 0 0 1-.336.902 2.32 2.32 0 0 0-.16.883c-.165.438-.52.707-1.063.813l-.563-.477v-.336c0-.922.305-1.73.899-2.437Zm4.808 0h.723c.598.707.902 1.515.902 2.437v.336l-.582.477-.726-.227-.317-.586c0-.324-.085-.61-.246-.883a4.284 4.284 0 0 1-.25-.902Zm-2.05 1.218c.328 0 .597.137.812.407.274.218.426.488.426.812 0 .328-.152.633-.426.902-.215.22-.484.32-.812.32-.325 0-.614-.1-.883-.32a1.413 1.413 0 0 1-.336-.902c0-.324.117-.594.336-.812.27-.27.558-.407.883-.407ZM26.82 53.23l.496.247c.325.382.696.652 1.13.816l.406.406v.813l-.653.406c-.922-.219-1.699-.793-2.351-1.715l.25-.726Zm4.403 0 .722.247.25.726c-.652.922-1.445 1.496-2.37 1.715l-.637-.406v-.813c.707-.707 1.382-1.195 2.035-1.469ZM15.988 21.79c-1.195 0-2.258.476-3.183 1.398-.867.867-1.29 1.898-1.29 3.093 0 1.192.422 2.258 1.29 3.18.925.867 1.988 1.289 3.183 1.289 1.196 0 2.223-.422 3.094-1.29.922-.92 1.395-1.987 1.395-3.179 0-1.195-.473-2.226-1.395-3.093-.871-.922-1.898-1.399-3.094-1.399Zm0 .815a3.21 3.21 0 0 1 1.465.336l.25.653-.496.652-.566.07c-.11-.05-.328-.07-.653-.07-.328 0-.547.02-.656.07l-.562-.07-.497-.652.247-.653a3.226 3.226 0 0 1 1.468-.336Zm-2.773 1.235h.742l.492.637a2.564 2.564 0 0 1-.336.902c-.11.27-.156.574-.156.902-.164.434-.52.703-1.062.813l-.567-.496v-.317c0-.926.29-1.734.887-2.441Zm4.805 0h.742c.597.707.883 1.515.883 2.441v.317l-.563.496-.727-.25-.335-.563c0-.328-.086-.633-.247-.902a4.354 4.354 0 0 1-.23-.902Zm-2.032 1.219c.325 0 .594.136.813.406.27.219.406.488.406.816 0 .324-.137.63-.406.899-.219.218-.488.32-.813.32-.328 0-.629-.102-.902-.32a1.389 1.389 0 0 1-.316-.899c0-.328.097-.597.316-.816.273-.27.574-.406.902-.406Zm-2.191 2.12.476.231c.325.38.715.652 1.149.813l.406.406v.832l-.652.406c-.926-.219-1.719-.793-2.371-1.715l.25-.742Zm4.398 0 .727.231.246.742c-.652.922-1.445 1.496-2.367 1.715l-.653-.406v-.832c.704-.703 1.399-1.176 2.047-1.45ZM29.012 21.79c-1.196 0-2.239.476-3.164 1.398-.868.867-1.305 1.898-1.305 3.093 0 1.192.437 2.258 1.305 3.18.925.867 1.968 1.289 3.164 1.289 1.195 0 2.226-.422 3.093-1.29.922-.92 1.395-1.987 1.395-3.179 0-1.195-.473-2.226-1.395-3.093-.867-.922-1.898-1.399-3.093-1.399Zm0 .815c.543 0 1.031.118 1.468.336l.247.653-.477.652-.582.07c-.11-.05-.328-.07-.656-.07-.325 0-.528.02-.637.07l-.582-.07-.477-.652.23-.653a3.21 3.21 0 0 1 1.466-.336Zm-2.758 1.235h.726l.497.637a2.642 2.642 0 0 1-.336.902c-.11.27-.16.574-.16.902-.165.434-.52.703-1.063.813l-.563-.496v-.317c0-.926.305-1.734.899-2.441Zm4.808 0h.723c.598.707.902 1.515.902 2.441v.317l-.582.496-.726-.25-.317-.563c0-.328-.085-.633-.246-.902a4.35 4.35 0 0 1-.25-.902Zm-2.05 1.219c.328 0 .597.136.812.406.274.219.426.488.426.816 0 .324-.152.63-.426.899-.215.218-.484.32-.812.32-.325 0-.614-.102-.883-.32a1.41 1.41 0 0 1-.336-.899c0-.328.117-.597.336-.816.27-.27.558-.406.883-.406Zm-2.192 2.12.496.231c.325.38.696.652 1.13.813l.406.406v.832l-.653.406c-.922-.219-1.699-.793-2.351-1.715l.25-.742Zm4.403 0 .722.231.25.742c-.652.922-1.445 1.496-2.37 1.715l-.637-.406v-.832c.707-.703 1.382-1.176 2.035-1.45ZM15.988 8.766c-1.195 0-2.258.457-3.183 1.379-.867.867-1.29 1.914-1.29 3.109s.422 2.242 1.29 3.164c.925.867 1.988 1.309 3.183 1.309 1.196 0 2.223-.442 3.094-1.309.922-.922 1.395-1.969 1.395-3.164s-.473-2.242-1.395-3.11c-.871-.921-1.898-1.378-3.094-1.378Zm0 .812a3.26 3.26 0 0 1 1.465.336l.25.637-.496.652-.566.09c-.11-.055-.328-.09-.653-.09-.328 0-.547.035-.656.09l-.562-.09-.497-.652.247-.637a3.277 3.277 0 0 1 1.468-.336Zm-2.773 1.219h.742l.492.656a2.593 2.593 0 0 1-.336.902c-.11.27-.156.575-.156.899-.164.434-.52.707-1.062.812l-.567-.492v-.32c0-.922.29-1.75.887-2.457Zm4.805 0h.742c.597.707.883 1.535.883 2.457v.32l-.563.492-.727-.246-.335-.566c0-.324-.086-.629-.247-.899a4.419 4.419 0 0 1-.23-.902Zm-2.032 1.223c.325 0 .594.132.813.406.27.215.406.504.406.828 0 .328-.137.613-.406.883a1.108 1.108 0 0 1-.813.336 1.42 1.42 0 0 1-.902-.336 1.341 1.341 0 0 1-.316-.883c0-.324.097-.613.316-.828.273-.274.574-.406.902-.406Zm-2.191 2.117.476.25a2.81 2.81 0 0 0 1.149.812l.406.406v.813l-.652.406c-.926-.215-1.719-.773-2.371-1.695l.25-.742Zm4.398 0 .727.25.246.742c-.652.922-1.445 1.48-2.367 1.695l-.653-.406v-.813c.704-.707 1.399-1.195 2.047-1.468ZM29.012 8.766c-1.196 0-2.239.457-3.164 1.379-.868.867-1.305 1.914-1.305 3.109s.437 2.242 1.305 3.164c.925.867 1.968 1.309 3.164 1.309 1.195 0 2.226-.442 3.093-1.309.922-.922 1.395-1.969 1.395-3.164s-.473-2.242-1.395-3.11c-.867-.921-1.898-1.378-3.093-1.378Zm0 .812a3.29 3.29 0 0 1 1.468.336l.247.637-.477.652-.582.09c-.11-.055-.328-.09-.656-.09-.325 0-.528.035-.637.09l-.582-.09-.477-.652.23-.637a3.26 3.26 0 0 1 1.466-.336Zm-2.758 1.219h.726l.497.656a2.673 2.673 0 0 1-.336.902c-.11.27-.16.575-.16.899-.165.434-.52.707-1.063.812l-.563-.492v-.32c0-.922.305-1.75.899-2.457Zm4.808 0h.723c.598.707.902 1.535.902 2.457v.32l-.582.492-.726-.246-.317-.566c0-.324-.085-.629-.246-.899a4.42 4.42 0 0 1-.25-.902Zm-2.05 1.223c.328 0 .597.132.812.406.274.215.426.504.426.828 0 .328-.152.613-.426.883a1.096 1.096 0 0 1-.812.336c-.325 0-.614-.118-.883-.336-.219-.27-.336-.555-.336-.883 0-.324.117-.613.336-.828.27-.274.558-.406.883-.406Zm-2.192 2.117.496.25a2.75 2.75 0 0 0 1.13.812l.406.406v.813l-.653.406c-.922-.215-1.699-.773-2.351-1.695l.25-.742Zm4.403 0 .722.25.25.742c-.652.922-1.445 1.48-2.37 1.695l-.637-.406v-.813c.707-.707 1.382-1.195 2.035-1.468Zm0 0" style="stroke:none;fill-rule:nonzero;fill:#000;fill-opacity:1"/><path d="M15.988 6.328c-1.902 0-3.52.676-4.879 2.031-1.355 1.36-2.05 2.996-2.05 4.895 0 1.469.425 2.781 1.238 3.976.867 1.196 1.965 2.04 3.324 2.528-1.36.488-2.457 1.332-3.324 2.527a6.968 6.968 0 0 0-1.238 3.996c0 1.465.425 2.797 1.238 3.992a6.907 6.907 0 0 0 3.324 2.512c-1.36.488-2.457 1.332-3.324 2.524a6.977 6.977 0 0 0-1.238 3.996c0 1.465.425 2.8 1.238 3.992.867 1.195 1.965 2.039 3.324 2.527-1.36.492-2.457 1.336-3.324 2.528-.813 1.195-1.238 2.511-1.238 3.976 0 1.902.695 3.54 2.05 4.899 1.36 1.355 2.977 2.03 4.88 2.03 1.464 0 2.8-.44 3.991-1.308a6.505 6.505 0 0 0 2.528-3.25 6.505 6.505 0 0 0 2.527 3.25c1.195.867 2.512 1.309 3.977 1.309 1.902 0 3.539-.676 4.894-2.031 1.36-1.36 2.035-2.997 2.035-4.899 0-1.465-.441-2.781-1.308-3.976a6.558 6.558 0 0 0-3.254-2.528c1.36-.488 2.437-1.332 3.254-2.527a6.641 6.641 0 0 0 1.308-3.992c0-1.465-.441-2.801-1.308-3.996-.817-1.192-1.895-2.036-3.254-2.524 1.36-.492 2.437-1.316 3.254-2.512.867-1.195 1.308-2.527 1.308-3.992 0-1.468-.441-2.8-1.308-3.996-.817-1.195-1.895-2.039-3.254-2.527 1.36-.488 2.437-1.332 3.254-2.528.867-1.195 1.308-2.507 1.308-3.976 0-1.899-.675-3.535-2.035-4.895-1.355-1.355-2.992-2.03-4.894-2.03-1.465 0-2.782.437-3.977 1.308a6.505 6.505 0 0 0-2.527 3.25 6.505 6.505 0 0 0-2.528-3.25 6.616 6.616 0 0 0-3.992-1.309Zm0 1.219c1.575 0 2.907.574 3.992 1.715 1.141 1.086 1.715 2.418 1.715 3.992 0 1.574-.574 2.926-1.715 4.066-1.085 1.086-2.418 1.625-3.992 1.625-1.574 0-2.925-.539-4.066-1.625-1.086-1.14-1.625-2.492-1.625-4.066 0-1.574.539-2.906 1.625-3.992 1.14-1.14 2.492-1.715 4.066-1.715Zm13.024 0c1.574 0 2.91.574 3.996 1.715 1.14 1.086 1.71 2.418 1.715 3.992-.004 1.574-.575 2.926-1.715 4.066-1.086 1.086-2.422 1.625-3.996 1.625-1.575 0-2.926-.539-4.063-1.625-1.086-1.14-1.629-2.492-1.629-4.066 0-1.574.543-2.906 1.63-3.992 1.136-1.14 2.488-1.715 4.062-1.715Zm-6.504 8.058c.762 2.008 2.144 3.395 4.152 4.153-2.008.762-3.39 2.144-4.152 4.152-.758-2.008-2.145-3.39-4.153-4.152 2.008-.758 3.395-2.145 4.153-4.153Zm-6.52 4.965c1.575 0 2.907.575 3.992 1.715 1.141 1.086 1.715 2.422 1.715 3.996 0 1.574-.574 2.922-1.715 4.063-1.085 1.086-2.418 1.625-3.992 1.625-1.574 0-2.925-.54-4.066-1.625-1.086-1.14-1.625-2.489-1.625-4.063 0-1.574.539-2.91 1.625-3.996 1.14-1.14 2.492-1.715 4.066-1.715Zm13.024 0c1.574 0 2.91.575 3.996 1.715 1.14 1.086 1.71 2.422 1.715 3.996-.004 1.574-.575 2.922-1.715 4.063-1.086 1.086-2.422 1.625-3.996 1.625-1.575 0-2.926-.54-4.063-1.625-1.086-1.14-1.629-2.489-1.629-4.063 0-1.574.543-2.91 1.63-3.996 1.136-1.14 2.488-1.715 4.062-1.715Zm-6.504 8.059c.762 2.012 2.144 3.394 4.152 4.156-2.008.758-3.39 2.14-4.152 4.153-.758-2.012-2.145-3.395-4.153-4.153 2.008-.762 3.395-2.144 4.153-4.156Zm-6.52 4.984c1.575 0 2.907.559 3.992 1.696 1.141 1.086 1.715 2.421 1.715 3.996 0 1.574-.574 2.925-1.715 4.066-1.085 1.086-2.418 1.64-3.992 1.64-1.574 0-2.925-.554-4.066-1.64-1.086-1.14-1.625-2.492-1.625-4.066 0-1.575.539-2.91 1.625-3.996 1.14-1.137 2.492-1.696 4.066-1.696Zm13.024 0c1.574 0 2.91.559 3.996 1.696 1.14 1.086 1.71 2.421 1.715 3.996-.004 1.574-.575 2.925-1.715 4.066-1.086 1.086-2.422 1.64-3.996 1.64-1.575 0-2.926-.554-4.063-1.64-1.086-1.14-1.629-2.492-1.629-4.066 0-1.575.543-2.91 1.63-3.996 1.136-1.137 2.488-1.696 4.062-1.696Zm-6.504 8.059c.762 2.008 2.144 3.394 4.152 4.152-2.008.762-3.39 2.145-4.152 4.156-.758-2.011-2.145-3.394-4.153-4.156 2.008-.758 3.395-2.144 4.153-4.152Zm-6.52 4.969c1.575 0 2.907.574 3.992 1.71 1.141 1.087 1.715 2.403 1.715 3.977 0 1.574-.574 2.945-1.715 4.082-1.085 1.086-2.418 1.63-3.992 1.63-1.574 0-2.925-.544-4.066-1.63-1.086-1.137-1.625-2.508-1.625-4.082 0-1.574.539-2.89 1.625-3.976 1.14-1.137 2.492-1.711 4.066-1.711Zm13.024 0c1.574 0 2.91.574 3.996 1.71 1.14 1.087 1.71 2.403 1.715 3.977-.004 1.574-.575 2.945-1.715 4.082-1.086 1.086-2.422 1.63-3.996 1.63-1.575 0-2.926-.544-4.063-1.63-1.086-1.137-1.629-2.508-1.629-4.082 0-1.574.543-2.89 1.63-3.976 1.136-1.137 2.488-1.711 4.062-1.711Zm0 0" style="stroke:none;fill-rule:nonzero;fill:#000;fill-opacity:1"/><path d="M15.988 13.652c-.27 0-.406-.132-.406-.406 0-.27.137-.406.406-.406.274 0 .41.137.41.406 0 .274-.136.406-.41.406M29.02 13.652c-.274 0-.407-.132-.407-.406 0-.27.133-.406.407-.406.27 0 .406.137.406.406 0 .274-.137.406-.406.406M15.988 26.684c-.27 0-.406-.137-.406-.407 0-.273.137-.406.406-.406.274 0 .41.133.41.406 0 .27-.136.407-.41.407M29.02 26.684c-.274 0-.407-.137-.407-.407 0-.273.133-.406.407-.406.27 0 .406.133.406.406 0 .27-.137.407-.406.407M15.988 39.715c-.27 0-.406-.137-.406-.41 0-.27.137-.407.406-.407.274 0 .41.137.41.407 0 .273-.136.41-.41.41M29.02 39.715c-.274 0-.407-.137-.407-.41 0-.27.133-.407.407-.407.27 0 .406.137.406.407 0 .273-.137.41-.406.41M15.988 52.742c-.27 0-.406-.133-.406-.406 0-.27.137-.406.406-.406.274 0 .41.136.41.406 0 .273-.136.406-.41.406M29.02 52.742c-.274 0-.407-.133-.407-.406 0-.27.133-.406.407-.406.27 0 .406.136.406.406 0 .273-.137.406-.406.406" style="stroke:none;fill-rule:nonzero;fill:#000;fill-opacity:1"/></svg>