<svg xmlns="http://www.w3.org/2000/svg" width="px" height="66px" viewBox="0 0 45 66"><path d="M-142.511 228.424h67.746a5.403 5.403 0 0 1 5.408 5.408V337.98a5.408 5.408 0 0 1-5.408 5.408h-67.746a5.408 5.408 0 0 1-5.409-5.408V233.832a5.403 5.403 0 0 1 5.409-5.408Zm0 0" style="fill-rule:nonzero;fill:#fff;fill-opacity:1;stroke-width:1.009;stroke-linecap:butt;stroke-linejoin:miter;stroke:#000;stroke-opacity:1;stroke-miterlimit:4" transform="translate(83.938 -128.895) scale(.56553)"/><path d="M10.922 33.578c-.406-.07-.594-.316-.59-.777 0-.387.125-.63.383-.735.164-.07.629-.062.793.016.265.121.383.344.387.715 0 .273-.075.484-.223.621-.145.137-.477.207-.75.16ZM22.313 33.578c-.301-.062-.473-.203-.547-.441-.067-.223-.051-.586.035-.77.113-.238.273-.328.61-.344.347-.015.53.036.683.192.144.144.195.305.195.617 0 .469-.219.703-.695.754a1.12 1.12 0 0 1-.282-.008ZM33.715 33.578c-.281-.058-.445-.18-.54-.398-.081-.192-.07-.614.024-.809.117-.242.278-.332.614-.348.347-.015.53.036.683.192.14.14.195.3.195.582 0 .266-.046.426-.168.562-.156.18-.52.278-.808.22Zm0 0" style="stroke:none;fill-rule:nonzero;fill:#c00;fill-opacity:1"/><path d="M11.11 45.012c-1.684 0-3.137.59-4.329 1.785-1.195 1.195-1.785 2.648-1.785 4.332 0 1.684.59 3.117 1.785 4.312 1.192 1.192 2.645 1.786 4.328 1.786 1.305 0 2.47-.356 3.5-1.063 1.032-.758 1.758-1.703 2.192-2.844.433 1.14 1.176 2.086 2.207 2.844 1.035.707 2.199 1.063 3.5 1.063 1.305 0 2.469-.356 3.5-1.063 1.031-.758 1.758-1.703 2.191-2.844.434 1.14 1.18 2.086 2.211 2.844 1.031.707 2.195 1.063 3.496 1.063 1.684 0 3.121-.594 4.313-1.786 1.195-1.195 1.785-2.629 1.785-4.312 0-1.684-.59-3.137-1.785-4.332-1.192-1.195-2.63-1.785-4.313-1.785-1.3 0-2.465.39-3.496 1.148-1.031.707-1.777 1.617-2.21 2.758-.434-1.14-1.16-2.05-2.192-2.758a5.767 5.767 0 0 0-3.5-1.148c-1.301 0-2.465.39-3.5 1.148-1.031.707-1.774 1.617-2.207 2.758-.434-1.14-1.16-2.05-2.192-2.758a5.767 5.767 0 0 0-3.5-1.148Zm0 1.218c1.359 0 2.488.493 3.41 1.47.976.921 1.468 2.07 1.468 3.429 0 1.355-.492 2.52-1.468 3.496-.922.926-2.051 1.379-3.41 1.379-1.356 0-2.54-.453-3.516-1.379-.922-.977-1.38-2.14-1.38-3.496 0-1.36.458-2.508 1.38-3.43.976-.976 2.16-1.469 3.515-1.469Zm11.398 0c1.36 0 2.488.493 3.41 1.47.98.921 1.469 2.07 1.469 3.429 0 1.355-.489 2.52-1.469 3.496-.922.926-2.05 1.379-3.41 1.379-1.356 0-2.52-.453-3.5-1.379-.922-.977-1.395-2.14-1.395-3.496 0-1.36.473-2.508 1.395-3.43.98-.976 2.144-1.469 3.5-1.469Zm11.398 0c1.36 0 2.489.493 3.414 1.47.977.921 1.465 2.07 1.465 3.429 0 1.355-.488 2.52-1.465 3.496-.925.926-2.054 1.379-3.414 1.379-1.355 0-2.52-.453-3.496-1.379-.926-.977-1.398-2.14-1.398-3.496 0-1.36.472-2.508 1.398-3.43.977-.976 2.14-1.469 3.496-1.469Zm-22.797.817c-1.14 0-2.117.402-2.933 1.219-.758.757-1.149 1.722-1.149 2.863 0 1.14.391 2.117 1.149 2.934.816.757 1.793 1.128 2.933 1.128 1.141 0 2.086-.37 2.848-1.129.813-.816 1.219-1.792 1.219-2.933 0-1.14-.406-2.106-1.219-2.863-.762-.817-1.707-1.22-2.848-1.22Zm11.399 0c-1.14 0-2.117.402-2.934 1.219-.758.757-1.148 1.722-1.148 2.863 0 1.14.39 2.117 1.148 2.934.817.757 1.793 1.128 2.934 1.128 1.14 0 2.086-.37 2.847-1.129.813-.816 1.22-1.792 1.22-2.933 0-1.14-.407-2.106-1.22-2.863-.761-.817-1.707-1.22-2.847-1.22Zm11.398 0c-1.136 0-2.117.402-2.933 1.219-.758.757-1.149 1.722-1.149 2.863 0 1.14.39 2.117 1.149 2.934.816.757 1.797 1.128 2.933 1.128 1.14 0 2.086-.37 2.848-1.129.812-.816 1.219-1.792 1.219-2.933 0-1.14-.407-2.106-1.22-2.863-.76-.817-1.706-1.22-2.847-1.22Zm-22.797.406c.543 0 1 .082 1.38.246l.316.742c-.16.489-.48.758-.97.813-.327-.11-.562-.176-.726-.176-.164 0-.414.067-.742.176-.488-.055-.808-.324-.972-.813l.32-.742c.379-.164.851-.246 1.394-.246Zm11.399 0c.543 0 1 .082 1.379.246l.336.742c-.164.489-.5.758-.989.813-.328-.11-.562-.176-.726-.176-.16 0-.414.067-.742.176-.489-.055-.809-.324-.973-.813l.32-.742c.38-.164.852-.246 1.395-.246Zm11.398 0c.543 0 1 .082 1.38.246l.335.742c-.16.489-.5.758-.988.813-.328-.11-.563-.176-.727-.176-.16 0-.414.067-.742.176-.488-.055-.809-.324-.969-.813l.336-.742c.38-.164.832-.246 1.375-.246ZM9.06 48.672c.328.324.496.715.496 1.148-.325.325-.496.73-.496 1.22-.27.542-.606.847-1.043.901l-.582-.586v-.226c0-.871.304-1.664.902-2.371Zm4.082 0 .726.086c.598.707.903 1.5.903 2.37v.227l-.567.586c-.433-.054-.789-.359-1.062-.902 0-.488-.168-.894-.493-1.219 0-.433.168-.824.493-1.148Zm7.336 0c.324.324.476.715.476 1.148-.324.325-.476.73-.476 1.22-.274.542-.625.847-1.059.901l-.586-.586v-.226c0-.871.305-1.664.902-2.371Zm4.066 0 .723.086c.597.707.902 1.5.902 2.37v.227l-.566.586c-.434-.054-.79-.359-1.059-.902 0-.488-.172-.894-.496-1.219 0-.433.168-.824.496-1.148Zm7.332 0c.324.324.477.715.477 1.148-.325.325-.477.73-.477 1.22-.27.542-.625.847-1.059.901l-.566-.586v-.226c0-.871.285-1.664.883-2.371Zm4.066 0 .743.086c.597.707.882 1.5.882 2.37v.227l-.566.586c-.434-.054-.79-.359-1.059-.902 0-.488-.171-.894-.496-1.219 0-.433.168-.824.496-1.148Zm-24.832.812c.434 0 .805.168 1.133.496.324.325.492.715.492 1.149 0 .434-.168.805-.492 1.129-.328.328-.699.496-1.133.496-.433 0-.824-.168-1.148-.496-.324-.324-.496-.696-.496-1.13 0-.433.172-.823.496-1.148a1.578 1.578 0 0 1 1.148-.496Zm11.399 0c.433 0 .805.168 1.133.496.324.325.492.715.492 1.149 0 .434-.168.805-.492 1.129-.328.328-.7.496-1.133.496-.434 0-.82-.168-1.149-.496a1.53 1.53 0 0 1-.476-1.13c0-.433.152-.823.476-1.148.328-.328.715-.496 1.149-.496Zm11.398 0c.438 0 .809.168 1.133.496.324.325.496.715.496 1.149 0 .434-.172.805-.496 1.129-.324.328-.695.496-1.133.496-.433 0-.82-.168-1.148-.496a1.53 1.53 0 0 1-.477-1.13c0-.433.153-.823.477-1.148.328-.328.715-.496 1.148-.496Zm-22.992.832c-.414.059-.617.336-.617.813 0 .543.27.812.812.812.543 0 .813-.27.813-.812 0-.543-.27-.813-.813-.813-.066 0-.132-.011-.195 0Zm11.402 0c-.418.059-.62.336-.62.813 0 .543.269.812.812.812s.812-.27.812-.812c0-.543-.27-.813-.812-.813-.067 0-.133-.011-.192 0Zm11.399 0c-.418.059-.621.336-.621.813 0 .543.27.812.812.812.543 0 .817-.27.817-.812 0-.543-.274-.813-.817-.813-.066 0-.133-.011-.191 0ZM8.742 52.012l.653.175a1.7 1.7 0 0 0 1.218.883l.32.586v.637l-.726.332c-.867-.16-1.594-.684-2.191-1.555l.16-.812Zm4.719 0 .582.246.16.812c-.598.871-1.34 1.395-2.21 1.555l-.723-.332v-.637l.316-.586c.543-.105.95-.394 1.219-.883Zm6.68 0 .652.175c.273.489.68.778 1.223.883l.336.586v.637l-.743.332c-.87-.16-1.597-.684-2.191-1.555l.156-.812Zm4.718 0 .582.246.16.812c-.597.871-1.34 1.395-2.21 1.555l-.723-.332v-.637l.316-.586c.543-.105.97-.394 1.239-.883Zm6.68 0 .656.175c.27.489.676.778 1.22.883l.335.586v.637l-.742.332c-.871-.16-1.594-.684-2.192-1.555l.157-.812Zm4.738 0 .563.246.16.812c-.598.871-1.32 1.395-2.191 1.555l-.743-.332v-.637l.336-.586c.543-.105.95-.394 1.22-.883Zm0 0" style="stroke:none;fill-rule:nonzero;fill:#000;fill-opacity:1"/><path d="M10.66 36.824c-1.441-.148-2.574-.91-3.183-2.14-.563-1.141-.57-2.586-.016-3.707.445-.907 1.336-1.688 2.297-2.016.465-.16.77-.207 1.344-.207.585 0 .933.055 1.382.219.524.191.899.441 1.395.922.676.656 1.035 1.285 1.195 2.093.176.875.051 1.864-.328 2.625a4.653 4.653 0 0 1-1.246 1.485c-.754.558-1.816.832-2.84.726Zm.168-.785.125-.05v-.66l-.16-.298c-.156-.293-.156-.293-.34-.347-.379-.11-.789-.414-.976-.73-.055-.095-.098-.114-.403-.196l-.344-.09-.28.125c-.153.066-.286.148-.298.176a19.83 19.83 0 0 0-.086.414l-.07.36.09.128c.226.332.66.754.996.984.238.16.582.317.895.399l.23.066.246-.117a9.8 9.8 0 0 1 .375-.164Zm1.79.09c.323-.125.816-.465 1.105-.766.242-.254.476-.57.476-.64 0-.04-.031-.235-.066-.438l-.07-.37-.301-.122-.297-.125-.34.09c-.305.082-.344.101-.402.195-.184.317-.594.621-.977.73-.18.055-.18.055-.34.348-.156.297-.156.297-.156.621v.328l.375.168.371.172.223-.062c.125-.035.3-.09.398-.13Zm-1.2-1.723c.39-.074.848-.402 1.09-.781.375-.594.297-1.375-.195-1.914-.348-.379-.723-.555-1.192-.555-.476.004-.82.149-1.168.496-.332.332-.492.703-.492 1.149 0 .445.172.828.52 1.164.406.387.902.539 1.437.441Zm-3-.91c.168-.098.437-.387.559-.59a.958.958 0 0 0 .12-.398c.036-.317.13-.559.313-.801.113-.148.149-.23.149-.316 0-.286-.168-.696-.395-.957l-.094-.11-.328.04c-.18.019-.36.05-.398.066-.086.035-.473.605-.606.902a3.671 3.671 0 0 0-.304 1.238l-.04.45.31.308.304.309.137-.032c.078-.02.199-.066.273-.109Zm6.352-.918a3.695 3.695 0 0 0-.305-1.246c-.137-.297-.52-.867-.61-.902a2.555 2.555 0 0 0-.394-.067l-.328-.039-.094.11c-.226.261-.398.671-.398.957 0 .086.039.168.152.316.18.242.277.484.312.797.051.476.457.941.946 1.094l.133.039.312-.309.309-.308Zm-3.684-1.793c.14-.004.297.02.46.074.138.043.302.075.368.07.156-.007.488-.171.617-.308.121-.125.278-.406.278-.492 0-.031-.067-.215-.145-.402-.133-.309-.16-.348-.273-.407-.543-.261-2.036-.261-2.579 0-.113.059-.14.098-.273.407a2.675 2.675 0 0 0-.144.402c0 .086.156.367.27.488.128.133.386.274.565.305.11.02.2.004.391-.055.14-.047.34-.082.465-.082ZM22.063 36.824a4.124 4.124 0 0 1-2.032-.75c-1.715-1.23-2.11-3.886-.84-5.644.5-.696 1.356-1.305 2.137-1.524 1.18-.328 2.371-.168 3.309.453.465.309 1.054.91 1.355 1.387.703 1.11.746 2.754.102 3.961a4.356 4.356 0 0 1-1.36 1.5 3.831 3.831 0 0 1-1.816.617c-.418.04-.453.04-.855 0Zm.277-.828c.008 0 .015-.156.015-.348v-.347l-.16-.281c-.152-.278-.16-.282-.34-.333-.3-.09-.55-.242-.765-.472a2.122 2.122 0 0 1-.235-.29c-.027-.062-.097-.093-.375-.167l-.343-.09-.258.11a1.699 1.699 0 0 0-.297.144c-.02.02-.066.215-.11.43l-.07.394.082.121c.27.387.66.766 1.075 1.035.257.168.492.27.836.36l.214.054.36-.16c.199-.086.367-.16.37-.16Zm1.742.102c.41-.176.836-.496 1.188-.903.37-.425.359-.386.265-.867l-.074-.41-.297-.125c-.277-.117-.3-.121-.45-.086-.46.117-.503.137-.593.277-.2.317-.574.586-.973.7-.183.054-.183.054-.34.347-.156.293-.156.293-.156.621v.328l.371.172.372.168.23-.062c.129-.035.336-.11.457-.16h.004Zm-1.262-1.692c.407-.074.895-.441 1.121-.84.262-.457.266-1.05.012-1.527a2.279 2.279 0 0 0-.305-.387c-.351-.355-.668-.496-1.12-.496-.45 0-.77.125-1.106.426-.367.328-.535.715-.535 1.215-.004.484.129.8.476 1.144a1.59 1.59 0 0 0 1.461.465Zm-3.039-.883c.196-.101.383-.28.547-.527.14-.215.164-.273.18-.473.012-.125.05-.312.086-.414.062-.175.27-.53.34-.574.043-.027.035-.242-.02-.453a1.606 1.606 0 0 0-.324-.629l-.11-.125-.363.04c-.418.046-.437.058-.707.468-.34.527-.52 1.066-.578 1.738l-.039.442.309.308.308.313.133-.032c.074-.015.18-.054.238-.082Zm6.399-.824c-.051-.82-.274-1.445-.746-2.082-.157-.21-.145-.203-.59-.254l-.313-.035-.093.11c-.141.16-.282.417-.34.617-.07.238-.07.48 0 .535.191.16.41.66.41.945 0 .133.023.211.117.363.215.36.492.598.8.692l.16.047.31-.305.304-.3Zm-3.676-1.914c.156 0 .312.027.48.082.223.07.266.074.414.043.348-.082.602-.285.762-.61l.09-.175-.176-.383c-.199-.437-.199-.433-.726-.547-.633-.136-1.75-.07-2.141.13-.105.05-.14.1-.266.402a2.695 2.695 0 0 0-.144.398c.004.2.285.563.539.691.262.13.398.141.687.051.16-.05.329-.078.48-.082ZM33.441 36.82a4.082 4.082 0 0 1-2.02-.75 3.108 3.108 0 0 1-.788-.793c-.5-.695-.746-1.425-.778-2.328-.05-1.426.547-2.648 1.696-3.465.722-.515 1.418-.73 2.355-.73.758 0 1.23.113 1.832.433.684.364 1.39 1.07 1.774 1.77.531.977.582 2.398.117 3.461a4.236 4.236 0 0 1-1.508 1.797c-.516.344-1.113.547-1.8.61-.423.038-.45.038-.88-.005Zm.192-.78.125-.052v-.691l-.153-.258c-.171-.3-.18-.309-.378-.367a2.205 2.205 0 0 1-.317-.125c-.191-.098-.543-.422-.629-.586-.058-.106-.086-.121-.402-.203l-.344-.09-.254.11a2.607 2.607 0 0 0-.293.136c-.02.016-.07.211-.113.438l-.078.414.11.14c.59.758 1.214 1.203 1.921 1.367.18.043.188.043.43-.07.137-.062.304-.137.375-.164Zm1.582.167c.613-.2 1.16-.613 1.64-1.238.083-.106.149-.211.149-.239 0-.023-.031-.214-.07-.425l-.07-.387-.298-.125-.293-.125-.191.05c-.102.028-.25.071-.328.09-.113.028-.16.067-.227.172-.199.313-.515.547-.91.68-.21.07-.215.074-.387.348l-.171.277v.348l-.004.347.375.172c.406.184.39.184.785.055Zm-.938-1.816c.282-.067.524-.211.766-.453.434-.434.586-.946.453-1.52-.129-.531-.621-1.05-1.152-1.211-.219-.062-.66-.062-.88.004-.187.05-.5.227-.636.352-.707.64-.746 1.703-.086 2.363.442.441.965.597 1.535.465Zm-3.09-.88c.196-.097.446-.343.59-.59a.893.893 0 0 0 .133-.405c.035-.387.106-.547.438-1.012.05-.07-.04-.504-.149-.727a1.864 1.864 0 0 0-.207-.324l-.11-.125-.347.035c-.191.024-.379.059-.414.082-.105.063-.402.516-.55.825a3.36 3.36 0 0 0-.317 1.34l-.02.44.29.294c.324.328.331.328.663.168Zm6.38-.765c0-.742-.22-1.418-.66-2.047-.094-.133-.204-.254-.243-.27a2.81 2.81 0 0 0-.406-.066l-.332-.035-.09.11c-.23.269-.39.652-.39.925 0 .137.019.184.136.332.2.25.328.594.328.875 0 .235.328.696.633.89.066.044.195.102.281.13l.164.047.578-.57Zm-3.68-1.96c.148-.005.304.023.484.077.234.075.281.082.43.047.347-.082.59-.277.761-.613l.086-.172-.175-.383c-.172-.375-.176-.383-.332-.441-.403-.153-1.094-.223-1.641-.168-.336.035-.918.172-.977.23a4.407 4.407 0 0 0-.187.39l-.164.372.074.164c.152.328.465.574.793.633.102.02.2.004.387-.055.144-.047.336-.082.46-.082Zm0 0" style="stroke:none;fill-rule:nonzero;fill:#c00;fill-opacity:1"/><path d="M11.11 26.672c-1.684 0-3.118.586-4.313 1.781-1.195 1.195-1.781 2.676-1.781 4.36 0 1.683.586 3.117 1.78 4.312 1.196 1.195 2.63 1.781 4.313 1.781a6.102 6.102 0 0 0 3.516-1.078c1.031-.762 1.723-1.672 2.156-2.812.434 1.14 1.219 2.05 2.25 2.812a5.956 5.956 0 0 0 3.469 1.078 6.102 6.102 0 0 0 3.516-1.078c1.03-.762 1.77-1.672 2.203-2.812.433 1.14 1.172 2.05 2.203 2.812a5.956 5.956 0 0 0 3.469 1.078c1.683 0 3.117-.586 4.312-1.781 1.195-1.195 1.781-2.629 1.781-4.313 0-1.683-.586-3.164-1.78-4.359-1.196-1.195-2.63-1.781-4.313-1.781-1.305 0-2.438.41-3.47 1.172-1.03.707-1.769 1.625-2.202 2.765-.434-1.14-1.172-2.058-2.203-2.765-1.032-.762-2.211-1.172-3.516-1.172-1.305 0-2.438.41-3.469 1.172-1.031.707-1.816 1.625-2.25 2.765-.433-1.14-1.125-2.058-2.156-2.765-1.031-.762-2.21-1.172-3.516-1.172Zm0 1.219c1.355 0 2.5.523 3.421 1.5.977.922 1.453 2.066 1.453 3.422 0 1.355-.476 2.492-1.453 3.468-.922.922-2.066 1.407-3.422 1.407-1.355 0-2.539-.485-3.515-1.407-.922-.976-1.36-2.113-1.36-3.468 0-1.356.438-2.5 1.36-3.422.976-.977 2.16-1.5 3.515-1.5Zm11.39 0c1.355 0 2.5.523 3.422 1.5.976.922 1.453 2.066 1.453 3.422 0 1.355-.477 2.492-1.453 3.468-.922.922-2.067 1.407-3.422 1.407s-2.492-.485-3.469-1.407c-.922-.976-1.406-2.113-1.406-3.468 0-1.356.484-2.5 1.406-3.422.977-.977 2.114-1.5 3.469-1.5Zm11.39 0c1.356 0 2.5.523 3.422 1.5.977.922 1.454 2.066 1.454 3.422 0 1.355-.477 2.492-1.453 3.468-.922.922-2.067 1.407-3.422 1.407-1.356 0-2.493-.485-3.47-1.407-.921-.976-1.405-2.113-1.405-3.468 0-1.356.484-2.5 1.406-3.422.976-.977 2.113-1.5 3.469-1.5ZM11.11 8.36c-1.684 0-3.137.59-4.329 1.785-1.195 1.195-1.785 2.648-1.785 4.328 0 1.683.59 3.12 1.785 4.312 1.192 1.195 2.645 1.785 4.328 1.785 1.305 0 2.47-.351 3.5-1.058 1.032-.762 1.758-1.707 2.192-2.848.433 1.14 1.176 2.086 2.207 2.848 1.035.707 2.199 1.058 3.5 1.058 1.305 0 2.469-.351 3.5-1.058 1.031-.762 1.758-1.707 2.191-2.848.434 1.14 1.18 2.086 2.211 2.848 1.031.707 2.195 1.058 3.496 1.058 1.684 0 3.121-.59 4.313-1.785 1.195-1.191 1.785-2.629 1.785-4.312 0-1.68-.59-3.133-1.785-4.328-1.192-1.196-2.63-1.786-4.313-1.786-1.3 0-2.465.391-3.496 1.149-1.031.707-1.777 1.617-2.21 2.758-.434-1.141-1.16-2.051-2.192-2.758a5.767 5.767 0 0 0-3.5-1.149c-1.301 0-2.465.391-3.5 1.149-1.031.707-1.774 1.617-2.207 2.758-.434-1.141-1.16-2.051-2.192-2.758a5.767 5.767 0 0 0-3.5-1.149Zm0 1.218c1.359 0 2.488.492 3.41 1.469.976.922 1.468 2.07 1.468 3.426 0 1.359-.492 2.523-1.468 3.5-.922.922-2.051 1.379-3.41 1.379-1.356 0-2.54-.457-3.516-1.38-.922-.976-1.38-2.14-1.38-3.5 0-1.355.458-2.503 1.38-3.425.976-.977 2.16-1.469 3.515-1.469Zm11.398 0c1.36 0 2.488.492 3.41 1.469.98.922 1.469 2.07 1.469 3.426 0 1.359-.489 2.523-1.469 3.5-.922.922-2.05 1.379-3.41 1.379-1.356 0-2.52-.457-3.5-1.38-.922-.976-1.395-2.14-1.395-3.5 0-1.355.473-2.503 1.395-3.425.98-.977 2.144-1.469 3.5-1.469Zm11.398 0c1.36 0 2.489.492 3.414 1.469.977.922 1.465 2.07 1.465 3.426 0 1.359-.488 2.523-1.465 3.5-.925.922-2.054 1.379-3.414 1.379-1.355 0-2.52-.457-3.496-1.38-.926-.976-1.398-2.14-1.398-3.5 0-1.355.472-2.503 1.398-3.425.977-.977 2.14-1.469 3.496-1.469Zm-22.797.813c-1.14 0-2.117.406-2.933 1.218-.758.762-1.149 1.727-1.149 2.864 0 1.14.391 2.12 1.149 2.933.816.762 1.793 1.133 2.933 1.133 1.141 0 2.086-.371 2.848-1.133.813-.812 1.219-1.793 1.219-2.933 0-1.137-.406-2.102-1.219-2.864-.762-.812-1.707-1.218-2.848-1.218Zm11.399 0c-1.14 0-2.117.406-2.934 1.218-.758.762-1.148 1.727-1.148 2.864 0 1.14.39 2.12 1.148 2.933.817.762 1.793 1.133 2.934 1.133 1.14 0 2.086-.371 2.847-1.133.813-.812 1.22-1.793 1.22-2.933 0-1.137-.407-2.102-1.22-2.864-.761-.812-1.707-1.218-2.847-1.218Zm11.398 0c-1.136 0-2.117.406-2.933 1.218-.758.762-1.149 1.727-1.149 2.864 0 1.14.39 2.12 1.149 2.933.816.762 1.797 1.133 2.933 1.133 1.14 0 2.086-.371 2.848-1.133.812-.812 1.219-1.793 1.219-2.933 0-1.137-.407-2.102-1.22-2.864-.76-.812-1.706-1.218-2.847-1.218Zm-22.797.406c.543 0 1 .086 1.38.25l.316.742c-.16.488-.48.758-.97.813-.327-.11-.562-.176-.726-.176-.164 0-.414.066-.742.176-.488-.055-.808-.325-.972-.813l.32-.742c.379-.164.851-.25 1.394-.25Zm11.399 0c.543 0 1 .086 1.379.25l.336.742c-.164.488-.5.758-.989.813-.328-.11-.562-.176-.726-.176-.16 0-.414.066-.742.176-.489-.055-.809-.325-.973-.813l.32-.742c.38-.164.852-.25 1.395-.25Zm11.398 0c.543 0 1 .086 1.38.25l.335.742c-.16.488-.5.758-.988.813-.328-.11-.563-.176-.727-.176-.16 0-.414.066-.742.176-.488-.055-.809-.325-.969-.813l.336-.742c.38-.164.832-.25 1.375-.25ZM9.06 12.02c.328.324.496.71.496 1.148-.325.324-.496.73-.496 1.219-.27.543-.606.847-1.043.902l-.582-.586v-.23c0-.868.304-1.66.902-2.368Zm4.082 0 .726.085c.598.707.903 1.5.903 2.368v.23l-.567.586c-.433-.055-.789-.36-1.062-.902 0-.489-.168-.895-.493-1.219 0-.438.168-.824.493-1.148Zm7.336 0c.324.324.476.71.476 1.148-.324.324-.476.73-.476 1.219-.274.543-.625.847-1.059.902l-.586-.586v-.23c0-.868.305-1.66.902-2.368Zm4.066 0 .723.085c.597.707.902 1.5.902 2.368v.23l-.566.586c-.434-.055-.79-.36-1.059-.902 0-.489-.172-.895-.496-1.219 0-.438.168-.824.496-1.148Zm7.332 0c.324.324.477.71.477 1.148-.325.324-.477.73-.477 1.219-.27.543-.625.847-1.059.902l-.566-.586v-.23c0-.868.285-1.66.883-2.368Zm4.066 0 .743.085c.597.707.882 1.5.882 2.368v.23L37 15.29c-.434-.055-.79-.36-1.059-.902 0-.489-.171-.895-.496-1.219 0-.438.168-.824.496-1.148Zm-24.832.812c.434 0 .805.168 1.133.492.324.328.492.715.492 1.149 0 .437-.168.808-.492 1.132-.328.325-.699.497-1.133.497-.433 0-.824-.172-1.148-.497-.324-.324-.496-.695-.496-1.132 0-.434.172-.82.496-1.149a1.59 1.59 0 0 1 1.148-.492Zm11.399 0c.433 0 .805.168 1.133.492.324.328.492.715.492 1.149 0 .437-.168.808-.492 1.132-.328.325-.7.497-1.133.497-.434 0-.82-.172-1.149-.497a1.533 1.533 0 0 1-.476-1.132c0-.434.152-.82.476-1.149.328-.324.715-.492 1.149-.492Zm11.398 0c.438 0 .809.168 1.133.492.324.328.496.715.496 1.149 0 .437-.172.808-.496 1.132-.324.325-.695.497-1.133.497-.433 0-.82-.172-1.148-.497a1.533 1.533 0 0 1-.477-1.132c0-.434.153-.82.477-1.149.328-.324.715-.492 1.148-.492Zm-22.992.828c-.414.063-.617.34-.617.813 0 .543.27.816.812.816.543 0 .813-.273.813-.816 0-.543-.27-.813-.813-.813-.066 0-.132-.008-.195 0Zm11.402 0c-.418.063-.62.34-.62.813 0 .543.269.816.812.816s.812-.273.812-.816c0-.543-.27-.813-.812-.813-.067 0-.133-.008-.192 0Zm11.399 0c-.418.063-.621.34-.621.813 0 .543.27.816.812.816.543 0 .817-.273.817-.816 0-.543-.274-.813-.817-.813-.066 0-.133-.008-.191 0Zm-24.973 1.7.653.175a1.71 1.71 0 0 0 1.218.883l.32.582v.637l-.726.336c-.867-.16-1.594-.688-2.191-1.555l.16-.813Zm4.719 0 .582.245.16.813c-.598.867-1.34 1.395-2.21 1.555l-.723-.336V17l.316-.582c.543-.11.95-.395 1.219-.883Zm6.68 0 .652.175c.273.488.68.774 1.223.883l.336.582v.637l-.743.336c-.87-.16-1.597-.688-2.191-1.555l.156-.813Zm4.718 0 .582.245.16.813c-.597.867-1.34 1.395-2.21 1.555l-.723-.336V17l.316-.582c.543-.11.97-.395 1.239-.883Zm6.68 0 .656.175c.27.488.676.774 1.22.883l.335.582v.637l-.742.336c-.871-.16-1.594-.688-2.192-1.555l.157-.813Zm4.738 0 .563.245.16.813c-.598.867-1.32 1.395-2.191 1.555l-.743-.336V17l.336-.582c.543-.11.95-.395 1.22-.883Zm0 0" style="stroke:none;fill-rule:nonzero;fill:#000;fill-opacity:1"/></svg>