<svg xmlns="http://www.w3.org/2000/svg" width="px" height="66px" viewBox="0 0 45 66"><path d="M-501.415 422.864h67.747a5.403 5.403 0 0 1 5.408 5.409V532.42a5.408 5.408 0 0 1-5.408 5.409h-67.747a5.408 5.408 0 0 1-5.408-5.409V428.273a5.403 5.403 0 0 1 5.408-5.409Zm0 0" style="fill-rule:nonzero;fill:#fff;fill-opacity:1;stroke-width:1.009;stroke-linecap:butt;stroke-linejoin:miter;stroke:#000;stroke-opacity:1;stroke-miterlimit:4" transform="translate(286.909 -238.857) scale(.56553)"/><path d="M23.43 36.941c-.926 0-1.7.254-2.352.743-.652.433-1.14.89-1.469 1.379-.324.488-.543.722-.652.722-.11 0-.379-.27-.812-.812-.434-.598-.926-.883-1.47-.883-.323 0-.491.05-.491.16 0 .055.168.102.492.156.328.055.633.242.902.567.324.273.477.746.477 1.398 0 .488-.153 1.211-.477 2.191-.27.977-.406 1.735-.406 2.278 0 1.305.422 1.96 1.289 1.96.488 0 1.098-.472 1.805-1.394.757-.922 1.398-1.379 1.941-1.379.438 0 .875.188 1.309.567.488.324.742.68.742 1.058 0 1.196-.438 1.805-1.309 1.805h-.492a2.405 2.405 0 0 0-.566-.09c-.598 0-1.356.188-2.282.567-.922.324-1.582.496-1.96.496-1.141 0-1.696-.93-1.696-2.778v-1.308c.055-.703.07-1.196.07-1.465 0-.598-.085-1.137-.246-1.625-.109-.543-.246-.914-.41-1.133-.16-.215-.297-.336-.406-.336-.106 0-.156.137-.156.406 0 .055.05.192.156.407.164.164.25.28.25.336 0 .164-.102.25-.32.25-.055 0-.356-.086-.899-.25-.543-.16-1.035-.246-1.469-.246-1.52 0-3.039.843-4.558 2.527-1.52 1.629-2.281 3.586-2.281 5.867 0 .434.05.754.16.973 2.441-.922 5.261-1.38 8.465-1.38.379 0 1.004.067 1.875.231.867.11 1.441.176 1.71.176.493 0 1.149-.168 1.965-.496.813-.324 1.352-.492 1.625-.492.38 0 1.004.082 1.871.246.872.164 1.512.246 1.946.246.324 0 .949-.031 1.875-.086.922-.055 2.34-.07 4.238-.07 1.195 0 2.75.148 4.648.476 1.903.324 2.899.492 3.004.492l.25-1.375c0-2.5-.894-4.593-2.687-6.277-1.793-1.68-3.496-2.527-5.125-2.527-1.195 0-2.207.136-3.024.41l-1.218.332c-.055 0-.426-.488-1.13-1.465-.706-1.031-1.62-1.555-2.702-1.555Zm-.41.336c.328 0 .496.133.496.407 0 .27-.168.406-.496.406-.38 0-.563-.137-.563-.406 0-.274.184-.407.563-.407Zm1.398.23c.434 0 .652.169.652.493 0 .383-.254.566-.742.566-.324 0-.492-.132-.492-.406 0-.433.203-.652.582-.652Zm-2.617.177c.328 0 .496.183.496.566a.55.55 0 0 1-.16.406.364.364 0 0 1-.336 0c-.434 0-.653-.172-.653-.496s.22-.476.653-.476Zm1.219.812c.382 0 .585.152.585.477 0 .433-.253.656-.742.656-.328 0-.476-.152-.476-.48 0-.434.199-.653.633-.653Zm2.457.07c.273 0 .406.137.406.407 0 .328-.168.496-.492.496-.274 0-.407-.168-.407-.496 0-.27.168-.407.493-.407Zm-4.735.16c.324 0 .496.118.496.337 0 .542-.273.812-.816.812-.324 0-.492-.137-.492-.406 0-.489.27-.742.812-.742Zm3.43.653c.488 0 .723.168.723.496 0 .164-.067.332-.23.496a.695.695 0 0 1-.493.227c-.438 0-.656-.149-.656-.477 0-.16.086-.332.246-.492.164-.164.3-.25.41-.25Zm-2.371.176c.383 0 .586.187.586.566 0 .379-.203.566-.586.566-.38 0-.563-.187-.563-.566 0-.379.184-.566.563-.566Zm4.082.406c.328 0 .48.102.48.32 0 .11-.101.328-.32.653-.164.273-.246.441-.246.496 0 .218.117.316.336.316l.637-.406c.378-.27.851-.54 1.394-.813.598-.324 1.086-.492 1.469-.492.215 0 .316.05.316.156 0 .164-.457.504-1.379.993-.867.433-1.308.754-1.308.968 0 .11.05.16.16.16.219 0 .707-.183 1.469-.566.757-.434 1.23-.652 1.394-.652.219 0 .317.086.317.246 0 .11-.524.414-1.555.902-.977.434-1.465.723-1.465.883 0 .055.082.09.246.09.11 0 .547-.137 1.309-.406.812-.329 1.386-.496 1.715-.496.27 0 .406.085.406.25 0 .05-.035.136-.09.246-.055.054-.188.105-.406.16-.164.05-.348.101-.567.156-.16.055-.433.176-.812.336-.38.11-.735.21-1.059.32-.11.055-.226.137-.336.246-.383.274-.398.407-.07.407.16 0 .734-.133 1.715-.407 1.031-.324 1.722-.496 2.101-.496.325 0 .496.086.496.25 0 .27-.304.438-.902.492-2.496.383-3.746.754-3.746 1.133 0 .11.082.176.246.176.274 0 .945-.133 2.031-.406 1.141-.27 1.985-.422 2.528-.422.543 0 .812.152.812.422 0 .273-.285.406-.883.406-.597 0-1.609.152-3.02.477-1.413.273-2.12.543-2.12.812 0 .055.117.09.336.09.27 0 1.031-.117 2.277-.336 1.25-.215 2.18-.316 2.777-.316 1.032 0 1.536.218 1.536.652 0 .219-.372.32-1.13.32-1.413 0-2.964.133-4.648.407-1.629.214-2.61.335-2.933.335-.328 0-.7-.05-1.133-.16.488-.488.726-1.148.726-1.96 0-.872-.39-1.528-1.148-1.965-.707-.489-1.043-.758-1.043-.813 0-.16.422-.719 1.289-1.695.867-.977 1.477-1.47 1.8-1.47Zm7.16.32c.434 0 .652.102.652.317 0 .382-.707.586-2.12.586-.216 0-.317-.121-.317-.336 0-.11.219-.211.652-.32.488-.16.86-.247 1.133-.247Zm-10.094.16c.438 0 .656.254.656.743 0 .379-.218.562-.656.562-.105 0-.277-.047-.492-.156-.164-.164-.215-.332-.16-.496 0-.434.219-.653.652-.653Zm-2.367.157c.379 0 .566.203.566.586 0 .433-.187.652-.566.652-.434 0-.652-.203-.652-.582 0-.434.218-.656.652-.656Zm-6.344.832c.758 0 1.13.183 1.13.566 0 .11-.083.156-.247.156-.164 0-.434-.047-.812-.156-.38-.11-.567-.246-.567-.406 0-.11.172-.16.496-.16Zm-2.773.07c.812 0 1.219.168 1.219.496 0 .16-.153.246-.477.246-1.031 0-1.559-.133-1.559-.406 0-.219.274-.336.817-.336Zm22.973.09c.542 0 .812.148.812.476 0 .215-.168.336-.492.336-.11 0-.38.016-.817.07h-.898c-.328 0-.477-.066-.477-.23 0-.433.621-.652 1.871-.652Zm-12.477.07c.379 0 .582.219.582.653 0 .378-.219.566-.652.566-.434 0-.653-.203-.653-.637 0-.379.235-.582.723-.582Zm-2.438.246c.38 0 .582.219.582.657 0 .105-.085.277-.246.492-.109.218-.23.32-.336.32-.652 0-.972-.223-.972-.656 0-.543.32-.813.972-.813Zm-6.082.336c.063-.012.133 0 .215 0 .38 0 .766.102 1.149.32.433.215.652.383.652.493 0 .11-.05.16-.16.16-.27 0-.711-.086-1.305-.246-.543-.164-.816-.332-.816-.496 0-.121.082-.2.265-.23Zm-3.039.406c.922 0 1.38.22 1.38.657 0 .16-.184.226-.567.226-1.192 0-1.785-.148-1.785-.476 0-.27.32-.407.972-.407Zm10.34.23c.38 0 .582.169.582.497 0 .488-.203.742-.582.742-.379 0-.566-.203-.566-.586 0-.105.05-.242.16-.406.16-.16.297-.246.406-.246Zm-7.492.427c.324 0 .664.047.988.156.325.11.563.21.723.32.164.11.25.227.25.336 0 .055-.102.07-.32.07-.106 0-.532-.05-1.235-.16-.707-.164-1.043-.261-1.043-.316 0-.273.2-.406.637-.406Zm21.914 0c.867 0 1.305.148 1.305.476 0 .16-.254.246-.742.246-1.41 0-2.122-.101-2.122-.316 0-.273.528-.406 1.56-.406Zm-16.773.226c.379 0 .566.172.566.496 0 .22-.137.489-.406.813-.219.273-.387.406-.496.406-.215 0-.317-.168-.317-.492 0-.816.219-1.223.653-1.223Zm-8.711.586c.867 0 1.289.149 1.289.477 0 .27-.422.406-1.29.406-.98 0-1.468-.137-1.468-.406 0-.328.488-.477 1.469-.477Zm10 .317c.164 0 .25.136.25.406 0 .219-.153.488-.477.812-.273.328-.492.496-.656.496-.215 0-.336-.117-.336-.336 0-.218.137-.488.406-.812.328-.379.598-.566.813-.566Zm-6.66.09c1.464 0 2.19.218 2.19.652 0 .11-.237.16-.726.16-1.683 0-2.527-.137-2.527-.406 0-.274.355-.407 1.063-.407Zm22.55.316c1.41 0 2.121.254 2.121.742 0 .219-.171.32-.496.32-.218 0-.722-.05-1.539-.16-.758-.164-1.148-.332-1.148-.496-.055-.16-.004-.262.16-.316.164-.055.465-.09.902-.09Zm-26.297.972c.649 0 .97.137.97.407 0 .11-.27.242-.813.406-.489.164-.926.246-1.305.246-.543 0-.816-.098-.816-.316 0-.489.66-.742 1.964-.742Zm2.844 0c2.117 0 3.18.22 3.18.653 0 .164-.336.215-.988.16a8.605 8.605 0 0 0-1.22-.07h-1.538a1.482 1.482 0 0 0-.336-.09c-.055-.05-.07-.137-.07-.246 0-.27.32-.407.972-.407Zm23.7.903c.488 0 .945.05 1.378.156.543.11.813.379.813.816 0 .215-.137.301-.406.247-1.684-.164-2.528-.485-2.528-.973 0-.164.254-.246.742-.246Zm-20.766.652c.379 0 .566.102.566.32 0 .215-.355.336-1.062.336-.325 0-.782.016-1.38.07h-1.218c-.703 0-1.059-.1-1.059-.32 0-.27 1.383-.406 4.153-.406Zm-6.028.246c.653 0 .973.102.973.32 0 .165-.406.383-1.219.653-.816.219-1.355.32-1.625.32-.218 0-.336-.101-.336-.32 0-.106.067-.242.176-.406.164-.16.399-.297.723-.407.383-.109.82-.16 1.308-.16Zm0 0" style="stroke:none;fill-rule:nonzero;fill:#080;fill-opacity:1"/><path d="M25.063 32.137c.492 0 .734.218.734.652 0 .652-.27.977-.813.977-.488 0-.734-.297-.734-.895 0-.488.27-.734.813-.734M19.04 32.547c0-.543.269-.817.812-.817s.816.301.816.895c0 .438-.246.652-.734.652-.598 0-.895-.242-.895-.73M30.36 30.508c0 .164-.083.328-.247.488-.164.164-.297.246-.406.246-.543 0-.816-.191-.816-.57 0-.598.246-.895.734-.895s.734.243.734.73M15.781 26.926c.543 0 .813.324.813.976 0 .434-.297.653-.895.653-.543 0-.812-.22-.812-.653 0-.652.297-.976.894-.976M21.969 27.66c0 .434-.242.652-.73.649-.598.003-.9-.215-.9-.649 0-.598.274-.898.817-.898.543 0 .813.3.813.898M25.715 27.09c0-.598.273-.899.816-.899.543 0 .813.329.813.98 0 .49-.297.731-.895.731-.488 0-.734-.27-.734-.812M31.824 27.25c-.652 0-.976-.242-.976-.73a.77.77 0 0 1 .324-.653c.219-.219.433-.324.652-.324.434 0 .653.297.653.895 0 .542-.22.812-.653.812M23.762 22.04c.597 0 .894.273.894.815 0 .543-.297.813-.894.813-.598 0-.895-.27-.895-.813 0-.543.297-.816.895-.816M16.594 22.61c0-.215.11-.434.328-.653.215-.215.433-.324.648-.324.22 0 .41.11.57.324.22.219.329.438.329.652 0 .489-.328.735-.977.735-.597 0-.898-.246-.898-.735M29.543 21.879c0-.598.273-.899.816-.899.489 0 .73.274.73.817 0 .543-.296.812-.894.812-.433 0-.652-.242-.652-.73M21.645 19.027c-.598 0-.895-.273-.895-.816 0-.543.352-.813 1.059-.813.488 0 .73.243.73.735 0 .594-.297.894-.894.894M27.102 19.027c-.489 0-.735-.246-.735-.734 0-.598.274-.895.817-.895.539 0 .812.243.812.735 0 .594-.297.894-.894.894" style="stroke:none;fill-rule:nonzero;fill:#000;fill-opacity:1"/><path d="M20.586 55.43c0 .16-.11.242-.328.242-.106 0-.27-.055-.488-.16-.16-.164-.297-.219-.407-.164-.054 0-.543.324-1.465.976-.921.598-1.52.895-1.793.895-.16 0-.242-.078-.242-.242 0-.055.242-.329.73-.817.544-.488.817-.758.817-.812 0-.055-.055-.082-.164-.082-.324 0-.734.054-1.223.164a12.66 12.66 0 0 1-.73.082c-.164 0-.246-.055-.246-.164 0-.38 1.004-.68 3.015-.895.38-.055.622-.191.731-.41.11-.215.164-.785.164-1.707 0-.383-.055-.762-.164-1.14-.055-.434-.082-.68-.082-.735 0-.11.082-.164.246-.164.598 0 1.031.219 1.3.652.055.11.083.328.083.653 0 1.14-.133 2.117-.406 2.93.433.327.652.624.652.898M24.738 53.395c0 .757.055 1.273.164 1.546.16.215.489.38.977.489.543.054 1.004.187 1.383.406 0 .055.027.11.082.164.11.055.164.11.164.16 0 .11-.137.164-.406.164-.11 0-.516-.054-1.223-.164-.652-.105-1.086-.16-1.305-.16-.054 0-.351.215-.894.648-.489.383-.867.57-1.14.57-.11 0-.165-.077-.161-.241-.004-.055.105-.192.324-.407.434-.543.57-.816.406-.816-.054 0-.406.137-1.058.406-.598.274-1.004.41-1.223.41-.16 0-.242-.054-.242-.164 0-.164.488-.543 1.465-1.14.976-.653 1.465-1.383 1.465-2.2 0-.214-.028-.46-.078-.73 0-.328-.028-.652-.083-.98a6.633 6.633 0 0 1-.082-.895c-.054-.164 0-.242.165-.242h.078c.925 0 1.386.27 1.386.812 0 .219-.027.625-.082 1.223-.054.543-.082.922-.082 1.14" style="stroke:none;fill-rule:nonzero;fill:#c00;fill-opacity:1"/><path d="M17.082 40.445c0 .164-.078.242-.242.242-.164 0-.352-.16-.57-.488-.22-.324-.325-.597-.325-.812 0-.11.051-.164.16-.164.22 0 .434.164.653.488.219.273.324.516.324.734" style="stroke:none;fill-rule:nonzero;fill:#080;fill-opacity:1"/><path d="M33.047 38.246c-.164 0-.246-.027-.246-.082 0-.055.164-.164.488-.324.379-.219.844-.41 1.387-.57.539-.165 1.004-.247 1.383-.247.488 0 .812.164.976.489.055.11.028.191-.082.246h-.73a17.18 17.18 0 0 0-1.711.242c-.489.055-.844.11-1.059.164a2.533 2.533 0 0 1-.406.082M10.977 38c-.434 0-1.196-.105-2.282-.324-1.03-.274-1.547-.543-1.547-.813 0-.11.297-.164.895-.164.273 0 .652.11 1.14.324a6.938 6.938 0 0 1 1.387.57c.38.165.57.274.57.329 0 .05-.054.078-.163.078" style="stroke:none;fill-rule:nonzero;fill:#000;fill-opacity:1"/><path d="M13.094 35.965c0-.055.054-.082.164-.082.16 0 .594.355 1.3 1.058.708.707 1.06 1.25 1.06 1.63 0 .382-.165.57-.49.57-.433 0-.976-.133-1.628-.407-.652-.27-.977-.488-.977-.652 0-.055.082-.082.243-.082.164 0 .437.055.816.164.434.11.68.164.734.164.106 0 .16-.055.16-.164 0-.219-.242-.598-.73-1.14-.437-.598-.652-.95-.652-1.06" style="stroke:none;fill-rule:nonzero;fill:#c00;fill-opacity:1"/><path d="M31.336 37.352c0-.055.297-.301.894-.735.653-.488 1.41-.949 2.282-1.383.922-.492 1.629-.734 2.117-.734s.73.082.73.242c0 .164-1.816 1.008-5.453 2.528-.437.214-.625.242-.57.082M12.36 36.7c0 .109-.055.163-.16.163-.22 0-.981-.543-2.282-1.629-.434-.328-.977-.625-1.629-.898a17.886 17.886 0 0 0-1.465-.73c-.383-.165-.57-.274-.57-.329 0-.109.215-.16.648-.16.871.051 1.739.352 2.61.895.922.543 1.629 1.086 2.117 1.629.488.488.73.84.73 1.058M28.484 37.43c1.52-1.68 3.094-3.04 4.723-4.07 1.629-1.032 2.879-1.547 3.746-1.547.328 0 .488.109.488.324 0 .11-.054.191-.16.246-.273.215-.843.543-1.71.976-.872.38-1.438.653-1.712.817a88.374 88.374 0 0 0-3.011 2.035c-.871.652-1.496 1.113-1.875 1.383-.325.218-.543.328-.653.328-.215 0-.16-.164.164-.492M7.395 29.777c.324 0 .867.137 1.625.407.761.27 1.71.84 2.851 1.71a9.654 9.654 0 0 1 2.852 3.258c.214.543.324.84.324.895 0 .164-.055.246-.16.246l-.899-.898c-3.039-2.985-5.265-4.75-6.675-5.293-.165-.055-.247-.137-.247-.243 0-.054.11-.082.329-.082M19.77 8.363c-.165 0-.247.422-.247 1.29 0 .492.082 1.452.247 2.863.218 1.414.335 2.222.335 2.441 0 .543-.085.813-.246.813-.109 0-.379-1.149-.812-3.43-.438-2.336-.86-3.5-1.238-3.5-.11 0-.16.27-.16.812 0 1.086.253 2.473.742 4.157.488 1.629.726 2.554.726 2.773 0 .27-.101.406-.32.406-.164 0-.567-1.25-1.219-3.746-.598-2.55-1.004-3.816-1.219-3.816-.164 0-.25.148-.25.476 0 .758.325 2.313.973 4.649.707 2.277 1.063 3.445 1.063 3.496-.11.164-.329.031-.657-.406l-1.129-2.368c-.707-1.574-1.129-2.351-1.238-2.351-.164 0-.23.086-.23.25 0 .215.32 1.043.972 2.508.653 1.465.973 2.312.973 2.527 0 .219-.05.336-.16.336-.055 0-.457-.793-1.219-2.367-.758-1.63-1.215-2.438-1.379-2.438-.11 0-.176.098-.176.317 0 .324.305 1.035.903 2.12.597 1.087.898 1.677.898 1.786 0 .11-.066.176-.176.176-.164 0-.754-.88-1.785-2.617-1.031-1.735-1.656-2.598-1.87-2.598-.165 0-.25.086-.25.25 0 .27.624 1.316 1.874 3.164 1.3 1.789 1.961 2.805 1.961 3.02 0 .054-.05.07-.16.07-.215 0-1.043-1.028-2.453-3.09-1.414-2.066-2.172-3.094-2.281-3.094-.165 0-.231.082-.231.246 0 .598.691 1.848 2.102 3.746 1.468 1.903 2.21 2.93 2.21 3.094 0 .11-.05.16-.16.16-.379 0-1.39-1.215-3.02-3.66-1.573-2.441-2.437-3.656-2.597-3.656-.164 0-.25.066-.25.23 0 .758 1.113 2.668 3.34 5.707.164.164.398.434.727.813.324.379.593.7.812.973.27.27.406.472.406.582 0 .054-.05.07-.16.07-.324 0-1.086-.758-2.277-2.277-1.195-1.524-1.856-2.282-1.965-2.282-.379 0-.395.27-.07.813.218.324.675.949 1.379 1.875.761.867 1.437 1.71 2.035 2.527.648.758.988 1.215.988 1.379 0 .105-.086.176-.246.176-.274 0-1.016-.762-2.211-2.281-1.195-1.575-1.871-2.368-2.031-2.368-.055 0-.07.051-.07.16 0 .594.64 1.626 1.94 3.09 1.306 1.47 1.962 2.227 1.962 2.282l-.086.175c-.38 0-1.14-.625-2.281-1.87-1.086-1.305-1.676-1.966-1.786-1.966-.109 0-.156.086-.156.25 0 .38.59 1.239 1.781 2.598 1.196 1.356 1.786 2.102 1.786 2.207 0 .11-.047.16-.157.16-.328 0-1-.539-2.035-1.625-.976-1.14-1.515-1.715-1.625-1.715-.055 0-.105.051-.16.16v.407c.055.16.156.348.32.566a9.076 9.076 0 0 0 1.38 1.555c.542.488.98.875 1.308 1.148.379.27.562.457.562.567 0 .16-.05.246-.156.246-.328 0-1.004-.473-2.035-1.399-1.031-.976-1.606-1.464-1.711-1.464-.164 0-.25.117-.25.336 0 .27.523.914 1.555 1.945 1.03 1.031 2.062 1.875 3.093 2.527.38.215.872.434 1.47.653.648.218 1.155.402 1.534.566.434.16.657.332.657.492 0 .11-.07.16-.23.16-.22 0-.778-.152-1.645-.476-.813-.324-1.305-.496-1.465-.496-.164 0-.23.086-.23.25 0 .433 1.113.84 3.34 1.218.378 0 .566.153.566.477 0 .055-.137.09-.41.09l-.743-.25c-.488-.11-.84-.156-1.058-.156-.164 0-.23.046-.23.156 0 .219.456.437 1.378.656.922.215 1.379.402 1.379.563 0 .109-.05.18-.16.18s-.328-.071-.653-.18c-.328-.16-.562-.227-.726-.227-.106 0-.176.05-.176.156 0 .164.137.317.406.477.328.11.715.246 1.149.41.488.105.758.176.812.176l.813.812c.492.434 1.031.653 1.629.653.324 0 .73-.082 1.218-.246.489-.165.829-.247.989-.247.273 0 .675.098 1.218.317.543.164.915.246 1.133.246.867 0 1.746-.371 2.617-1.129.922-.816 1.41-1.219 1.465-1.219a8.688 8.688 0 0 1 1.22-.18c.651-.105 1.241-.394 1.784-.882.274-.215.61-.387.992-.492.434-.11.754-.196.97-.25.273-.11.405-.243.405-.407-.05-.054-.171-.054-.336 0-.105 0-.292.035-.562.09h-.566c0-.328.086-.512.246-.566 1.52 0 2.28-.203 2.28-.582 0-.164-.116-.25-.335-.25-.055 0-.273.035-.652.09-.383.054-.668.09-.887.09-.16 0-.246-.07-.246-.18 0-.16.137-.227.406-.227.219 0 .707-.07 1.469-.18.758-.109 1.129-.242 1.129-.406 0-.215-.153-.316-.477-.316-.219 0-.57.05-1.058.156-.438.11-.707.16-.817.16-.105 0-.191-.015-.246-.07 0-.379.762-.684 2.281-.902 1.575-.215 2.367-.454 2.367-.723 0-.164-.136-.246-.406-.246l-.902.156c-.598.164-1.035.25-1.309.25-.379 0-.562-.086-.562-.25 0-.16.59-.348 1.785-.566 1.191-.27 1.8-.54 1.8-.813 0-.055-.085-.086-.245-.086-.274 0-.797.082-1.555.246-.707.164-1.129.246-1.293.246-.215 0-.387-.066-.492-.175a.326.326 0 0 1 0-.317c.105-.11.207-.16.316-.16 2.442-.379 3.676-.734 3.676-1.059 0-.164-.137-.25-.406-.25-.164 0-.703.122-1.625.336-.926.22-1.532.32-1.805.32a.905.905 0 0 1-.406-.09.326.326 0 0 1 0-.316c.11-.109.246-.195.406-.25.707-.214 1.45-.386 2.211-.492.758-.164 1.25-.265 1.465-.32.273-.11.406-.242.406-.406 0-.164-.133-.246-.406-.246-.27 0-1.012.168-2.207.492-1.196.273-1.922.406-2.192.406-.164 0-.25-.117-.25-.332 0-.164.848-.434 2.528-.816 1.683-.38 2.527-.664 2.527-.883 0-.215-.219-.336-.652-.336-.164 0-.84.172-2.032.496-1.14.27-1.75.406-1.804.406-.215 0-.317-.086-.317-.246 0-.219.641-.625 1.942-1.223 1.36-.593 2.035-.949 2.035-1.058 0-.219-.137-.317-.406-.317-.383 0-1.106.286-2.192.883-1.086.598-1.675.903-1.785.903-.433 0-.52-.137-.25-.41.219-.16.707-.43 1.469-.813.758-.434 1.469-.82 2.121-1.148.652-.38.988-.649 1.043-.813.16-.27.113-.406-.16-.406-.434 0-1.344.441-2.758 1.308-1.355.868-2.066 1.309-2.121 1.309-.106 0-.156-.086-.156-.25 0-.16.234-.414.722-.742a70.632 70.632 0 0 0 4.403-3.004c.324-.27.492-.524.492-.742 0-.11-.067-.16-.176-.16-.27 0-1.266.66-3.004 1.964-1.738 1.246-2.683 1.871-2.844 1.871h-.25v-.246c0-.109 1.032-1.004 3.094-2.687 2.063-1.738 3.094-2.8 3.094-3.18 0-.164-.05-.25-.16-.25-.219 0-1.317.88-3.27 2.617-1.898 1.739-3.066 2.598-3.5 2.598-.11 0-.16-.05-.16-.16 0-.05.863-.863 2.602-2.438 1.789-1.574 2.703-2.671 2.703-3.27 0-.214-.07-.316-.176-.316-.164 0-1.059.895-2.688 2.684-1.792 1.793-2.87 2.688-3.253 2.688l-.157-.16c0-.106.489-.7 1.465-1.786 1.031-1.14 1.54-1.883 1.54-2.207 0-.219-.052-.32-.16-.32-.22 0-.743.543-1.556 1.629-.761 1.086-1.183 1.625-1.289 1.625-.11 0-.16-.086-.16-.246l1.219-1.715c.762-1.14 1.133-1.918 1.133-2.352 0-.218-.086-.336-.25-.336-.106 0-.563.711-1.38 2.121-.812 1.356-1.335 2.032-1.554 2.032-.16 0-.23-.051-.23-.16 0-.051.07-.204.23-.477.164-.27.418-.691.742-1.234.383-.598.735-1.188 1.063-1.786.488-1.03.722-1.691.722-1.964 0-.215-.082-.317-.246-.317-.109 0-.664.93-1.695 2.774-.98 1.793-1.555 2.687-1.715 2.687-.054 0-.105-.035-.16-.09 0-.215.356-1.144 1.059-2.773.761-1.63 1.132-2.727 1.132-3.32 0-.22-.05-.336-.16-.336-.27 0-.86 1.113-1.785 3.34-.867 2.171-1.39 3.25-1.555 3.25-.16 0-.246-.067-.246-.231 0-.055.118-.406.336-1.059.27-.707.54-1.5.813-2.367.324-.87.512-1.527.566-1.965 0-.812-.086-1.218-.25-1.218-.215 0-.707 1.148-1.465 3.43-.761 2.28-1.214 3.41-1.379 3.41-.164 0-.246-.051-.246-.16 0-.325.133-.915.407-1.786.27-.922.406-1.531.406-1.8 0-.38-.086-.567-.25-.567-.215 0-.434.27-.652.812-.165.543-.313 1.204-.477 1.965-.164.758-.281 1.2-.336 1.305 0 .11-.05.176-.16.23-.27.22-.406.082-.406-.406V13.81c.054-.489.09-.829.09-1.043 0-1.739-.204-2.618-.586-2.618-.106 0-.157.844-.157 2.528 0 1.629-.136 2.437-.406 2.437-.164 0-.332-1.078-.496-3.25-.11-2.172-.293-3.254-.566-3.254-.16 0-.247.325-.247.973 0 .383.036 1.105.09 2.191.106 1.086.157 1.88.157 2.372 0 .867-.082 1.304-.247 1.304-.273 0-.406-.422-.406-1.234 0-1.25-.101-2.516-.32-3.82-.215-1.356-.434-2.032-.652-2.032Zm7.582 7.973c1.195 0 1.785.574 1.785 1.71 0 .708-.27 1.231-.813 1.56-.488.324-.93.476-1.308.476-.543 0-1-.152-1.38-.477-.323-.328-.495-.8-.495-1.398 0-1.25.746-1.871 2.21-1.871Zm-5.461.086c.543 0 .98.187 1.308.566.38.38.563.77.563 1.149 0 .433-.27.855-.813 1.289-.488.437-1.027.656-1.625.656-.379 0-.785-.102-1.219-.32-.378-.27-.582-.625-.582-1.059 0-1.52.793-2.281 2.368-2.281Zm8.464 3.41c1.25 0 1.875.66 1.875 1.965 0 .543-.238.996-.726 1.375a2.37 2.37 0 0 1-1.465.496c-1.305 0-1.965-.625-1.965-1.871 0-.492.223-.93.656-1.309.434-.433.973-.656 1.625-.656Zm-12.707.496c.543 0 1.032.254 1.47.742.433.434.652.942.652 1.54 0 .542-.235 1.03-.723 1.464-.438.434-.961.656-1.559.656-1.574 0-2.367-.71-2.367-2.12 0-.708.254-1.247.742-1.63.489-.433 1.078-.652 1.785-.652Zm6.434.246c.379 0 .77.172 1.148.496.434.274.653.742.653 1.45 0 .652-.203 1.21-.582 1.644-.38.379-.715.617-1.043.723-.27.054-.492.09-.653.09a2.132 2.132 0 0 1-1.554-.653c-.438-.492-.656-1.031-.656-1.629 0-.758.34-1.3.992-1.625.648-.324 1.207-.496 1.695-.496Zm7.742 3.82c.594 0 1.051.22 1.375.653.328.433.496.906.496 1.394 0 1.196-.726 1.786-2.191 1.786-.543 0-.98-.184-1.309-.563a1.977 1.977 0 0 1-.492-1.309c0-.652.254-1.14.742-1.468.489-.325.942-.492 1.38-.492Zm-5.215.653c.543 0 .98.219 1.309.652.379.383.562.82.562 1.309 0 1.25-.671 1.875-2.03 1.875a2.394 2.394 0 0 1-1.466-.496c-.437-.325-.656-.782-.656-1.38 0-.542.188-.995.567-1.378.433-.379 1.007-.582 1.714-.582Zm-5.691.336c1.738 0 2.598.726 2.598 2.191 0 .434-.184.906-.567 1.395-.324.488-.812.726-1.465.726-1.738 0-2.617-.675-2.617-2.03 0-.599.203-1.122.586-1.56.379-.488.867-.722 1.465-.722Zm-5.215.316c.598 0 1.106.223 1.54.656.487.434.741.957.741 1.555 0 1.25-.757 1.875-2.28 1.875-.544 0-1.017-.12-1.395-.336-.325-.273-.547-.508-.653-.726a2.67 2.67 0 0 1-.07-.653c0-.87.234-1.476.723-1.804.488-.38.96-.567 1.394-.567Zm13.84 3.024c.543 0 1 .218 1.379.652.433.383.652.805.652 1.293 0 .379-.219.77-.652 1.148-.379.325-.8.477-1.29.477-.327 0-.734-.152-1.222-.477-.488-.328-.742-.68-.742-1.062 0-.488.187-.942.566-1.379.38-.434.82-.652 1.309-.652Zm-9.773 1.875c1.355 0 2.03.691 2.03 2.101 0 1.14-.554 1.715-1.695 1.715-.707 0-1.28-.219-1.714-.656-.38-.434-.582-.922-.582-1.465 0-1.14.656-1.695 1.96-1.695Zm4.964.156c.489 0 .98.137 1.47.406.542.274.812.711.812 1.309 0 .652-.188 1.16-.567 1.539-.324.379-.629.633-.902.742-.27.055-.54.07-.813.07-1.191 0-1.785-.59-1.785-1.785 0-1.52.594-2.281 1.785-2.281Zm0 0" style="stroke:none;fill-rule:nonzero;fill:#000;fill-opacity:1"/></svg>