<svg xmlns="http://www.w3.org/2000/svg" width="px" height="66px" viewBox="0 0 45 66"><path d="M-272.781 440.053h67.746a5.403 5.403 0 0 1 5.408 5.409v104.147a5.408 5.408 0 0 1-5.408 5.408h-67.746a5.408 5.408 0 0 1-5.408-5.408V445.462a5.403 5.403 0 0 1 5.408-5.409Zm0 0" style="fill-rule:nonzero;fill:#fff;fill-opacity:1;stroke-width:1.009;stroke-linecap:butt;stroke-linejoin:miter;stroke:#000;stroke-opacity:1;stroke-miterlimit:4" transform="translate(157.61 -248.578) scale(.56553)"/><path d="M22.508 35.805c-3.258 0-4.895.574-4.895 1.715 0 .921.676 1.734 2.032 2.437v5.125c-1.356.438-2.032 1.094-2.032 1.965 0 .867.676 1.508 2.032 1.941v5.145c-1.356.703-2.032 1.515-2.032 2.437 0 1.14 1.637 1.715 4.895 1.715 3.258 0 4.879-.574 4.879-1.715 0-.922-.676-1.734-2.032-2.437v-5.145c1.356-.433 2.032-1.074 2.032-1.941 0-.871-.676-1.527-2.032-1.965v-5.125c1.356-.703 2.032-1.516 2.032-2.437 0-1.141-1.621-1.715-4.88-1.715Zm0 1.625c.543 0 .949.035 1.219.09v7.156c-.27-.055-.676-.07-1.22-.07-.542 0-.945.015-1.218.07V37.52c.273-.055.676-.09 1.219-.09Zm0 7.988c.11 0 .297.02.566.07h.653v3.094c-.16 0-.38.035-.653.09h-1.148c-.274-.055-.473-.09-.637-.09v-3.094h.637c.27-.05.472-.07.582-.07Zm-1.219 3.977c.273.054.676.09 1.219.09s.949-.036 1.219-.09v7.175c-.27.055-.676.09-1.22.09-.542 0-.945-.035-1.218-.09ZM22.508 7.3c-3.258 0-4.895.575-4.895 1.712 0 .925.676 1.734 2.032 2.441v5.125c-1.356.434-2.032 1.094-2.032 1.961s.676 1.527 2.032 1.961v5.125c-1.356.707-2.032 1.516-2.032 2.441 0 1.137 1.637 1.711 4.895 1.711 3.258 0 4.879-.574 4.879-1.71 0-.926-.676-1.735-2.032-2.442V20.5c1.356-.434 2.032-1.094 2.032-1.96 0-.868-.676-1.528-2.032-1.962v-5.125c1.356-.707 2.032-1.515 2.032-2.441 0-1.137-1.621-1.711-4.88-1.711Zm0 1.626c.543 0 .949.035 1.219.086v7.16c-.27-.055-.676-.07-1.22-.07-.542 0-.945.015-1.218.07v-7.16c.273-.051.676-.086 1.219-.086Zm0 7.988c.11 0 .297.031.566.086h.653v3.094c-.16 0-.38.015-.653.07h-1.148a3.18 3.18 0 0 0-.637-.07V17h.637c.27-.055.472-.086.582-.086Zm-1.219 3.992c.273.055.676.07 1.219.07s.949-.015 1.219-.07v7.16c-.27.051-.676.086-1.22.086-.542 0-.945-.035-1.218-.086Zm0 0" style="stroke:none;fill-rule:nonzero;fill:#080;fill-opacity:1"/></svg>