<svg xmlns="http://www.w3.org/2000/svg" width="px" height="66px" viewBox="0 0 45 66"><path d="M-138.962 345.507h67.746a5.403 5.403 0 0 1 5.408 5.408v104.148a5.408 5.408 0 0 1-5.408 5.408h-67.746a5.408 5.408 0 0 1-5.408-5.408V350.915a5.403 5.403 0 0 1 5.408-5.408Zm0 0" style="fill-rule:nonzero;fill:#fff;fill-opacity:1;stroke-width:1.009;stroke-linecap:butt;stroke-linejoin:miter;stroke:#000;stroke-opacity:1;stroke-miterlimit:4" transform="translate(81.931 -195.11) scale(.56553)"/><path d="M13.547 35.805c-3.254 0-4.895.574-4.895 1.715 0 .921.696 1.734 2.051 2.437v5.125c-1.355.438-2.05 1.094-2.05 1.965 0 .867.695 1.508 2.05 1.941v5.145c-1.355.703-2.05 1.515-2.05 2.437 0 1.14 1.64 1.715 4.894 1.715 3.258 0 4.879-.574 4.879-1.715 0-.922-.676-1.734-2.031-2.437v-5.145c1.355-.433 2.03-1.074 2.03-1.941 0-.871-.675-1.527-2.03-1.965v-5.125c1.355-.703 2.03-1.516 2.03-2.437 0-1.141-1.62-1.715-4.878-1.715Zm0 1.625c.543 0 .95.035 1.223.09v7.156c-.274-.055-.68-.07-1.223-.07s-.945.015-1.219.07V37.52c.274-.055.676-.09 1.219-.09Zm0 7.988c.11 0 .297.02.566.07h.657v3.094a3.66 3.66 0 0 0-.657.09h-1.129a3.66 3.66 0 0 0-.656-.09v-3.094h.656c.27-.05.457-.07.563-.07Zm-1.219 3.977c.274.054.676.09 1.219.09s.95-.036 1.223-.09v7.175c-.274.055-.68.09-1.223.09s-.945-.035-1.219-.09ZM31.469 35.805c-3.258 0-4.895.574-4.895 1.715 0 .921.676 1.734 2.031 2.437v5.125c-1.355.438-2.03 1.094-2.03 1.965 0 .867.675 1.508 2.03 1.941v5.145c-1.355.703-2.03 1.515-2.03 2.437 0 1.14 1.636 1.715 4.894 1.715s4.879-.574 4.879-1.715c0-.922-.676-1.734-2.035-2.437v-5.145c1.359-.433 2.035-1.074 2.035-1.941 0-.871-.676-1.527-2.035-1.965v-5.125c1.359-.703 2.035-1.516 2.035-2.437 0-1.141-1.621-1.715-4.88-1.715Zm0 1.625c.543 0 .949.035 1.218.09v7.156c-.269-.055-.675-.07-1.218-.07-.543 0-.95.015-1.219.07V37.52c.27-.055.676-.09 1.219-.09Zm0 7.988c.11 0 .293.02.566.07h.653v3.094c-.16 0-.383.035-.653.09h-1.148c-.274-.055-.473-.09-.637-.09v-3.094h.637c.27-.05.472-.07.582-.07Zm-1.219 3.977c.27.054.676.09 1.219.09s.949-.036 1.218-.09v7.175c-.269.055-.675.09-1.218.09-.543 0-.95-.035-1.219-.09ZM13.547 7.3c-3.254 0-4.895.575-4.895 1.712 0 .925.696 1.734 2.051 2.441v5.125c-1.355.434-2.05 1.094-2.05 1.961s.695 1.527 2.05 1.961v5.125c-1.355.707-2.05 1.516-2.05 2.441 0 1.137 1.64 1.711 4.894 1.711 3.258 0 4.879-.574 4.879-1.71 0-.926-.676-1.735-2.031-2.442V20.5c1.355-.434 2.03-1.094 2.03-1.96 0-.868-.675-1.528-2.03-1.962v-5.125c1.355-.707 2.03-1.515 2.03-2.441 0-1.137-1.62-1.711-4.878-1.711Zm0 1.626c.543 0 .95.035 1.223.086v7.16c-.274-.055-.68-.07-1.223-.07s-.945.015-1.219.07v-7.16c.274-.051.676-.086 1.219-.086Zm0 7.988c.11 0 .297.031.566.086h.657v3.094a3.35 3.35 0 0 0-.657.07h-1.129a3.35 3.35 0 0 0-.656-.07V17h.656c.27-.055.457-.086.563-.086Zm-1.219 3.992c.274.055.676.07 1.219.07s.95-.015 1.223-.07v7.16c-.274.051-.68.086-1.223.086s-.945-.035-1.219-.086ZM31.469 7.3c-3.258 0-4.895.575-4.895 1.712 0 .925.676 1.734 2.031 2.441v5.125c-1.355.434-2.03 1.094-2.03 1.961s.675 1.527 2.03 1.961v5.125c-1.355.707-2.03 1.516-2.03 2.441 0 1.137 1.636 1.711 4.894 1.711s4.879-.574 4.879-1.71c0-.926-.676-1.735-2.035-2.442V20.5c1.359-.434 2.035-1.094 2.035-1.96 0-.868-.676-1.528-2.035-1.962v-5.125c1.359-.707 2.035-1.515 2.035-2.441 0-1.137-1.621-1.711-4.88-1.711Zm0 1.626c.543 0 .949.035 1.218.086v7.16c-.269-.055-.675-.07-1.218-.07-.543 0-.95.015-1.219.07v-7.16c.27-.051.676-.086 1.219-.086Zm0 7.988c.11 0 .293.031.566.086h.653v3.094c-.16 0-.383.015-.653.07h-1.148a3.18 3.18 0 0 0-.637-.07V17h.637c.27-.055.472-.086.582-.086Zm-1.219 3.992c.27.055.676.07 1.219.07s.949-.015 1.218-.07v7.16c-.269.051-.675.086-1.218.086-.543 0-.95-.035-1.219-.086Zm0 0" style="stroke:none;fill-rule:nonzero;fill:#080;fill-opacity:1"/></svg>