<svg xmlns="http://www.w3.org/2000/svg" width="px" height="66px" viewBox="0 0 45 66"><path d="M-131.694 476.224h67.746a5.403 5.403 0 0 1 5.408 5.408V585.78a5.408 5.408 0 0 1-5.408 5.408h-67.746a5.408 5.408 0 0 1-5.409-5.408V481.632a5.403 5.403 0 0 1 5.409-5.408Zm0 0" style="fill-rule:nonzero;fill:#fff;fill-opacity:1;stroke-width:1.009;stroke-linecap:butt;stroke-linejoin:miter;stroke:#000;stroke-opacity:1;stroke-miterlimit:4" transform="translate(77.82 -269.034) scale(.56553)"/><path d="M10.703 35.805c-3.258 0-4.894.574-4.894 1.715 0 .921.675 1.734 2.03 2.437v5.125c-1.355.438-2.03 1.094-2.03 1.965 0 .867.675 1.508 2.03 1.941v5.145c-1.355.703-2.03 1.515-2.03 2.437 0 1.14 1.636 1.715 4.894 1.715s4.879-.574 4.879-1.715c0-.922-.676-1.734-2.035-2.437v-5.145c1.36-.433 2.035-1.074 2.035-1.941 0-.871-.676-1.527-2.035-1.965v-5.125c1.36-.703 2.035-1.516 2.035-2.437 0-1.141-1.621-1.715-4.879-1.715Zm0 1.625c.543 0 .95.035 1.219.09v7.156c-.27-.055-.676-.07-1.219-.07s-.965.015-1.238.07V37.52c.273-.055.695-.09 1.238-.09Zm0 7.988c.164 0 .363.02.637.07h.582v3.094c-.11 0-.313.035-.582.09h-1.29a3.832 3.832 0 0 0-.585-.09v-3.094h.586c.27-.05.488-.07.652-.07Zm-1.238 3.977c.273.054.695.09 1.238.09s.95-.036 1.219-.09v7.175c-.27.055-.676.09-1.219.09s-.965-.035-1.238-.09ZM34.313 35.805c-3.254 0-4.895.574-4.895 1.715 0 .921.695 1.734 2.05 2.437v5.125c-1.355.438-2.05 1.094-2.05 1.965 0 .867.695 1.508 2.05 1.941v5.145c-1.355.703-2.05 1.515-2.05 2.437 0 1.14 1.64 1.715 4.895 1.715 3.257 0 4.878-.574 4.878-1.715 0-.922-.675-1.734-2.03-2.437v-5.145c1.355-.433 2.03-1.074 2.03-1.941 0-.871-.675-1.527-2.03-1.965v-5.125c1.355-.703 2.03-1.516 2.03-2.437 0-1.141-1.62-1.715-4.879-1.715Zm0 1.625c.542 0 .949.035 1.222.09v7.156c-.273-.055-.68-.07-1.222-.07-.543 0-.946.015-1.22.07V37.52c.274-.055.677-.09 1.22-.09Zm0 7.988c.164 0 .382.02.656.07h.566v3.094c-.11 0-.297.035-.566.09H33.66c-.27-.055-.457-.09-.566-.09v-3.094h.566c.274-.05.492-.07.653-.07Zm-1.22 3.977c.274.054.677.09 1.22.09.542 0 .949-.036 1.222-.09v7.175c-.273.055-.68.09-1.222.09-.543 0-.946-.035-1.22-.09Zm0 0" style="stroke:none;fill-rule:nonzero;fill:#080;fill-opacity:1"/><path d="M22.508 21.563c-3.258 0-4.895.554-4.895 1.695 0 .922.676 1.75 2.032 2.457v5.125c-1.356.433-2.032 1.074-2.032 1.945 0 .867.676 1.528 2.032 1.961v5.125c-1.356.703-2.032 1.531-2.032 2.457 0 1.137 1.637 1.695 4.895 1.695 3.258 0 4.879-.558 4.879-1.695 0-.926-.676-1.754-2.032-2.457v-5.125c1.356-.434 2.032-1.094 2.032-1.96 0-.872-.676-1.513-2.032-1.946v-5.125c1.356-.707 2.032-1.535 2.032-2.457 0-1.14-1.621-1.695-4.88-1.695Zm0 1.625c.543 0 .949.015 1.219.07v7.176c-.27-.055-.676-.09-1.22-.09-.542 0-.945.035-1.218.09v-7.176c.273-.055.676-.07 1.219-.07Zm0 7.968c.11 0 .297.035.566.09h.653v3.094a3.6 3.6 0 0 0-.653.086h-1.148a3.422 3.422 0 0 0-.637-.086v-3.094h.637c.27-.055.472-.09.582-.09Zm-1.219 3.996c.273.055.676.086 1.219.086s.949-.031 1.219-.086v7.176c-.27.055-.676.07-1.22.07-.542 0-.945-.015-1.218-.07Zm0 0" style="stroke:none;fill-rule:nonzero;fill:#c00;fill-opacity:1"/><path d="M10.703 7.3c-3.258 0-4.894.575-4.894 1.712 0 .925.675 1.734 2.03 2.441v5.125c-1.355.434-2.03 1.094-2.03 1.961s.675 1.527 2.03 1.961v5.125c-1.355.707-2.03 1.516-2.03 2.441 0 1.137 1.636 1.711 4.894 1.711s4.879-.574 4.879-1.71c0-.926-.676-1.735-2.035-2.442V20.5c1.36-.434 2.035-1.094 2.035-1.96 0-.868-.676-1.528-2.035-1.962v-5.125c1.36-.707 2.035-1.515 2.035-2.441 0-1.137-1.621-1.711-4.879-1.711Zm0 1.626c.543 0 .95.035 1.219.086v7.16c-.27-.055-.676-.07-1.219-.07s-.965.015-1.238.07v-7.16c.273-.051.695-.086 1.238-.086Zm0 7.988c.164 0 .363.031.637.086h.582v3.094c-.11 0-.313.015-.582.07H10.05a3.193 3.193 0 0 0-.586-.07V17h.586c.27-.055.488-.086.652-.086Zm-1.238 3.992c.273.055.695.07 1.238.07s.95-.015 1.219-.07v7.16c-.27.051-.676.086-1.219.086s-.965-.035-1.238-.086ZM34.313 7.3c-3.254 0-4.895.575-4.895 1.712 0 .925.695 1.734 2.05 2.441v5.125c-1.355.434-2.05 1.094-2.05 1.961s.695 1.527 2.05 1.961v5.125c-1.355.707-2.05 1.516-2.05 2.441 0 1.137 1.64 1.711 4.895 1.711 3.257 0 4.878-.574 4.878-1.71 0-.926-.675-1.735-2.03-2.442V20.5c1.355-.434 2.03-1.094 2.03-1.96 0-.868-.675-1.528-2.03-1.962v-5.125c1.355-.707 2.03-1.515 2.03-2.441 0-1.137-1.62-1.711-4.879-1.711Zm0 1.626c.542 0 .949.035 1.222.086v7.16c-.273-.055-.68-.07-1.222-.07-.543 0-.946.015-1.22.07v-7.16c.274-.051.677-.086 1.22-.086Zm0 7.988c.164 0 .382.031.656.086h.566v3.094c-.11 0-.297.015-.566.07H33.66a3.002 3.002 0 0 0-.566-.07V17h.566a3.6 3.6 0 0 1 .653-.086Zm-1.22 3.992c.274.055.677.07 1.22.07.542 0 .949-.015 1.222-.07v7.16c-.273.051-.68.086-1.222.086-.543 0-.946-.035-1.22-.086Zm0 0" style="stroke:none;fill-rule:nonzero;fill:#080;fill-opacity:1"/></svg>