<svg xmlns="http://www.w3.org/2000/svg" width="px" height="66px" viewBox="0 0 45 66"><path d="M-41.447 372.655h67.746a5.403 5.403 0 0 1 5.408 5.409V482.21a5.408 5.408 0 0 1-5.408 5.408h-67.746a5.408 5.408 0 0 1-5.409-5.408V378.064a5.403 5.403 0 0 1 5.409-5.409Zm0 0" style="fill-rule:nonzero;fill:#fff;fill-opacity:1;stroke-width:1.009;stroke-linecap:butt;stroke-linejoin:miter;stroke:#000;stroke-opacity:1;stroke-miterlimit:4" transform="translate(26.783 -210.463) scale(.56553)"/><path d="M35.129 35.805c-3.258 0-4.879.574-4.879 1.715 0 .921.676 1.734 2.031 2.437v5.125c-1.355.438-2.031 1.094-2.031 1.965 0 .867.676 1.508 2.031 1.941v5.145c-1.355.703-2.031 1.515-2.031 2.437 0 1.14 1.621 1.715 4.879 1.715 3.254 0 4.875-.574 4.875-1.715 0-.922-.676-1.734-2.031-2.437v-5.145c1.355-.433 2.03-1.074 2.03-1.941 0-.871-.675-1.527-2.03-1.965v-5.125c1.355-.703 2.03-1.516 2.03-2.437 0-1.141-1.62-1.715-4.874-1.715Zm0 1.625c.543 0 .945.035 1.219.09v7.156c-.274-.055-.676-.07-1.22-.07-.542 0-.948.015-1.222.07V37.52c.274-.055.68-.09 1.223-.09Zm0 7.988c.16 0 .379.02.652.07h.567v3.094c-.11 0-.297.035-.567.09h-1.308c-.27-.055-.457-.09-.567-.09v-3.094h.567c.273-.05.492-.07.656-.07Zm-1.223 3.977c.274.054.68.09 1.223.09s.945-.036 1.219-.09v7.175c-.274.055-.676.09-1.22.09-.542 0-.948-.035-1.222-.09ZM22.508 35.805c-3.258 0-4.895.574-4.895 1.715 0 .921.676 1.734 2.032 2.437v5.125c-1.356.438-2.032 1.094-2.032 1.965 0 .867.676 1.508 2.032 1.941v5.145c-1.356.703-2.032 1.515-2.032 2.437 0 1.14 1.637 1.715 4.895 1.715 3.258 0 4.879-.574 4.879-1.715 0-.922-.676-1.734-2.032-2.437v-5.145c1.356-.433 2.032-1.074 2.032-1.941 0-.871-.676-1.527-2.032-1.965v-5.125c1.356-.703 2.032-1.516 2.032-2.437 0-1.141-1.621-1.715-4.88-1.715Zm0 1.625c.543 0 .949.035 1.219.09v7.156c-.27-.055-.676-.07-1.22-.07-.542 0-.945.015-1.218.07V37.52c.273-.055.676-.09 1.219-.09Zm0 7.988c.11 0 .297.02.566.07h.653v3.094c-.16 0-.38.035-.653.09h-1.148c-.274-.055-.473-.09-.637-.09v-3.094h.637c.27-.05.472-.07.582-.07Zm-1.219 3.977c.273.054.676.09 1.219.09s.949-.036 1.219-.09v7.175c-.27.055-.676.09-1.22.09-.542 0-.945-.035-1.218-.09ZM9.89 35.805c-3.257 0-4.894.574-4.894 1.715 0 .921.676 1.734 2.031 2.437v5.125c-1.355.438-2.03 1.094-2.03 1.965 0 .867.675 1.508 2.03 1.941v5.145c-1.355.703-2.03 1.515-2.03 2.437 0 1.14 1.636 1.715 4.894 1.715 3.257 0 4.879-.574 4.879-1.715 0-.922-.676-1.734-2.036-2.437v-5.145c1.36-.433 2.036-1.074 2.036-1.941 0-.871-.676-1.527-2.036-1.965v-5.125c1.36-.703 2.036-1.516 2.036-2.437 0-1.141-1.622-1.715-4.88-1.715Zm0 1.625c.544 0 .95.035 1.22.09v7.156c-.27-.055-.676-.07-1.22-.07-.542 0-.964.015-1.238.07V37.52c.274-.055.696-.09 1.239-.09Zm0 7.988c.165 0 .364.02.637.07h.582v3.094c-.109 0-.312.035-.582.09H9.238a3.832 3.832 0 0 0-.586-.09v-3.094h.586c.27-.05.489-.07.653-.07Zm-1.238 3.977c.274.054.696.09 1.239.09.543 0 .949-.036 1.218-.09v7.175c-.27.055-.675.09-1.218.09-.543 0-.965-.035-1.239-.09ZM9.89 7.3c-3.257 0-4.894.575-4.894 1.712 0 .925.676 1.734 2.031 2.441v5.125c-1.355.434-2.03 1.094-2.03 1.961s.675 1.527 2.03 1.961v5.125c-1.355.707-2.03 1.516-2.03 2.441 0 1.137 1.636 1.711 4.894 1.711 3.257 0 4.879-.574 4.879-1.71 0-.926-.676-1.735-2.036-2.442V20.5c1.36-.434 2.036-1.094 2.036-1.96 0-.868-.676-1.528-2.036-1.962v-5.125c1.36-.707 2.036-1.515 2.036-2.441 0-1.137-1.622-1.711-4.88-1.711Zm0 1.626c.544 0 .95.035 1.22.086v7.16c-.27-.055-.676-.07-1.22-.07-.542 0-.964.015-1.238.07v-7.16c.274-.051.696-.086 1.239-.086Zm0 7.988c.165 0 .364.031.637.086h.582v3.094c-.109 0-.312.015-.582.07H9.238a3.193 3.193 0 0 0-.586-.07V17h.586c.27-.055.489-.086.653-.086Zm-1.238 3.992c.274.055.696.07 1.239.07.543 0 .949-.015 1.218-.07v7.16c-.27.051-.675.086-1.218.086-.543 0-.965-.035-1.239-.086ZM22.508 7.3c-3.258 0-4.895.575-4.895 1.712 0 .925.676 1.734 2.032 2.441v5.125c-1.356.434-2.032 1.094-2.032 1.961s.676 1.527 2.032 1.961v5.125c-1.356.707-2.032 1.516-2.032 2.441 0 1.137 1.637 1.711 4.895 1.711 3.258 0 4.879-.574 4.879-1.71 0-.926-.676-1.735-2.032-2.442V20.5c1.356-.434 2.032-1.094 2.032-1.96 0-.868-.676-1.528-2.032-1.962v-5.125c1.356-.707 2.032-1.515 2.032-2.441 0-1.137-1.621-1.711-4.88-1.711Zm0 1.626c.543 0 .949.035 1.219.086v7.16c-.27-.055-.676-.07-1.22-.07-.542 0-.945.015-1.218.07v-7.16c.273-.051.676-.086 1.219-.086Zm0 7.988c.11 0 .297.031.566.086h.653v3.094c-.16 0-.38.015-.653.07h-1.148a3.18 3.18 0 0 0-.637-.07V17h.637c.27-.055.472-.086.582-.086Zm-1.219 3.992c.273.055.676.07 1.219.07s.949-.015 1.219-.07v7.16c-.27.051-.676.086-1.22.086-.542 0-.945-.035-1.218-.086ZM35.129 7.3c-3.258 0-4.879.575-4.879 1.712 0 .925.676 1.734 2.031 2.441v5.125c-1.355.434-2.031 1.094-2.031 1.961s.676 1.527 2.031 1.961v5.125c-1.355.707-2.031 1.516-2.031 2.441 0 1.137 1.621 1.711 4.879 1.711 3.254 0 4.875-.574 4.875-1.71 0-.926-.676-1.735-2.031-2.442V20.5c1.355-.434 2.03-1.094 2.03-1.96 0-.868-.675-1.528-2.03-1.962v-5.125c1.355-.707 2.03-1.515 2.03-2.441 0-1.137-1.62-1.711-4.874-1.711Zm0 1.626c.543 0 .945.035 1.219.086v7.16c-.274-.055-.676-.07-1.22-.07-.542 0-.948.015-1.222.07v-7.16c.274-.051.68-.086 1.223-.086Zm0 7.988c.16 0 .379.031.652.086h.567v3.094c-.11 0-.297.015-.567.07h-1.308a3.002 3.002 0 0 0-.567-.07V17h.567c.273-.055.492-.086.656-.086Zm-1.223 3.992c.274.055.68.07 1.223.07s.945-.015 1.219-.07v7.16c-.274.051-.676.086-1.22.086-.542 0-.948-.035-1.222-.086Zm0 0" style="stroke:none;fill-rule:nonzero;fill:#080;fill-opacity:1"/></svg>