<svg xmlns="http://www.w3.org/2000/svg" width="px" height="66px" viewBox="0 0 45 66"><path d="M-316.12 493.263h67.746a5.403 5.403 0 0 1 5.408 5.408v104.147a5.408 5.408 0 0 1-5.408 5.409h-67.746a5.408 5.408 0 0 1-5.409-5.409V498.671a5.403 5.403 0 0 1 5.409-5.408Zm0 0" style="fill-rule:nonzero;fill:#fff;fill-opacity:1;stroke-width:1.009;stroke-linecap:butt;stroke-linejoin:miter;stroke:#000;stroke-opacity:1;stroke-miterlimit:4" transform="translate(182.12 -278.67) scale(.56553)"/><path d="M9.715 43.707c-3.149 0-4.719.57-4.719 1.711 0 .926.676 1.734 2.031 2.441v2.684c-1.355.437-2.03 1.094-2.03 1.965 0 .867.675 1.508 2.03 1.941v2.688c-1.355.707-2.03 1.515-2.03 2.437 0 1.14 1.57 1.715 4.718 1.715 3.148 0 4.734-.574 4.734-1.715 0-.922-.691-1.73-2.05-2.437v-2.688c1.359-.433 2.05-1.074 2.05-1.941 0-.871-.691-1.528-2.05-1.965v-2.684c1.359-.707 2.05-1.515 2.05-2.441 0-1.14-1.586-1.711-4.734-1.711Zm0 1.625c.543 0 .945.031 1.219.086v4.719c-.274-.055-.676-.086-1.22-.086-.542 0-.948.031-1.218.086v-4.719c.27-.055.676-.086 1.219-.086Zm0 5.531c.16 0 .383.035.652.086h.567v3.094c-.11 0-.293.035-.567.09H9.06c-.27-.055-.457-.09-.563-.09v-3.094h.563c.273-.05.492-.086.656-.086Zm-1.219 3.992c.27.055.676.09 1.219.09s.945-.035 1.219-.09v4.72c-.274.054-.676.09-1.22.09-.542 0-.948-.036-1.218-.09ZM22.508 43.707c-3.149 0-4.735.57-4.735 1.711 0 .926.692 1.734 2.051 2.441v2.684c-1.36.437-2.05 1.094-2.05 1.965 0 .867.69 1.508 2.05 1.941v2.688c-1.36.707-2.05 1.515-2.05 2.437 0 1.14 1.585 1.715 4.734 1.715 3.148 0 4.719-.574 4.719-1.715 0-.922-.676-1.73-2.032-2.437v-2.688c1.356-.433 2.032-1.074 2.032-1.941 0-.871-.676-1.528-2.032-1.965v-2.684c1.356-.707 2.032-1.515 2.032-2.441 0-1.14-1.57-1.711-4.72-1.711Zm0 1.625c.543 0 .949.031 1.219.086v4.719c-.27-.055-.676-.086-1.22-.086-.542 0-.945.031-1.218.086v-4.719c.273-.055.676-.086 1.219-.086Zm0 5.531c.11 0 .297.035.566.086h.653v3.094c-.16 0-.38.035-.653.09h-1.148c-.274-.055-.473-.09-.637-.09v-3.094h.637c.27-.05.472-.086.582-.086Zm-1.219 3.992c.273.055.676.09 1.219.09s.949-.035 1.219-.09v4.72c-.27.054-.676.09-1.22.09-.542 0-.945-.036-1.218-.09ZM35.285 43.707c-3.148 0-4.719.57-4.719 1.711 0 .926.676 1.734 2.036 2.441v2.684c-1.36.437-2.036 1.094-2.036 1.965 0 .867.676 1.508 2.036 1.941v2.688c-1.36.707-2.036 1.515-2.036 2.437 0 1.14 1.57 1.715 4.72 1.715 3.148 0 4.718-.574 4.718-1.715 0-.922-.676-1.73-2.031-2.437v-2.688c1.355-.433 2.03-1.074 2.03-1.941 0-.871-.675-1.528-2.03-1.965v-2.684c1.355-.707 2.03-1.515 2.03-2.441 0-1.14-1.57-1.711-4.718-1.711Zm0 1.625c.543 0 .95.031 1.219.086v4.719c-.27-.055-.676-.086-1.219-.086s-.945.031-1.219.086v-4.719c.274-.055.676-.086 1.22-.086Zm0 5.531c.164 0 .383.035.656.086h.563v3.094c-.106 0-.293.035-.563.09h-1.308c-.274-.055-.457-.09-.567-.09v-3.094h.567c.27-.05.492-.086.652-.086Zm-1.219 3.992c.274.055.676.09 1.22.09.542 0 .948-.035 1.218-.09v4.72c-.27.054-.676.09-1.219.09s-.945-.036-1.219-.09ZM35.285 24c-3.148 0-4.719.574-4.719 1.715 0 .922.676 1.73 2.036 2.437v2.688c-1.36.433-2.036 1.074-2.036 1.945 0 .867.676 1.528 2.036 1.961v2.684c-1.36.707-2.036 1.515-2.036 2.441 0 1.14 1.57 1.715 4.72 1.715 3.148 0 4.718-.574 4.718-1.715 0-.926-.676-1.734-2.031-2.441v-2.684c1.355-.434 2.03-1.094 2.03-1.96 0-.872-.675-1.513-2.03-1.946v-2.688c1.355-.707 2.03-1.515 2.03-2.437 0-1.14-1.57-1.715-4.718-1.715Zm0 1.625c.543 0 .95.035 1.219.09v4.719c-.27-.055-.676-.09-1.219-.09s-.945.035-1.219.09v-4.72c.274-.054.676-.089 1.22-.089Zm0 5.531c.164 0 .383.035.656.09h.563v3.094c-.106 0-.293.031-.563.086h-1.308c-.274-.055-.457-.086-.567-.086v-3.094h.567c.27-.055.492-.09.652-.09Zm-1.219 3.996c.274.055.676.086 1.22.086.542 0 .948-.031 1.218-.086v4.72c-.27.054-.676.085-1.219.085s-.945-.031-1.219-.086ZM22.508 24c-3.149 0-4.735.574-4.735 1.715 0 .922.692 1.73 2.051 2.437v2.688c-1.36.433-2.05 1.074-2.05 1.945 0 .867.69 1.528 2.05 1.961v2.684c-1.36.707-2.05 1.515-2.05 2.441 0 1.14 1.585 1.715 4.734 1.715 3.148 0 4.719-.574 4.719-1.715 0-.926-.676-1.734-2.032-2.441v-2.684c1.356-.434 2.032-1.094 2.032-1.96 0-.872-.676-1.513-2.032-1.946v-2.688c1.356-.707 2.032-1.515 2.032-2.437 0-1.14-1.57-1.715-4.72-1.715Zm0 1.625c.543 0 .949.035 1.219.09v4.719c-.27-.055-.676-.09-1.22-.09-.542 0-.945.035-1.218.09v-4.72c.273-.054.676-.089 1.219-.089Zm0 5.531c.11 0 .297.035.566.09h.653v3.094a3.6 3.6 0 0 0-.653.086h-1.148a3.422 3.422 0 0 0-.637-.086v-3.094h.637c.27-.055.472-.09.582-.09Zm-1.219 3.996c.273.055.676.086 1.219.086s.949-.031 1.219-.086v4.72c-.27.054-.676.085-1.22.085-.542 0-.945-.031-1.218-.086ZM9.715 24c-3.149 0-4.719.574-4.719 1.715 0 .922.676 1.73 2.031 2.437v2.688c-1.355.433-2.03 1.074-2.03 1.945 0 .867.675 1.528 2.03 1.961v2.684c-1.355.707-2.03 1.515-2.03 2.441 0 1.14 1.57 1.715 4.718 1.715 3.148 0 4.734-.574 4.734-1.715 0-.926-.691-1.734-2.05-2.441v-2.684c1.359-.434 2.05-1.094 2.05-1.96 0-.872-.691-1.513-2.05-1.946v-2.688c1.359-.707 2.05-1.515 2.05-2.437 0-1.14-1.586-1.715-4.734-1.715Zm0 1.625c.543 0 .945.035 1.219.09v4.719c-.274-.055-.676-.09-1.22-.09-.542 0-.948.035-1.218.09v-4.72c.27-.054.676-.089 1.219-.089Zm0 5.531c.16 0 .383.035.652.09h.567v3.094c-.11 0-.293.031-.567.086H9.06a3.506 3.506 0 0 0-.563-.086v-3.094h.563a3.66 3.66 0 0 1 .656-.09Zm-1.219 3.996c.27.055.676.086 1.219.086s.945-.031 1.219-.086v4.72c-.274.054-.676.085-1.22.085-.542 0-.948-.031-1.218-.086Zm0 0" style="stroke:none;fill-rule:nonzero;fill:#080;fill-opacity:1"/><path d="M22.508 4.293c-3.149 0-4.735.559-4.735 1.7 0 .921.692 1.75 2.051 2.456v2.684c-1.36.437-2.05 1.078-2.05 1.945s.69 1.527 2.05 1.961v2.688c-1.36.707-2.05 1.515-2.05 2.437 0 1.14 1.585 1.715 4.734 1.715 3.148 0 4.719-.574 4.719-1.715 0-.922-.676-1.73-2.032-2.437v-2.688c1.356-.434 2.032-1.094 2.032-1.96 0-.868-.676-1.509-2.032-1.946V8.449c1.356-.707 2.032-1.535 2.032-2.457 0-1.14-1.57-1.699-4.72-1.699Zm0 1.629c.543 0 .949.016 1.219.07v4.735c-.27-.055-.676-.086-1.22-.086-.542 0-.945.03-1.218.086V5.992c.273-.054.676-.07 1.219-.07Zm0 5.531c.11 0 .297.031.566.086h.653v3.094c-.16 0-.38.015-.653.07h-1.148a3.18 3.18 0 0 0-.637-.07v-3.094h.637c.27-.05.472-.086.582-.086Zm-1.219 3.992c.273.055.676.09 1.219.09s.949-.035 1.219-.09v4.72c-.27.054-.676.089-1.22.089-.542 0-.945-.035-1.218-.09Zm0 0" style="stroke:none;fill-rule:nonzero;fill:#c00;fill-opacity:1"/></svg>