<svg xmlns="http://www.w3.org/2000/svg" width="px" height="66px" viewBox="0 0 45 66"><path d="M-361.14 363.759h67.746a5.403 5.403 0 0 1 5.409 5.408v104.147a5.408 5.408 0 0 1-5.409 5.409h-67.746a5.408 5.408 0 0 1-5.408-5.409V369.167a5.403 5.403 0 0 1 5.408-5.408Zm0 0" style="fill-rule:nonzero;fill:#fff;fill-opacity:1;stroke-width:1.009;stroke-linecap:butt;stroke-linejoin:miter;stroke:#000;stroke-opacity:1;stroke-miterlimit:4" transform="translate(207.58 -205.431) scale(.56553)"/><path d="M9.89 35.805c-3.257 0-4.894.574-4.894 1.715 0 .921.676 1.734 2.031 2.437v5.125c-1.355.438-2.03 1.094-2.03 1.965 0 .867.675 1.508 2.03 1.941v5.145c-1.355.703-2.03 1.515-2.03 2.437 0 1.14 1.636 1.715 4.894 1.715 3.257 0 4.879-.574 4.879-1.715 0-.922-.676-1.734-2.036-2.437v-5.145c1.36-.433 2.036-1.074 2.036-1.941 0-.871-.676-1.527-2.036-1.965v-1.465l3.004 3.024c-.433.812-.363 1.488.18 2.03.488.49 1.164.54 2.031.161l1.875 1.8c-.437.598-.656 1.188-.656 1.786 0 1.031.457 1.555 1.379 1.555.762 0 1.418-.254 1.96-.743a2.805 2.805 0 0 0 1.946.743c.922 0 1.395-.524 1.395-1.555 0-.598-.22-1.188-.653-1.785l1.875-1.801c.867.379 1.543.328 2.032-.16.543-.543.593-1.219.16-2.031l3.02-3.024v1.465c-1.356.438-2.032 1.094-2.032 1.965 0 .867.676 1.508 2.031 1.941v5.145c-1.355.703-2.031 1.515-2.031 2.437 0 1.14 1.621 1.715 4.879 1.715 3.254 0 4.875-.574 4.875-1.715 0-.922-.676-1.734-2.031-2.437v-5.145c1.355-.433 2.03-1.074 2.03-1.941 0-.871-.675-1.527-2.03-1.965v-5.125c1.355-.703 2.03-1.516 2.03-2.437 0-1.141-1.62-1.715-4.874-1.715-3.258 0-4.879.574-4.879 1.715 0 .488.27.996.813 1.539l-4.649 4.644c-.812-.379-1.488-.293-2.031.25-.488.488-.54 1.129-.16 1.945l-1.715 1.711-1.715-1.71c.437-.817.387-1.493-.156-2.036-.489-.488-1.164-.539-2.035-.16l-4.645-4.644c.543-.543.813-1.051.813-1.54 0-1.14-1.622-1.714-4.88-1.714Zm0 1.625c.544 0 .95.035 1.22.09v7.156c-.27-.055-.676-.07-1.22-.07-.542 0-.964.015-1.238.07V37.52c.274-.055.696-.09 1.239-.09Zm25.239 0c.543 0 .945.035 1.219.09v7.156c-.274-.055-.676-.07-1.22-.07-.542 0-.948.015-1.222.07V37.52c.274-.055.68-.09 1.223-.09ZM12.984 39.8l4.63 4.63c-.434.27-.805.66-1.134 1.148l-3.746-3.656v-1.965Zm19.051 0 .246.157v1.965l-3.746 3.656a3.828 3.828 0 0 0-1.148-1.148Zm-13.84 5.212 1.38 1.379c-.11.109-.227.21-.337.32a1.293 1.293 0 0 1-.23.336l-.246.246c-.11.11-.227.191-.336.246l-1.38-1.394.161-.16c.055-.11.09-.192.09-.247a.956.956 0 0 1 .246-.16c.11-.11.21-.191.316-.246.11-.11.23-.21.336-.32Zm8.625 0 .32.32c.106.055.227.137.337.246.105.11.191.211.246.32.109.106.175.192.23.247l-1.379 1.394a1.258 1.258 0 0 1-.32-.246 7.105 7.105 0 0 0-.246-.246c-.11-.11-.227-.23-.336-.336a1.173 1.173 0 0 0-.23-.32Zm-16.93.406c.165 0 .364.02.637.07h.582v3.094c-.109 0-.312.035-.582.09H9.238a3.832 3.832 0 0 0-.586-.09v-3.094h.586c.27-.05.489-.07.653-.07Zm25.239 0c.16 0 .379.02.652.07h.567v3.094c-.11 0-.297.035-.567.09h-1.308c-.27-.055-.457-.09-.567-.09v-3.094h.567c.273-.05.492-.07.656-.07ZM20.14 46.957l2.367 2.367 2.351-2.367c.434.543.825.93 1.149 1.148l-2.688 2.758v1.801c-.324.11-.593.16-.812.16-.215 0-.485-.05-.813-.16v-1.8l-2.687-2.759c.328-.218.699-.605 1.133-1.148ZM8.652 49.395c.274.054.696.09 1.239.09.543 0 .949-.036 1.218-.09v7.175c-.27.055-.675.09-1.218.09-.543 0-.965-.035-1.239-.09Zm25.254 0c.274.054.68.09 1.223.09s.945-.036 1.219-.09v7.175c-.274.055-.676.09-1.22.09-.542 0-.948-.035-1.222-.09ZM9.89 7.3c-3.257 0-4.894.575-4.894 1.712 0 .925.676 1.734 2.031 2.441v5.125c-1.355.434-2.03 1.094-2.03 1.961s.675 1.527 2.03 1.961v5.125c-1.355.707-2.03 1.516-2.03 2.441 0 1.137 1.636 1.711 4.894 1.711 3.257 0 4.879-.574 4.879-1.71 0-.493-.27-.997-.813-1.54l4.645-4.648c.816.379 1.492.297 2.035-.246.488-.488.539-1.13.156-1.945l1.715-1.715 1.715 1.715c-.434.816-.383 1.488.16 2.03.488.489 1.164.54 2.031.16l4.648 4.65c-.542.542-.812 1.046-.812 1.538 0 1.137 1.621 1.711 4.879 1.711 3.254 0 4.875-.574 4.875-1.71 0-.926-.676-1.735-2.031-2.442V20.5c1.355-.434 2.03-1.094 2.03-1.96 0-.868-.675-1.528-2.03-1.962v-5.125c1.355-.707 2.03-1.515 2.03-2.441 0-1.137-1.62-1.711-4.874-1.711-3.258 0-4.879.574-4.879 1.71 0 .927.676 1.735 2.031 2.442v5.125c-1.355.434-2.031 1.094-2.031 1.961s.676 1.527 2.031 1.961v1.469l-3.02-3.024c.434-.812.384-1.488-.16-2.03-.488-.49-1.163-.54-2.03-.161l-1.876-1.8c.434-.599.653-1.188.653-1.786 0-1.031-.473-1.559-1.395-1.559-.762 0-1.402.254-1.945.743a2.843 2.843 0 0 0-1.961-.743c-.922 0-1.379.528-1.379 1.559 0 .598.219 1.187.656 1.785l-1.875 1.8c-.867-.378-1.543-.327-2.031.161-.543.543-.613 1.219-.18 2.031l-3.004 3.024V20.5c1.36-.434 2.036-1.094 2.036-1.96 0-.868-.676-1.528-2.036-1.962v-5.125c1.36-.707 2.036-1.515 2.036-2.441 0-1.137-1.622-1.711-4.88-1.711Zm0 1.626c.544 0 .95.035 1.22.086v7.16c-.27-.055-.676-.07-1.22-.07-.542 0-.964.015-1.238.07v-7.16c.274-.051.696-.086 1.239-.086Zm25.239 0c.543 0 .945.035 1.219.086v7.16c-.274-.055-.676-.07-1.22-.07-.542 0-.948.015-1.222.07v-7.16c.274-.051.68-.086 1.223-.086Zm-12.621 3.836c.219 0 .488.047.812.156v1.785l2.688 2.777c-.324.215-.715.606-1.149 1.149l-2.351-2.371-2.367 2.37c-.434-.542-.805-.933-1.133-1.148l2.687-2.777v-1.785c.328-.11.598-.156.813-.156ZM9.89 16.914c.164 0 .363.031.636.086h.582v3.094c-.109 0-.312.015-.582.07H9.238a3.193 3.193 0 0 0-.586-.07V17h.586c.27-.055.489-.086.653-.086Zm25.238 0c.16 0 .379.031.652.086h.567v3.094c-.11 0-.297.015-.567.07h-1.308a3.002 3.002 0 0 0-.567-.07V17h.567c.273-.055.492-.086.656-.086Zm-16.703 1.129c.11.055.226.14.336.25.11.105.195.191.246.246.11.11.176.211.23.316.11.11.227.23.336.336l-1.379 1.38a1.25 1.25 0 0 0-.336-.247c-.105-.11-.207-.21-.316-.32-.11-.106-.227-.207-.336-.317a.956.956 0 0 0-.16-.246Zm8.148 0 1.38 1.398a.956.956 0 0 0-.161.247l-.16.16c0 .054-.051.105-.156.156l-.336.32c-.11.055-.211.137-.32.246l-1.38-1.379c.11-.105.176-.226.23-.336l.337-.316.246-.246c.11-.11.21-.195.32-.25Zm-10.094 1.96c.329.493.7.88 1.133 1.153l-4.629 4.63-.25-.161v-1.96Zm12.055 0 3.746 3.661v1.961l-.246.16-4.648-4.629c.433-.273.824-.66 1.148-1.152Zm-19.883.903c.274.055.696.07 1.239.07.543 0 .949-.015 1.218-.07v7.16c-.27.051-.675.086-1.218.086-.543 0-.965-.035-1.239-.086Zm25.254 0c.274.055.68.07 1.223.07s.945-.015 1.219-.07v7.16c-.274.051-.676.086-1.22.086-.542 0-.948-.035-1.222-.086Zm0 0" style="stroke:none;fill-rule:nonzero;fill:#080;fill-opacity:1"/></svg>