<svg xmlns="http://www.w3.org/2000/svg" width="px" height="66px" viewBox="0 0 45 66"><path d="M-180.112 454.49h67.746a5.403 5.403 0 0 1 5.408 5.409v104.147a5.408 5.408 0 0 1-5.408 5.408h-67.746a5.408 5.408 0 0 1-5.409-5.408V459.9a5.403 5.403 0 0 1 5.409-5.409Zm0 0" style="fill-rule:nonzero;fill:#fff;fill-opacity:1;stroke-width:1.009;stroke-linecap:butt;stroke-linejoin:miter;stroke:#000;stroke-opacity:1;stroke-miterlimit:4" transform="translate(105.203 -256.743) scale(.56553)"/><path d="M9.715 43.707c-3.149 0-4.719.559-4.719 1.695 0 .926.676 1.754 2.031 2.457v2.688c-1.355.433-2.03 1.074-2.03 1.945 0 .867.675 1.528 2.03 1.961v2.684c-1.355.707-2.03 1.52-2.03 2.441 0 1.14 1.57 1.715 4.718 1.715 3.148 0 4.719-.574 4.719-1.715 0-.922-.676-1.734-2.036-2.441v-2.684c1.36-.433 2.036-1.094 2.036-1.96 0-.872-.676-1.513-2.036-1.946v-2.688c1.36-.703 2.036-1.53 2.036-2.457 0-1.136-1.57-1.695-4.72-1.695Zm0 1.625c.543 0 .945.02 1.219.07v4.739c-.274-.055-.676-.09-1.22-.09-.542 0-.948.035-1.218.09v-4.739c.27-.05.676-.07 1.219-.07Zm0 5.531c.16 0 .383.035.652.09h.567v3.094c-.11 0-.293.016-.567.07H9.06a3.006 3.006 0 0 0-.563-.07v-3.094h.563a3.66 3.66 0 0 1 .656-.09ZM8.496 54.86c.27.055.676.086 1.219.086s.945-.03 1.219-.086v4.72c-.274.054-.676.085-1.22.085-.542 0-.948-.031-1.218-.086Zm0 0" style="stroke:none;fill-rule:nonzero;fill:#080;fill-opacity:1"/><path d="M22.5 43.707c-3.148 0-4.719.559-4.719 1.695 0 .926.676 1.754 2.032 2.457v2.688c-1.356.433-2.032 1.074-2.032 1.945 0 .867.676 1.528 2.032 1.961v2.684c-1.356.707-2.032 1.52-2.032 2.441 0 1.14 1.57 1.715 4.719 1.715 3.148 0 4.719-.574 4.719-1.715 0-.922-.676-1.734-2.032-2.441v-2.684c1.356-.433 2.032-1.094 2.032-1.96 0-.872-.676-1.513-2.032-1.946v-2.688c1.356-.703 2.032-1.53 2.032-2.457 0-1.136-1.57-1.695-4.719-1.695Zm0 1.625c.543 0 .95.02 1.219.07v4.739c-.27-.055-.676-.09-1.219-.09s-.95.035-1.219.09v-4.739c.27-.05.676-.07 1.219-.07Zm0 5.531c.164 0 .383.035.652.09h.567v3.094c-.11 0-.293.016-.567.07h-1.308a3.006 3.006 0 0 0-.563-.07v-3.094h.563a3.66 3.66 0 0 1 .656-.09Zm-1.219 3.996c.27.055.676.086 1.219.086s.95-.03 1.219-.086v4.72c-.27.054-.676.085-1.219.085s-.95-.031-1.219-.086Zm0 0" style="stroke:none;fill-rule:nonzero;fill:#c00;fill-opacity:1"/><path d="M35.277 43.707c-3.148 0-4.718.559-4.718 1.695 0 .926.675 1.754 2.03 2.457v2.688c-1.355.433-2.03 1.074-2.03 1.945 0 .867.675 1.528 2.03 1.961v2.688c-1.355.703-2.03 1.515-2.03 2.437 0 1.14 1.57 1.715 4.718 1.715 3.149 0 4.72-.574 4.72-1.715 0-.922-.677-1.734-2.032-2.437v-2.688c1.355-.433 2.031-1.094 2.031-1.96 0-.872-.676-1.513-2.031-1.946v-2.688c1.355-.703 2.031-1.53 2.031-2.457 0-1.136-1.57-1.695-4.719-1.695Zm0 1.625c.543 0 .946.02 1.22.07v4.739c-.274-.055-.677-.09-1.22-.09-.543 0-.949.035-1.218.09v-4.739c.27-.05.675-.07 1.218-.07Zm0 5.531c.164 0 .383.035.653.09h.566v3.094c-.11 0-.293.016-.566.07H34.62a3.006 3.006 0 0 0-.562-.07v-3.094h.562a3.66 3.66 0 0 1 .656-.09ZM34.06 54.86c.27.055.675.09 1.218.09.543 0 .946-.035 1.22-.09v4.72c-.274.054-.677.089-1.22.089-.543 0-.949-.035-1.218-.09ZM9.715 24c-3.149 0-4.719.555-4.719 1.695 0 .926.676 1.75 2.031 2.457v2.688c-1.355.433-2.03 1.074-2.03 1.941 0 .871.675 1.528 2.03 1.965v2.684c-1.355.707-2.03 1.515-2.03 2.441 0 1.14 1.57 1.715 4.718 1.715 3.148 0 4.719-.574 4.719-1.715 0-.926-.676-1.734-2.036-2.441v-2.684c1.36-.437 2.036-1.094 2.036-1.965 0-.867-.676-1.508-2.036-1.941v-2.688c1.36-.707 2.036-1.53 2.036-2.457 0-1.14-1.57-1.695-4.72-1.695Zm0 1.625c.543 0 .945.016 1.219.07v4.739c-.274-.055-.676-.09-1.22-.09-.542 0-.948.035-1.218.09v-4.739c.27-.054.676-.07 1.219-.07Zm0 5.531c.16 0 .383.035.652.09h.567v3.094c-.11 0-.293.015-.567.07H9.06a3.006 3.006 0 0 0-.563-.07v-3.094h.563a3.66 3.66 0 0 1 .656-.09Zm-1.219 3.996c.27.055.676.086 1.219.086s.945-.031 1.219-.086v4.72c-.274.054-.676.085-1.22.085-.542 0-.948-.031-1.218-.086Zm0 0" style="stroke:none;fill-rule:nonzero;fill:#080;fill-opacity:1"/><path d="M22.5 24c-3.148 0-4.719.555-4.719 1.695 0 .926.676 1.75 2.032 2.457v2.688c-1.356.433-2.032 1.074-2.032 1.941 0 .871.676 1.528 2.032 1.965v2.684c-1.356.707-2.032 1.515-2.032 2.441 0 1.14 1.57 1.715 4.719 1.715 3.148 0 4.719-.574 4.719-1.715 0-.926-.676-1.734-2.032-2.441v-2.684c1.356-.437 2.032-1.094 2.032-1.965 0-.867-.676-1.508-2.032-1.941v-2.688c1.356-.707 2.032-1.53 2.032-2.457 0-1.14-1.57-1.695-4.719-1.695Zm0 1.625c.543 0 .95.016 1.219.07v4.739c-.27-.055-.676-.09-1.219-.09s-.95.035-1.219.09v-4.739c.27-.054.676-.07 1.219-.07Zm0 5.531c.164 0 .383.035.652.09h.567v3.094c-.11 0-.293.015-.567.07h-1.308a3.006 3.006 0 0 0-.563-.07v-3.094h.563a3.66 3.66 0 0 1 .656-.09Zm-1.219 3.996c.27.055.676.086 1.219.086s.95-.031 1.219-.086v4.72c-.27.054-.676.085-1.219.085s-.95-.031-1.219-.086Zm0 0" style="stroke:none;fill-rule:nonzero;fill:#c00;fill-opacity:1"/><path d="M35.277 24c-3.148 0-4.718.555-4.718 1.695 0 .926.675 1.754 2.03 2.457v2.688c-1.355.433-2.03 1.074-2.03 1.945 0 .867.675 1.528 2.03 1.961v2.684c-1.355.707-2.03 1.515-2.03 2.441 0 1.14 1.57 1.715 4.718 1.715 3.149 0 4.72-.574 4.72-1.715 0-.926-.677-1.734-2.032-2.441v-2.684c1.355-.434 2.031-1.094 2.031-1.96 0-.872-.676-1.513-2.031-1.946v-2.688c1.355-.703 2.031-1.53 2.031-2.457 0-1.14-1.57-1.695-4.719-1.695Zm0 1.625c.543 0 .946.016 1.22.07v4.739c-.274-.055-.677-.09-1.22-.09-.543 0-.949.035-1.218.09v-4.739c.27-.054.675-.07 1.218-.07Zm0 5.531c.164 0 .383.035.653.09h.566v3.094c-.11 0-.293.015-.566.07H34.62a3.006 3.006 0 0 0-.562-.07v-3.094h.562a3.66 3.66 0 0 1 .656-.09Zm-1.218 3.996c.27.055.675.086 1.218.086.543 0 .946-.031 1.22-.086v4.72c-.274.054-.677.085-1.22.085-.543 0-.949-.031-1.218-.086ZM9.723 4.293c-3.149 0-4.72.555-4.72 1.695 0 .922.677 1.75 2.032 2.457v2.688c-1.355.433-2.031 1.074-2.031 1.941 0 .871.676 1.528 2.031 1.965v2.684c-1.355.707-2.031 1.515-2.031 2.441 0 1.137 1.57 1.711 4.719 1.711 3.148 0 4.718-.574 4.718-1.71 0-.927-.675-1.735-2.03-2.442v-2.684c1.355-.437 2.03-1.094 2.03-1.965 0-.867-.675-1.508-2.03-1.941V8.445c1.355-.707 2.03-1.535 2.03-2.457 0-1.14-1.57-1.695-4.718-1.695Zm0 1.625c.543 0 .949.016 1.218.07v4.739c-.27-.055-.675-.09-1.218-.09-.543 0-.95.035-1.22.09V5.988c.27-.054.677-.07 1.22-.07Zm0 5.531c.164 0 .382.035.656.09h.562v3.094c-.105 0-.293.015-.562.07H9.07a3.037 3.037 0 0 0-.566-.07v-3.094h.566c.27-.055.489-.09.653-.09Zm-1.22 3.996c.27.055.677.086 1.22.086.543 0 .949-.031 1.218-.086v4.72c-.27.054-.675.085-1.218.085-.543 0-.95-.031-1.22-.086Zm0 0" style="stroke:none;fill-rule:nonzero;fill:#080;fill-opacity:1"/><path d="M22.508 4.293c-3.149 0-4.719.555-4.719 1.695 0 .922.676 1.75 2.035 2.457v2.688c-1.36.433-2.035 1.074-2.035 1.941 0 .871.676 1.528 2.035 1.965v2.684c-1.36.707-2.035 1.515-2.035 2.441 0 1.137 1.57 1.711 4.719 1.711 3.148 0 4.719-.574 4.719-1.71 0-.927-.676-1.735-2.032-2.442v-2.684c1.356-.437 2.032-1.094 2.032-1.965 0-.867-.676-1.508-2.032-1.941V8.445c1.356-.707 2.032-1.535 2.032-2.457 0-1.14-1.57-1.695-4.72-1.695Zm0 1.625c.543 0 .949.016 1.219.07v4.739c-.27-.055-.676-.09-1.22-.09-.542 0-.945.035-1.218.09V5.988c.273-.054.676-.07 1.219-.07Zm0 5.531c.164 0 .383.035.656.09h.563v3.094c-.106 0-.293.015-.563.07H21.855a3.037 3.037 0 0 0-.566-.07v-3.094h.566c.27-.055.493-.09.653-.09Zm-1.219 3.996c.273.055.676.086 1.219.086s.949-.031 1.219-.086v4.72c-.27.054-.676.085-1.22.085-.542 0-.945-.031-1.218-.086Zm0 0" style="stroke:none;fill-rule:nonzero;fill:#c00;fill-opacity:1"/><path d="M35.285 4.293c-3.148 0-4.719.555-4.719 1.695 0 .926.676 1.75 2.036 2.457v2.688c-1.36.433-2.036 1.074-2.036 1.941 0 .871.676 1.528 2.036 1.965v2.684c-1.36.707-2.036 1.515-2.036 2.441 0 1.14 1.57 1.715 4.72 1.715 3.148 0 4.718-.574 4.718-1.715 0-.926-.676-1.734-2.031-2.441v-2.684c1.355-.437 2.03-1.094 2.03-1.965 0-.867-.675-1.508-2.03-1.941V8.445c1.355-.707 2.03-1.53 2.03-2.457 0-1.14-1.57-1.695-4.718-1.695Zm0 1.625c.543 0 .95.016 1.219.07v4.739c-.27-.055-.676-.09-1.219-.09s-.945.035-1.219.09V5.988c.274-.054.676-.07 1.22-.07Zm0 5.531c.164 0 .383.035.656.09h.563v3.094c-.106 0-.293.015-.563.07h-1.308a3.037 3.037 0 0 0-.567-.07v-3.094h.567c.27-.055.492-.09.652-.09Zm-1.219 3.996c.274.055.676.086 1.22.086.542 0 .948-.031 1.218-.086v4.72c-.27.054-.676.085-1.219.085s-.945-.031-1.219-.086Zm0 0" style="stroke:none;fill-rule:nonzero;fill:#080;fill-opacity:1"/></svg>