<svg xmlns="http://www.w3.org/2000/svg" width="px" height="66px" viewBox="0 0 45 66"><path d="M5.917.489h67.746a5.403 5.403 0 0 1 5.409 5.408v104.148a5.408 5.408 0 0 1-5.409 5.408H5.917a5.408 5.408 0 0 1-5.408-5.408V5.897A5.403 5.403 0 0 1 5.917.49Zm0 0" style="fill-rule:nonzero;fill:#fff;fill-opacity:1;stroke-width:1.009;stroke-linecap:butt;stroke-linejoin:miter;stroke:#000;stroke-opacity:1;stroke-miterlimit:4" transform="translate(-.003 .009) scale(.56553)"/><path d="M17.121 12.27c0 1.523.488 2.992 1.465 4.402.977 1.41 1.469 3.066 1.469 4.965v.25c-.707.27-1.637.488-2.778.652-1.086.11-1.742.191-1.96.246.328.762 1 1.133 2.035 1.133.433 0 .988-.066 1.64-.23.653-.165 1.059-.247 1.219-.247 0 .868.02 1.457.074 1.786a84.292 84.292 0 0 1-7.246 1.8c-1.195-.543-1.906-.828-2.121-.828-.328 0-.527.133-.637.406.215.434.758 1.227 1.625 2.368a294.58 294.58 0 0 1 2.528 3.02c.812.925 1.218 1.429 1.218 1.538 0 .055-.066.172-.175.336-.055.11-.055.176 0 .23.488.598 1.011.934 1.554.989-.761 1.52-1.62 2.687-2.597 3.5l-.743-.566.336 1.042c-1.683 1.415-4.351 3.051-7.988 4.895.379.164 1.04.25 1.961.25 1.684 0 3.98-1.2 6.91-3.59 2.66 3.637 3.996 5.73 3.996 6.274 0 1.195.27 2.547.813 4.066.543 1.52 1.117 2.281 1.715 2.281 1.03 0 1.535-1.25 1.535-3.75 0-.27-.2-1.586-.637-3.976-.379-2.442-.582-4.434-.582-5.953 0-.489.035-1.2.09-2.121.055-.922.07-1.684.07-2.282.324 0 .543-.015.652-.07.708.922 1.688 2.39 2.934 4.402 1.305 1.953 2.332 3.336 3.094 4.153.758.761 1.52 1.129 2.281 1.129.594 0 1.34-.235 2.207-.723.867-.543 1.41-.832 1.625-.832.328 0 .902.203 1.715.586a9.51 9.51 0 0 0 2.527.722c-.707-1.086-1.953-1.98-3.746-2.687a94.023 94.023 0 0 1-5.957-2.598 15.373 15.373 0 0 1-5.37-4.328c.378-.164.917-.265 1.624-.316.488.379.895.562 1.219.562.488 0 .742-.422.742-1.289 0-.488.406-1.25 1.223-2.281.812-1.031 1.402-2.078 1.78-3.11 1.196-.163 1.806-.5 1.806-1.042 0-.653-.438-1.446-1.309-2.368-.867-.976-1.543-1.468-2.031-1.468l-6.93 1.222c0-.164.035-.468.09-.902.055-.434.07-.754.07-.973.653-.218 1.48-.402 2.457-.566 1.032-.215 1.758-.402 2.192-.567.488-.16.722-.378.722-.652 0-.27-.285-.574-.882-.902-.543-.38-1.067-.563-1.555-.563-.215 0-.54.22-.973.653-.433.379-1.058.668-1.87.882.108-1.14.327-2.035.651-2.683.38-.652.735-1.024 1.063-1.133.379-.164.7-.332.969-.496.328-.16.496-.398.496-.723 0-.652-.219-1.09-.653-1.308-.437-.219-1.449-.52-3.023-.903a29.543 29.543 0 0 1-4.629-1.714Zm9.117 13.203c1.305 0 1.946.218 1.946.652 0 .543-.356 1.438-1.063 2.688-.16-.11-.363-.278-.633-.497a2.577 2.577 0 0 0-.656-.476 1.054 1.054 0 0 0-.582-.176c-.598 0-1.137.168-1.625.496-.438.324-1.027.543-1.785.652v-1.218a29.26 29.26 0 0 1 .156-1.555c1.524-.379 2.942-.566 4.242-.566Zm-5.953.812v1.38c.05.597.086 1.034.086 1.308-.433.109-1.195.242-2.277.406-1.035.11-1.793.293-2.282.566-.164-.273-.703-.863-1.624-1.785 1.843-.816 3.87-1.441 6.097-1.875Zm5.371 3.34c.164 0 .465.102.903.32-.164.27-.434.793-.813 1.555-.383.703-.652 1.16-.816 1.379-1.192.27-2.207.406-3.02.406-.055-.383-.07-.887-.07-1.539 0-.652.015-1.125.07-1.394.38-.055 1.04-.192 1.961-.407.922-.218 1.512-.32 1.785-.32Zm-5.285.902v1.38c.055.652.09 1.175.09 1.554h-1.148c-.543-.055-.95-.121-1.22-.176-.542-.543-1-1.234-1.378-2.105.598-.325 1.812-.543 3.656-.653Zm-1.219 4.63c.164 0 .383.034.653.09h.656c-.328 5.429-.75 8.148-1.238 8.148-.27 0-.61-.172-1.043-.497a22.898 22.898 0 0 1-1.395-1.539c-.488-.648-.86-1.125-1.133-1.394 1.684-2.063 2.848-3.668 3.5-4.809Zm0 0" style="stroke:none;fill-rule:nonzero;fill:#000;fill-opacity:1"/></svg>