<svg xmlns="http://www.w3.org/2000/svg" width="px" height="66px" viewBox="0 0 45 66"><path d="M5.922.515h67.746a5.403 5.403 0 0 1 5.408 5.408v104.148a5.408 5.408 0 0 1-5.408 5.408H5.922a5.408 5.408 0 0 1-5.409-5.408V5.923A5.403 5.403 0 0 1 5.922.515Zm0 0" style="fill-rule:nonzero;fill:#fff;fill-opacity:1;stroke-width:1.009;stroke-linecap:butt;stroke-linejoin:miter;stroke:#000;stroke-opacity:1;stroke-miterlimit:4" transform="translate(-.005 -.006) scale(.56553)"/><path d="M23.523 13.621a13.356 13.356 0 0 0-3.09 4.242h.247c.597 0 .883.828.883 2.508 0 .871-.133 2.727-.407 5.55-.812.49-1.843.93-3.093 1.31-1.247.324-1.938.562-2.102.722.273.328.559.496.883.496 1.304 0 2.605-.168 3.906-.496a56.674 56.674 0 0 1-.813 5.621 10.39 10.39 0 0 0-1.378.567c-.434-.762-2.63-1.977-6.59-3.66-.11-.055-.246-.004-.41.16a.699.699 0 0 0-.176.496c0 .215.254.402.742.562.543.164 1.305.485 2.281.973a10.093 10.093 0 0 1 2.844 2.035c-.324.16-1.793.734-4.398 1.711-.383-.16-.872-.398-1.47-.723-.542-.379-1.015-.648-1.448-.812-.434-.219-.856-.336-1.235-.336l-.48.246a39.558 39.558 0 0 0 2.597 6.117c.22.488.524 1.18.903 2.102.433.867.789 1.578 1.062 2.12.27.544.555 1.153.883 1.802.379.597.734 1.054 1.059 1.379.328.273.664.406.992.406.324 0 .644-.133.973-.407.324-.324.492-.68.492-1.058 0-.871-.575-2.438-1.715-4.719-1.14-2.281-1.715-3.836-1.711-4.648-.004-.325.523-.766 1.555-1.309 1.03-.598 1.925-1 2.683-1.219 1.031 1.141 1.59 2.254 1.7 3.34-1.575.543-2.54.98-2.919 1.309.38.488.786.722 1.22.722.109 0 .245-.05.405-.156.22-.11.504-.246.887-.406.38-.164.817-.3 1.305-.406.055.27.105.66.16 1.148.055.488.121.86.176 1.13-.598.218-1.29.437-2.047.655-.762.215-1.27.403-1.54.563.27.543.59.812.974.812a2.3 2.3 0 0 0 .566-.07c.27-.105.61-.227.988-.336.38-.105.735-.207 1.059-.316 0 1.738-.067 2.937-.176 3.586a4.886 4.886 0 0 0-1.54-.246 66.349 66.349 0 0 1 3.821 2.527c1.14.762 1.934 1.316 2.367 1.695.434.328.875.613 1.309.832.434.164.89.23 1.379.23.379 0 .7-.066.969-.23.328-.219.664-.57.992-1.058.379-.543.7-1.07.973-1.559.27-.543.675-1.336 1.218-2.367A57.597 57.597 0 0 1 33.793 44c2.062-3.637 3.094-5.914 3.094-6.84 0-.433-.086-.82-.25-1.148-.16-.325-.465-.73-.899-1.219a30.304 30.304 0 0 1-.972-1.465c-.598-.976-1.137-1.652-1.625-2.035-.493-.434-.965-.688-1.399-.742-.379-.106-1.055-.156-2.031-.156.164-.22.383-.438.652-.657.274-.27.457-.488.567-.652.164-.219.246-.488.246-.813 0-.382-.54-1.054-1.625-2.035-.707.383-2.04 1.313-3.992 2.778-1.957 1.464-3.391 2.273-4.313 2.437a62.52 62.52 0 0 1 1.465-4.223c2.66-.761 4.703-1.539 6.117-2.296-.055-.434-.308-.993-.742-1.7-.383-.703-.734-1.058-1.063-1.058-.27 0-.812.37-1.625 1.129-.816.707-1.437 1.18-1.875 1.398.165-.543.352-1.387.567-2.527.273-1.14.476-1.899.582-2.281.598.488 1.238.726 1.945.726.274 0 .492-.016.656-.07v-.336c.051-.164.086-.266.086-.32 0-.977-.523-2.207-1.554-3.676-.977-1.52-1.739-2.38-2.282-2.598Zm2.122 16.453c.433 0 .656.153.656.477 0 .164-.051.418-.16.742-1.032.707-2.856 1.418-5.461 2.121.164-.812.297-1.336.406-1.555a20.32 20.32 0 0 0 1.945-.652c.703-.328 1.278-.598 1.715-.812.434-.22.738-.32.899-.32Zm2.617 2.934c.258 0 .523.015.793.07 1.902 2.067 2.863 3.348 2.863 3.836 0 .328-.031.629-.086.902-.055.27-.156.61-.32 1.043-.16.38-.297.72-.407.989-.109.273-.359.761-.742 1.468a45.244 45.244 0 0 0-.812 1.696 24.435 24.435 0 0 1-1.715 3.18c-.543.925-.996 1.581-1.379 1.964-.324.38-.578.563-.742.563-.215 0-1.262-.403-3.16-1.219.27-.867.457-2.508.562-4.895 1.52-.378 2.957-.566 4.313-.566.328 0 .496-.184.496-.566 0-.868-.356-1.305-1.063-1.305-.105 0-.293.05-.562.156-.219.055-.625.192-1.219.406-.543.22-1.203.422-1.965.586.11-1.414.195-2.207.25-2.37 1.301-.38 2.785-.563 4.469-.563.598 0 .902-.172.902-.496 0-.325-.136-.598-.406-.813-.273-.273-.574-.406-.902-.406-.434 0-1.211.102-2.348.316.215-.488.453-.96.723-1.449.324-.488.644-.96.972-1.394.325-.489.578-.844.743-1.063.242-.055.484-.07.742-.07Zm-2.953.32c-.434 1.246-1.059 2.633-1.872 4.152-.761.38-1.671.684-2.757.903-.325-1.14-.867-2.305-1.625-3.5 1.574-.707 3.648-1.23 6.254-1.555Zm0 0" style="stroke:none;fill-rule:nonzero;fill:#000;fill-opacity:1"/></svg>