<svg xmlns="http://www.w3.org/2000/svg" width="px" height="66px" viewBox="0 0 45 66"><path d="M336.542 489.426h67.746a5.403 5.403 0 0 1 5.409 5.408v104.148a5.408 5.408 0 0 1-5.409 5.408h-67.746a5.408 5.408 0 0 1-5.408-5.408V494.834a5.403 5.403 0 0 1 5.408-5.408Zm0 0" style="fill-rule:nonzero;fill:#fff;fill-opacity:1;stroke-width:1.009;stroke-linecap:butt;stroke-linejoin:miter;stroke:#000;stroke-opacity:1;stroke-miterlimit:4" transform="translate(-186.98 -276.5) scale(.56553)"/><path d="M30.586 18.496c-.543 0-2.2.305-4.969.902a822.014 822.014 0 0 0-10.02 2.282c-3.964.867-6.476 1.406-7.562 1.625.05.652.645.988 1.785.988.106 0 .867-.168 2.278-.496 1.414-.324 3.152-.645 5.214-.969 2.118-.328 4.075-.496 5.868-.496 1.574 0 2.504.168 2.773.496-.215.598-.789 1.238-1.715 1.942l-1.218.406c-.055.164-.172.605-.336 1.308-.758 1.086-2.024 2.555-3.817 4.403 0-.871-.117-1.883-.336-3.024-.218-1.14-.539-1.695-.972-1.695-.325 0-.497.422-.497 1.289 0 .11.172 1.629.497 4.559-1.086.597-2.555 1.207-4.399 1.804-.437-.816-1.465-1.777-3.094-2.863-.109-.055-.195-.055-.246 0 0 0-.05.066-.16.176l-.16.16c.055.324.273.965.652 1.941.383.926 1.008 2.563 1.875 4.899a249.16 249.16 0 0 1 2.758 7.156c-.816.488-1.219.879-1.219 1.148 0 1.086 1.028 1.626 3.09 1.626.438 0 1.063-.051 1.875-.157a15.87 15.87 0 0 1 2.051-.16c.488 0 1.129.05 1.941.16.817.106 1.442.157 1.875.157 1.63 0 2.641-.489 3.024-1.465 1.031-2.336 2.058-4.293 3.09-5.868 1.086-1.628 1.93-2.675 2.527-3.164.652-.543 1.16-1.03 1.54-1.468.378-.434.566-.871.566-1.305 0-.98-.946-2.195-2.848-3.66-1.899-1.52-3.281-2.281-4.152-2.281-.489 0-1.028.152-1.625.48-.598.324-1.325.578-2.192.742.11-.816.293-1.492.567-2.035.27-.105.64-.191 1.128-.246.543-.11.934-.227 1.149-.336.273-.164.406-.434.406-.812 0-.543-.488-1.082-1.465-1.625.055-.329.29-.633.723-.903.652-.11 1.094-.16 1.309-.16.761 0 2.058.137 3.906.406 1.847.219 3.18.336 3.996.336.758 0 1.148-.355 1.148-1.058 0-1.086-1.183-2.286-3.52-3.59-.269-.16-.605-.383-1.042-.653-.38-.324-.719-.546-.988-.652-.274-.164-.625-.25-1.06-.25Zm-8.324 10.305a.916.916 0 0 1 .261.05v.231c0 .164-.015.418-.07.742v.656c-.16.055-.45.137-.828.247-.383.109-.719.175-1.043.23.11-.707.309-1.332.637-1.875.406-.203.758-.293 1.043-.281Zm3.851 2.492c.543 0 1.184.305 1.946.902.812.594 1.234 1.235 1.234 1.942 0 .597-.742 2.37-2.207 5.3-1.469 2.88-2.582 4.82-3.34 5.852-.383.11-.805.14-1.293.09.164-2.227.672-6.836 1.54-13.84.812-.164 1.523-.246 2.12-.246Zm-3.906.652c-.055.653-.172 1.766-.336 3.34a175.85 175.85 0 0 1-.406 4.88c-.11 1.683-.211 3.37-.317 5.054h-.656c-.324-.055-.543-.09-.652-.09-.11-2.172-.246-4.637-.406-7.402-.164-2.825-.266-4.48-.32-4.97.327-.109.831-.241 1.538-.405a25.76 25.76 0 0 1 1.555-.407Zm-4.648 1.38c0 .487.035 1.148.09 1.96.054.762.07 1.403.07 1.945.054.489.086.829.086.989 0 1.086.101 2.351.32 3.82.219 1.465.352 2.477.406 3.02h-1.379c-.707-2.985-1.87-6.364-3.5-10.11 1.63-.812 2.93-1.351 3.907-1.625Zm0 0" style="stroke:none;fill-rule:nonzero;fill:#000;fill-opacity:1"/></svg>