<svg xmlns="http://www.w3.org/2000/svg" width="px" height="66px" viewBox="0 0 45 66"><path d="M83.9 397.41h67.745a5.403 5.403 0 0 1 5.409 5.409v104.147a5.408 5.408 0 0 1-5.409 5.409H83.9a5.408 5.408 0 0 1-5.408-5.409V402.82a5.403 5.403 0 0 1 5.408-5.408Zm0 0" style="fill-rule:nonzero;fill:#fff;fill-opacity:1;stroke-width:1.009;stroke-linecap:butt;stroke-linejoin:miter;stroke:#000;stroke-opacity:1;stroke-miterlimit:4" transform="translate(-44.104 -224.462) scale(.56553)"/><path d="M6.223 46.48c0-.437.324-1.03.976-1.792.707-.813 1.574-2.145 2.606-3.993 1.086-1.898 1.984-4.207 2.687-6.922-1.898-1.246-2.93-2.55-3.094-3.906 1.086.488 2.309.813 3.665.977a4.004 4.004 0 0 1 .488-1.547c.164.379.273 1.004.328 1.871 1.52.488 2.277 1.086 2.277 1.793 0 .762-.867 1.14-2.605 1.14a110.062 110.062 0 0 1-.977 4.723c-.324 1.356-.57 2.309-.73 2.852-.11.543-.164.922-.164 1.14 0 .434.054.73.164.895.543-.055 1.52-.516 2.93-1.387 1.464-.922 2.605-1.707 3.421-2.36.325-.542.489-1.71.489-3.503 0-.379-.028-1.031-.082-1.953v-2.035c0-1.52-.137-2.743-.407-3.664-.273-.977-.597-1.63-.976-1.957a8.087 8.087 0 0 1-.899-1.059 2.19 2.19 0 0 1-.406-1.3c0-.598.219-1.114.652-1.548a38 38 0 0 0 2.688.895c.976.219 1.601.406 1.871.57.328.11.652.352.977.735.328.378.597.949.816 1.707-.922.597-1.492 1.523-1.711 2.77-.219 1.25-.379 4.073-.488 8.468.543-.324 1.168-.785 1.87-1.383.763-.598 1.278-.977 1.552-1.14 0-1.301.105-2.903.324-4.805.219-1.953.324-3.285.324-3.989 0-.437-.027-.816-.082-1.14-.05-.383-.133-.68-.242-.899a3.825 3.825 0 0 0-.324-.648c-.055-.219-.192-.41-.41-.57a1.679 1.679 0 0 0-.407-.328c-.054-.11-.219-.215-.488-.325a4.652 4.652 0 0 1-.406-.328c.215-.648.488-1.191.812-1.625.383-.492.871-.98 1.465-1.469.598-.543 1.063-1.003 1.387-1.382.488.378 1.14 1.14 1.953 2.28.871 1.087 1.305 1.954 1.305 2.606 0 .215-.165.461-.489.73-.273.22-.57.462-.898.735-.324.219-.649.762-.977 1.63-.27.812-.406 1.87-.406 3.175v4.723c.379-.27.895-.598 1.547-.977a116.68 116.68 0 0 0 1.387-.816c.324-.215.593-.516.812-.895a2.72 2.72 0 0 0 .406-1.465.7.7 0 0 0-.082-.324v-.328c.328-.324.899-.488 1.711-.488.762 0 1.547.273 2.364.816.812.488 1.218 1.082 1.218 1.789 0 .328-.351.57-1.058.734-.649.16-1.79.516-3.418 1.059-1.574.488-3.149 1.223-4.723 2.2v.648c0 3.367.297 5.511.895 6.433.597.926 1.953 1.387 4.07 1.387 1.086 0 2.172-.11 3.258-.328 1.14-.27 1.902-.406 2.281-.406.707 0 1.059.273 1.059.816 0 2.277-3.067 3.418-9.204 3.418-1.41 0-2.578-.297-3.5-.895-.87-.597-1.304-1.41-1.304-2.441v-1.387c.054-.597.082-1.058.082-1.383 0-.597-.055-1.359-.164-2.28a46.894 46.894 0 0 1-.078-2.118 55.083 55.083 0 0 0-3.422 2.77c0 .214.027.488.082.812.054.328.082.598.082.816 0 .704-.246 1.329-.735 1.872-.433.488-.812.761-1.14.816-.164 0-.352-.082-.57-.246-.215-.215-.325-.434-.325-.652 0-.27-.191-.649-.57-1.137-1.031.703-2.2 1.652-3.504 2.847-1.246 1.196-2.36 2.09-3.336 2.688a5.448 5.448 0 0 1-3.015.895c-.977 0-1.465-.567-1.465-1.708" style="stroke:none;fill-rule:nonzero;fill:#000;fill-opacity:1"/></svg>