<svg xmlns="http://www.w3.org/2000/svg" width="px" height="66px" viewBox="0 0 45 66"><path d="M431.47 533.38h67.747a5.403 5.403 0 0 1 5.408 5.409v104.147a5.408 5.408 0 0 1-5.408 5.408h-67.746a5.408 5.408 0 0 1-5.409-5.408V538.789a5.403 5.403 0 0 1 5.409-5.409Zm0 0" style="fill-rule:nonzero;fill:#fff;fill-opacity:1;stroke-width:1.009;stroke-linecap:butt;stroke-linejoin:miter;stroke:#000;stroke-opacity:1;stroke-miterlimit:4" transform="translate(-240.666 -301.357) scale(.56553)"/><path d="M28.121 14.688c-.273.269-.762 1.437-1.469 3.5-.703 2.062-1.297 3.414-1.785 4.062-.867-.977-1.375-1.602-1.535-1.871.379-1.031.563-1.574.563-1.629 0-.324-.168-.594-.493-.813-.328-.269-.648-.406-.972-.406-.325 0-.649.172-.973.496a15.41 15.41 0 0 0-1.148 1.29c-.38.542-.735.984-1.059 1.308-.492.434-1.164.957-2.035 1.555-.813.597-1.574 1.136-2.277 1.625-.653.488-1.008.761-1.063.816.219.215.54.317.973.317.597 0 1.441-.27 2.527-.813 1.086-.543 1.93-.848 2.527-.902-.597 1.683-1.66 3.457-3.18 5.3-.542-.593-1.406-1.32-2.597-2.191-1.195-.922-2.227-1.445-3.094-1.555.055.762.727 1.79 2.031 3.094 1.36 1.25 2.118 2.043 2.282 2.367-2.117 2.77-5.375 5.91-9.774 9.438 2.063-.38 3.75-1.004 5.055-1.871 1.3-.926 2.82-2.41 4.559-4.473.867-.543 1.543-.812 2.03-.812.329 0 .599.05.813.16 0 .758-.218 1.418-.652 1.96-.816.325-1.895.965-3.25 1.942-1.36.98-2.238 1.586-2.617 1.805.27.433.746.636 1.394.636.489 0 1.164-.37 2.036-1.132.867-.813 1.578-1.27 2.12-1.38.868.598 1.325 1.106 1.376 1.54-.27.27-1.739 1.015-4.399 2.207-2.66 1.195-4.195 1.785-4.629 1.785-.492 0-1.453-.3-2.863-.898.543 1.898 1.25 2.843 2.121 2.843.922 0 1.512-.05 1.781-.16.22.219.575.625 1.063 1.223.488.594.879 1.07 1.148 1.394.27.27.625.543 1.059.813.437.273.84.406 1.223.406.433 0 .804-.117 1.128-.336.329-.215.63-.57.903-1.058.324-.489.593-.946.812-1.38.219-.488.52-1.163.903-2.03.433-.926.804-1.72 1.128-2.372.434-.11 1.13-.175 2.051-.23.922-.106 1.48-.192 1.696-.246-.16 1.304-.704 2.433-1.625 3.41-.868.926-1.711 1.668-2.528 2.21-.758.544-1.129.966-1.129 1.29 0 .273.102.527.317.742.273.219.543.32.812.32.489 0 1.453-.406 2.864-1.222 1.464-.867 2.378-1.578 2.757-2.121.164-.27.418-1.891.743-4.875h.652c.328-.055.527-.09.637-.09.328 0 .765.035 1.308.09h1.309c1.898 0 2.965-.27 3.18-.813-.489-.652-1.317-1.125-2.458-1.398-.214-.055-.484.03-.812.25-.27.16-.508.246-.723.246-.11 0-.5.035-1.148.09-.652.05-1.242.07-1.785.07.054-1.086.152-2.117.316-3.094.328-.219.817-.402 1.469-.566.703-.164 1.11-.297 1.219-.406-.22-.813-.59-1.22-1.133-1.22-.598 0-1.32.22-2.192.653-.812.438-1.422.656-1.8.656-.164 0-.383-.172-.657-.496.383-1.25.72-2.261.993-3.023.324-.813.527-1.32.636-1.535.16-.22.282-.438.336-.657.106-.214.156-.52.156-.898 0-1.086-.675-2.066-2.03-2.934.054.38.089.786.089 1.22 0 1.788-.355 3.968-1.062 6.519-.868.543-1.762.898-2.684 1.062a2.405 2.405 0 0 1 .316-1.715c.164-.109.383-.21.653-.32.273-.16.508-.332.726-.492.215-.164.387-.348.496-.567-.218-.433-.66-.652-1.308-.652-.219 0-.504.133-.883.406-.383.215-.688.336-.902.336-.434 0-.825-.172-1.149-.496 2.66-4.18 4.383-7.035 5.14-8.555 1.196 1.25 2.512 3.293 3.977 6.118 0 .05-.27.543-.812 1.465.488 0 .96-.118 1.394-.336 1.305 2.117 2.2 3.89 2.688 5.3.488 1.36.894 2.27 1.219 2.758.925.434 2.004 1.043 3.254 1.805a67.005 67.005 0 0 0 3.093 1.785c.867.434 1.575.652 2.117.652-1.085-2.226-1.98-3.828-2.683-4.808-.707-.977-1.281-1.551-1.715-1.711-.434-.219-1.21-.895-2.352-2.035-1.14-1.14-2.523-2.793-4.152-4.965.219-.164.488-.434.813-.813a7.235 7.235 0 0 1 1.062-.902 1.7 1.7 0 0 1 .969-.316c.273 0 .406-.188.406-.567 0-.379-.219-.805-.652-1.238-.434-.434-.89-.668-1.38-.723-.323 1.14-1.066 2.29-2.206 3.426-.219-.215-.774-1.043-1.7-2.453 1.305-1.848 2.266-3.602 2.919-5.285.109-.219.277-.438.496-.657.27-.214.406-.402.406-.562 0-.438-.223-.96-.656-1.559-.434-.648-.79-1.02-1.059-1.129Zm-6.344 19.367a6.92 6.92 0 0 1-.32 1.062c-.11.38-.227.684-.336.903-.055.214-.09.402-.09.562.274-.05.797-.508 1.559-1.375.433.16 1.008.246 1.71.246 0 .922-.116 1.918-.331 3.004-2.121.324-3.301.512-3.57.566-.055-.164-.31-.703-.743-1.625-.054-.109-.277-.261-.656-.48-.379-.27-.617-.66-.723-1.148.922-.922 2.086-1.497 3.5-1.715Zm-4.472 5.78c.324.216.476.505.476.833 0 .434-.406 1.207-1.218 2.348-.817 1.14-1.489 1.714-2.032 1.714-1.414 0-2.562-.437-3.43-1.308 1.41-1.14 3.489-2.336 6.204-3.586Zm0 0" style="stroke:none;fill-rule:nonzero;fill:#080;fill-opacity:1"/><path d="M27.637 42.695c.328-.328 1.004-.488 2.039-.488 1.246 0 2.441.324 3.582.977 1.14.652 1.71 1.382 1.71 2.199 0 .812-.437 1.492-1.304 2.035a4.978 4.978 0 0 1-2.605.73h-.247c-.05-.05-.105-.078-.16-.078-.273-.383-.597-1.03-.976-1.957-.383-.922-1.059-2.062-2.04-3.418" style="stroke:none;fill-rule:nonzero;fill:#080;fill-opacity:1"/></svg>