<svg xmlns="http://www.w3.org/2000/svg" width="px" height="66px" viewBox="0 0 45 66"><path d="M530.26 569.935h67.747a5.403 5.403 0 0 1 5.408 5.408V679.49a5.408 5.408 0 0 1-5.408 5.409h-67.746a5.408 5.408 0 0 1-5.409-5.409V575.343a5.403 5.403 0 0 1 5.409-5.408Zm0 0" style="fill-rule:nonzero;fill:#fff;fill-opacity:1;stroke-width:1.009;stroke-linecap:butt;stroke-linejoin:miter;stroke:#000;stroke-opacity:1;stroke-miterlimit:4" transform="translate(-296.535 -322.03) scale(.56553)"/><path d="M21.2 11.54c-2.063 1.468-3.09 2.815-3.09 4.065 0 .165.05.399.156.723.109.274.16.477.16.586.328 0 .629.102.902.316.27.165.457.434.567.813.16.328.296.648.406.973.11.273.191.71.246 1.308.055.543.09.98.09 1.309.054.27.07.726.07 1.379v1.218c-.219.215-1.266.692-3.164 1.395-1.902.707-3.016 1.063-3.34 1.063-.328 0-.73-.172-1.219-.497a41.606 41.606 0 0 1-1.644-1.308c-.598-.543-1.102-.95-1.54-1.219-.433.488-.652 1.418-.652 2.773 0 .926 1.032 2.274 3.094 4.067 2.063 1.793 3.09 2.937 3.09 3.43 0 .812.223 1.218.656 1.218.653 0 1.496-.172 2.528-.496 1.03-.379 1.757-.566 2.191-.566 0 .87.035 2.254.086 4.152.055 1.848.09 3.063.09 3.66 0 1.032-.035 2.18-.09 3.43-.05 1.246-.086 2.059-.086 2.438 0 3.636.336 5.73.988 6.273.434-.434.84-1.363 1.22-2.773.382-1.415.565-2.813.565-4.223 0-.598-.05-1.746-.16-3.43-.105-1.683-.156-2.715-.156-3.094 0-.214.016-1.23.07-3.023.055-1.844.086-3.008.086-3.496 1.305.055 2.367.172 3.184.336.867.16 1.426.246 1.695.246.762 0 1.149-.488 1.149-1.469 0-.215.187-.57.566-1.058.379-.489.871-1.149 1.465-1.961.652-.817 1.176-1.524 1.558-2.121.489-.38 1.247-.567 2.278-.567.433 0 .637-.234.637-.723 0-.328-.102-.683-.317-1.062-.219-.434-.437-.773-.656-.988-.16-.274-.516-.676-1.059-1.219-.543-.543-.898-.914-1.062-1.133-.758-.976-1.348-1.465-1.785-1.465-.38 0-.953.133-1.711.407-.762.27-1.707.64-2.848 1.128-1.14.434-2.07.774-2.773.993.109-1.196.312-2.176.582-2.934.273-.762.507-1.25.726-1.469.27-.218.488-.437.653-.652.218-.273.316-.578.316-.902 0-.762-.504-1.805-1.535-3.164-1.031-1.356-2.098-2.25-3.184-2.688ZM28.694 24c.867 0 1.309.32 1.309.973 0 .324-.086.73-.25 1.218-.164.434-.434.957-.813 1.555-.324.543-.628 1.016-.902 1.45-.27.378-.64.937-1.129 1.644-.488.652-.828 1.074-.992 1.289h-1.465c-.543-.055-.914-.07-1.133-.07 0-1.954.102-4.235.32-6.84C25.813 24.406 27.5 24 28.696 24Zm-7.988 2.191v6.114c-.871.218-1.73.37-2.598.48-.761-1.578-1.742-3.195-2.933-4.879.215.11.433.16.652.16.274 0 .645-.086 1.133-.25a37.788 37.788 0 0 0 1.871-.812c.762-.379 1.387-.649 1.875-.813Zm0 0" style="stroke:none;fill-rule:nonzero;fill:#c00;fill-opacity:1"/></svg>